SplineFontDB: 3.0
FontName: Molengo-Regular
FullName: Molengo-Regular
FamilyName: Molengo
Weight: Regular
Copyright: Copyright (c) Denis Moyogo Jacquerye, 2007. Some rights reserved.\nOFL 1.1
Version: 0.10
ItalicAngle: 0
UnderlinePosition: -196
UnderlineWidth: 90
Ascent: 1556
Descent: 492
LayerCount: 5
Layer: 0 1 "Back"  1
Layer: 1 1 "Fore"  0
Layer: 2 0 "Sketch"  0
Layer: 3 0 "Skeleton"  1
Layer: 4 0 "ForeCFF"  0
XUID: [1021 786 1613055102 314323]
FSType: 0
OS2Version: 2
OS2_WeightWidthSlopeOnly: 0
OS2_UseTypoMetrics: 1
CreationTime: 1182169782
ModificationTime: 1358805041
PfmFamily: 17
TTFWeight: 400
TTFWidth: 5
LineGap: 61
VLineGap: 0
Panose: 2 0 0 0 0 0 0 0 0 0
OS2TypoAscent: 0
OS2TypoAOffset: 1
OS2TypoDescent: 0
OS2TypoDOffset: 1
OS2TypoLinegap: 61
OS2WinAscent: 208
OS2WinAOffset: 1
OS2WinDescent: -39
OS2WinDOffset: 1
HheadAscent: 208
HheadAOffset: 1
HheadDescent: 39
HheadDOffset: 1
OS2SubXSize: 1331
OS2SubYSize: 1229
OS2SubXOff: 0
OS2SubYOff: 154
OS2SupXSize: 1434
OS2SupYSize: 1331
OS2SupXOff: 0
OS2SupYOff: 977
OS2StrikeYSize: 102
OS2StrikeYPos: 512
OS2Vendor: 'PYRS'
Lookup: 1 0 0 "'smcp' Lowercase to Single Small Capitals"  {"'smcp' Lowercase to Single Small Capitals-1" ("c2sc" ) } ['smcp' ('DFLT' <'dflt' > 'cyrl' <'dflt' > 'grek' <'dflt' > 'latn' <'dflt' > ) ]
Lookup: 1 0 0 "'c2sc' Capitals to Small Capitals lookup 5"  {"'c2sc' Capitals to Small Capitals lookup 5-1" ("c2sc" ) } ['c2sc' ('DFLT' <'dflt' > 'cyrl' <'dflt' > 'grek' <'dflt' > 'latn' <'dflt' > ) ]
Lookup: 1 0 0 "'tnum' Tabular Numbers"  {"'tnum' Tabular Numbers" ("tnum" ) } ['tnum' ('DFLT' <'dflt' > 'cyrl' <'dflt' > 'grek' <'dflt' > 'latn' <'dflt' > ) ]
Lookup: 1 0 0 "'lnum' Lining Figures"  {"'lnum' Lining Figure" ("lnum" ) } ['lnum' ('DFLT' <'dflt' > 'cyrl' <'dflt' > 'grek' <'dflt' > 'latn' <'dflt' > ) ]
Lookup: 5 0 0 "'ccmp' Contextual Alternates in Latin lookup 0"  {"'ccmp' Contextual Alternates in Latin lookup 0-1"  } ['ccmp' ('DFLT' <'dflt' > 'latn' <'dflt' > ) ]

StartChar: .notdef
Encoding: 65536 -1 0
Width: 886
Flags: MW
LayerCount: 5
Fore
SplineSet
68 0 m 1,0,-1
 68 1365 l 1,1,-1
 750 1365 l 1,2,-1
 750 0 l 1,3,-1
 68 0 l 1,0,-1
136 68 m 1,4,-1
 682 68 l 1,5,-1
 682 1297 l 1,6,-1
 136 1297 l 1,7,-1
 136 68 l 1,4,-1
EndSplineSet
EndChar

StartChar: exclam
Encoding: 33 33 4
Width: 454
GlyphClass: 2
Flags: MW
LayerCount: 5
Fore
SplineSet
107 1392 m 1,0,-1
 347 1392 l 1,1,-1
 283 460 l 1,2,-1
 191 460 l 1,3,-1
 107 1392 l 1,0,-1
109 103 m 256,4,5
 109 153 109 153 143.5 188.5 c 128,-1,6
 178 224 178 224 227 224 c 256,7,8
 276 224 276 224 310.5 188.5 c 128,-1,9
 345 153 345 153 345 103 c 256,10,11
 345 53 345 53 310.5 17.5 c 128,-1,12
 276 -18 276 -18 227 -18 c 256,13,14
 178 -18 178 -18 143.5 17.5 c 128,-1,15
 109 53 109 53 109 103 c 256,4,5
EndSplineSet
Layer: 2
SplineSet
103 103 m 0
 103 170 156 224 221 224 c 0
 286 224 339 170 339 103 c 0
 339 36 286 -18 221 -18 c 0
 156 -18 103 36 103 103 c 0
101 1392 m 25
 341 1392 l 25
 277 460 l 25
 185 460 l 25
 101 1392 l 25
EndSplineSet
Layer: 4
SplineSet
101 1392 m 1
 341 1392 l 1
 277 460 l 1
 185 460 l 1
 101 1392 l 1
103 103 m 0
 103 170 156 224 221 224 c 0
 286 224 339 170 339 103 c 0
 339 36 286 -18 221 -18 c 0
 156 -18 103 36 103 103 c 0
EndSplineSet
Validated: 1
EndChar

StartChar: quotedbl
Encoding: 34 34 5
Width: 575
GlyphClass: 2
Flags: MW
LayerCount: 5
Fore
SplineSet
513 1428 m 1,0,-1
 465 980 l 1,1,-1
 361 980 l 1,2,-1
 361 1428 l 1,3,-1
 513 1428 l 1,0,-1
216 1428 m 1,4,-1
 168 980 l 1,5,-1
 64 980 l 1,6,-1
 64 1428 l 1,7,-1
 216 1428 l 1,4,-1
EndSplineSet
Layer: 2
SplineSet
216 1428 m 29
 168 980 l 29
 64 980 l 29
 64 1428 l 29
 216 1428 l 29
513 1428 m 29
 465 980 l 29
 361 980 l 29
 361 1428 l 29
 513 1428 l 29
EndSplineSet
Layer: 4
SplineSet
513 1428 m 1
 465 980 l 1
 361 980 l 1
 361 1428 l 1
 513 1428 l 1
216 1428 m 1
 168 980 l 1
 64 980 l 1
 64 1428 l 1
 216 1428 l 1
EndSplineSet
Validated: 1
EndChar

StartChar: numbersign
Encoding: 35 35 6
Width: 1181
GlyphClass: 2
Flags: MW
LayerCount: 5
Fore
SplineSet
524 1475 m 1,0,-1
 652 1475 l 1,1,-1
 554 1011 l 1,2,-1
 850 1011 l 1,3,-1
 948 1475 l 1,4,-1
 1076 1475 l 1,5,-1
 978 1010 l 1,6,-1
 1187 1010 l 1,7,-1
 1187 901 l 1,8,-1
 955 901 l 1,9,-1
 878 539 l 1,10,-1
 1087 539 l 1,11,-1
 1087 430 l 1,12,-1
 855 430 l 1,13,-1
 764 0 l 1,14,-1
 636 0 l 1,15,-1
 727 431 l 1,16,-1
 431 431 l 1,17,-1
 340 0 l 1,18,-1
 212 0 l 1,19,-1
 303 432 l 1,20,-1
 84 432 l 1,21,-1
 84 541 l 1,22,-1
 326 541 l 1,23,-1
 403 903 l 1,24,-1
 184 903 l 1,25,-1
 184 1012 l 1,26,-1
 426 1012 l 1,27,-1
 524 1475 l 1,0,-1
454 540 m 1,28,-1
 750 540 l 1,29,-1
 827 902 l 1,30,-1
 531 902 l 1,31,-1
 454 540 l 1,28,-1
EndSplineSet
Layer: 2
SplineSet
1187 901 m 29
 184 903 l 29
 184 1012 l 21
 1187 1010 l 13
 1187 901 l 29
1087 430 m 29
 84 432 l 29
 84 541 l 21
 1087 539 l 13
 1087 430 l 29
948 1475 m 21
 1076 1475 l 13
 764 0 l 13
 636 0 l 21
 948 1475 l 21
524 1475 m 21
 652 1475 l 13
 340 0 l 13
 212 0 l 21
 524 1475 l 21
EndSplineSet
Layer: 4
SplineSet
524 1475 m 1
 652 1475 l 1
 554 1011 l 1
 850 1011 l 1
 948 1475 l 1
 1076 1475 l 1
 978 1010 l 1
 1187 1010 l 1
 1187 901 l 1
 955 901 l 1
 878 539 l 1
 1087 539 l 1
 1087 430 l 1
 855 430 l 1
 764 0 l 1
 636 0 l 1
 727 431 l 1
 431 431 l 1
 340 0 l 1
 212 0 l 1
 303 432 l 1
 84 432 l 1
 84 541 l 1
 326 541 l 1
 403 903 l 1
 184 903 l 1
 184 1012 l 1
 426 1012 l 1
 524 1475 l 1
750 540 m 1
 827 902 l 1
 531 902 l 1
 454 540 l 1
 750 540 l 1
EndSplineSet
Validated: 1
EndChar

StartChar: dollar
Encoding: 36 36 7
Width: 966
GlyphClass: 2
Flags: MW
LayerCount: 5
Fore
SplineSet
429 683 m 1,0,-1
 429 1040 l 1,1,2
 366 1024 366 1024 326.5 980 c 128,-1,3
 287 936 287 936 287 872 c 256,4,5
 287 808 287 808 324 763.5 c 128,-1,6
 361 719 361 719 429 683 c 1,0,-1
429 1174 m 1,7,-1
 429 1338 l 1,8,-1
 546 1338 l 1,9,-1
 546 1173 l 1,10,11
 695 1159 695 1159 783 1099 c 1,12,-1
 747 971 l 1,13,14
 659 1031 659 1031 546 1044 c 1,15,-1
 546 629 l 1,16,17
 547 628 547 628 550 627 c 0,18,19
 585 612 585 612 602.5 604.5 c 128,-1,20
 620 597 620 597 652.5 581.5 c 128,-1,21
 685 566 685 566 702.5 555 c 128,-1,22
 720 544 720 544 746.5 526 c 128,-1,23
 773 508 773 508 788 492 c 128,-1,24
 803 476 803 476 821 454 c 128,-1,25
 839 432 839 432 848 409 c 128,-1,26
 857 386 857 386 863.5 357 c 128,-1,27
 870 328 870 328 870 296 c 0,28,29
 870 175 870 175 781.5 86.5 c 128,-1,30
 693 -2 693 -2 546 -16 c 1,31,-1
 546 -180 l 1,32,-1
 429 -180 l 1,33,-1
 429 -16 l 1,34,35
 381 -13 381 -13 339 -5.5 c 128,-1,36
 297 2 297 2 265.5 12 c 128,-1,37
 234 22 234 22 204 35 c 128,-1,38
 174 48 174 48 149.5 62 c 128,-1,39
 125 76 125 76 96 91 c 1,40,-1
 154 211 l 1,41,42
 191 187 191 187 208.5 177 c 128,-1,43
 226 167 226 167 262.5 150 c 128,-1,44
 299 133 299 133 339 124.5 c 128,-1,45
 379 116 379 116 429 113 c 1,46,-1
 429 527 l 1,47,48
 391 544 391 544 365 556.5 c 128,-1,49
 339 569 339 569 304 589 c 128,-1,50
 269 609 269 609 246.5 627.5 c 128,-1,51
 224 646 224 646 199 672 c 128,-1,52
 174 698 174 698 159.5 726 c 128,-1,53
 145 754 145 754 135.5 790 c 128,-1,54
 126 826 126 826 126 867 c 0,55,56
 126 989 126 989 209 1074 c 128,-1,57
 292 1159 292 1159 429 1174 c 1,7,-1
546 473 m 1,58,-1
 546 117 l 1,59,60
 625 131 625 131 667 176 c 128,-1,61
 709 221 709 221 709 274 c 0,62,63
 709 341 709 341 667 387 c 128,-1,64
 625 433 625 433 546 473 c 1,58,-1
EndSplineSet
Layer: 2
SplineSet
546 1338 m 9
 546 -180 l 17
 429 -180 l 1
 429 1338 l 1
 546 1338 l 9
154 211 m 17
 230 162 304 111 479 111 c 0
 636 111 709 197 709 274 c 0
 709 553 126 486 126 867 c 4
 126 1042 265 1176 478 1176 c 4
 621 1176 729 1136 783 1099 c 13
 747 971 l 17
 700 1003 611 1047 490 1047 c 0
 383 1047 287 981.667 287 871.667 c 0
 287 588.667 870 662 870 296 c 0
 870 125 725 -18 497 -18 c 0
 281 -18 198 36 96 91 c 9
 154 211 l 17
EndSplineSet
Layer: 4
SplineSet
429 113 m 1
 429 527 l 1
 280 594 126 671 126 867 c 0
 126 1028 244 1155 429 1174 c 1
 429 1338 l 1
 546 1338 l 1
 546 1173 l 1
 655 1163 738 1130 783 1099 c 1
 747 971 l 1
 708 998 639 1033 546 1044 c 1
 546 629 l 1
 702 563 870 493 870 296 c 0
 870 138 746 3 546 -16 c 1
 546 -180 l 1
 429 -180 l 1
 429 -16 l 1
 262 -6 187 42 96 91 c 1
 154 211 l 1
 222 167 289 122 429 113 c 1
429 1040 m 1
 349 1020 287 960 287 872 c 0
 287 781 347 727 429 683 c 1
 429 1040 l 1
546 117 m 1
 657 138 709 209 709 274 c 0
 709 371 638 426 546 473 c 1
 546 117 l 1
EndSplineSet
Validated: 1
EndChar

StartChar: percent
Encoding: 37 37 8
Width: 1566
GlyphClass: 2
Flags: MW
LayerCount: 5
Fore
SplineSet
1117 1391 m 1,0,-1
 1245 1391 l 1,1,-1
 458 0 l 1,2,-1
 330 0 l 1,3,-1
 1117 1391 l 1,0,-1
375 1392 m 0,4,5
 431 1392 431 1392 486 1375 c 128,-1,6
 541 1358 541 1358 592.5 1322 c 128,-1,7
 644 1286 644 1286 676 1219.5 c 128,-1,8
 708 1153 708 1153 708 1065 c 128,-1,9
 708 977 708 977 676 910.5 c 128,-1,10
 644 844 644 844 592.5 808.5 c 128,-1,11
 541 773 541 773 486 756 c 128,-1,12
 431 739 431 739 375 739 c 0,13,14
 318 739 318 739 263 756 c 128,-1,15
 208 773 208 773 156.5 808.5 c 128,-1,16
 105 844 105 844 73 910.5 c 128,-1,17
 41 977 41 977 41 1065 c 128,-1,18
 41 1153 41 1153 73 1219.5 c 128,-1,19
 105 1286 105 1286 156.5 1322 c 128,-1,20
 208 1358 208 1358 263 1375 c 128,-1,21
 318 1392 318 1392 375 1392 c 0,4,5
375 846 m 128,-1,23
 407 846 407 846 438 857.5 c 128,-1,24
 469 869 469 869 498.5 893 c 128,-1,25
 528 917 528 917 546.5 961.5 c 128,-1,26
 565 1006 565 1006 565 1065 c 128,-1,27
 565 1124 565 1124 546.5 1168.5 c 128,-1,28
 528 1213 528 1213 498.5 1237 c 128,-1,29
 469 1261 469 1261 438 1272.5 c 128,-1,30
 407 1284 407 1284 375 1284 c 128,-1,31
 343 1284 343 1284 311.5 1272.5 c 128,-1,32
 280 1261 280 1261 250.5 1237 c 128,-1,33
 221 1213 221 1213 202.5 1168.5 c 128,-1,34
 184 1124 184 1124 184 1065 c 128,-1,35
 184 1006 184 1006 202.5 961.5 c 128,-1,36
 221 917 221 917 250.5 893 c 128,-1,37
 280 869 280 869 311.5 857.5 c 128,-1,22
 343 846 343 846 375 846 c 128,-1,23
1153 635 m 0,38,39
 1209 635 1209 635 1264 618 c 128,-1,40
 1319 601 1319 601 1370.5 565 c 128,-1,41
 1422 529 1422 529 1454 462.5 c 128,-1,42
 1486 396 1486 396 1486 308 c 128,-1,43
 1486 220 1486 220 1454 153.5 c 128,-1,44
 1422 87 1422 87 1370.5 51.5 c 128,-1,45
 1319 16 1319 16 1264 -1 c 128,-1,46
 1209 -18 1209 -18 1153 -18 c 0,47,48
 1096 -18 1096 -18 1041 -1 c 128,-1,49
 986 16 986 16 934.5 51.5 c 128,-1,50
 883 87 883 87 851 153.5 c 128,-1,51
 819 220 819 220 819 308 c 128,-1,52
 819 396 819 396 851 462.5 c 128,-1,53
 883 529 883 529 934.5 565 c 128,-1,54
 986 601 986 601 1041 618 c 128,-1,55
 1096 635 1096 635 1153 635 c 0,38,39
1153 89 m 128,-1,57
 1185 89 1185 89 1216 100.5 c 128,-1,58
 1247 112 1247 112 1276.5 136 c 128,-1,59
 1306 160 1306 160 1324.5 204.5 c 128,-1,60
 1343 249 1343 249 1343 308 c 128,-1,61
 1343 367 1343 367 1324.5 411.5 c 128,-1,62
 1306 456 1306 456 1276.5 480 c 128,-1,63
 1247 504 1247 504 1216 515.5 c 128,-1,64
 1185 527 1185 527 1153 527 c 128,-1,65
 1121 527 1121 527 1089.5 515.5 c 128,-1,66
 1058 504 1058 504 1028.5 480 c 128,-1,67
 999 456 999 456 980.5 411.5 c 128,-1,68
 962 367 962 367 962 308 c 128,-1,69
 962 249 962 249 980.5 204.5 c 128,-1,70
 999 160 999 160 1028.5 136 c 128,-1,71
 1058 112 1058 112 1089.5 100.5 c 128,-1,56
 1121 89 1121 89 1153 89 c 128,-1,57
EndSplineSet
Layer: 2
SplineSet
1153 89 m 0
 1231 89 1343 143 1343 308 c 0
 1343 474 1231 527 1153 527 c 0
 1074 527 962 474 962 308 c 0
 962 143 1074 89 1153 89 c 0
1153 635 m 0
 1292 635 1486 555 1486 308 c 0
 1486 61 1292 -18 1153 -18 c 0
 1013 -18 819 61 819 308 c 0
 819 555 1013 635 1153 635 c 0
375 846 m 0
 453 846 565 900 565 1065 c 0
 565 1231 453 1284 375 1284 c 0
 296 1284 184 1231 184 1065 c 0
 184 900 296 846 375 846 c 0
375 1392 m 0
 514 1392 708 1312 708 1065 c 0
 708 818 514 739 375 739 c 0
 235 739 41 818 41 1065 c 0
 41 1312 235 1392 375 1392 c 0
1117 1391 m 17
 1245 1391 l 9
 458 0 l 9
 330 0 l 17
 1117 1391 l 17
EndSplineSet
Layer: 4
SplineSet
1117 1391 m 1
 1245 1391 l 1
 458 0 l 1
 330 0 l 1
 1117 1391 l 1
375 1392 m 0
 514 1392 708 1312 708 1065 c 0
 708 818 514 739 375 739 c 0
 235 739 41 818 41 1065 c 0
 41 1312 235 1392 375 1392 c 0
375 846 m 0
 453 846 565 900 565 1065 c 0
 565 1231 453 1284 375 1284 c 0
 296 1284 184 1231 184 1065 c 0
 184 900 296 846 375 846 c 0
1153 635 m 0
 1292 635 1486 555 1486 308 c 0
 1486 61 1292 -18 1153 -18 c 0
 1013 -18 819 61 819 308 c 0
 819 555 1013 635 1153 635 c 0
1153 89 m 0
 1231 89 1343 143 1343 308 c 0
 1343 474 1231 527 1153 527 c 0
 1074 527 962 474 962 308 c 0
 962 143 1074 89 1153 89 c 0
EndSplineSet
Validated: 1
EndChar

StartChar: ampersand
Encoding: 38 38 9
Width: 1466
GlyphClass: 2
Flags: MW
LayerCount: 5
Fore
SplineSet
1060.75 276.313 m 1,0,-1
 1319 0 l 1,1,-1
 1098.64 -3.27516e-15 l 1,2,-1
 959.439 148.941 l 1,3,4
 790.281 -17.5216 790.281 -17.5216 530 -17 c 0,5,6
 401 -17 401 -17 292.5 34.5 c 128,-1,7
 184 86 184 86 117.5 183.5 c 128,-1,8
 51 281 51 281 51 404 c 0,9,10
 51 478.138 51 478.138 74.729 544.76 c 128,-1,11
 98.4579 611.383 98.4579 611.383 140.48 663.246 c 128,-1,12
 182.503 715.109 182.503 715.109 233.093 754.975 c 128,-1,13
 283.684 794.84 283.684 794.84 344.173 825.33 c 1,14,15
 279 929.723 279 929.723 279 1042 c 0,16,17
 279 1195 279 1195 379 1290.5 c 128,-1,18
 479 1386 479 1386 641 1386 c 0,19,20
 717.955 1386 717.955 1386 790.712 1361.21 c 128,-1,21
 863.469 1336.42 863.469 1336.42 945.826 1294.81 c 1,22,-1
 906.832 1152.49 l 1,23,24
 732.711 1255.9 732.711 1255.9 639 1257 c 0,25,26
 556 1257 556 1257 509.5 1195.5 c 128,-1,27
 463 1134 463 1134 463 1042 c 0,28,29
 463 985 463 985 483 934 c 128,-1,30
 503 883 503 883 526 853.5 c 128,-1,31
 549 824 549 824 590 780 c 2,32,-1
 959.358 384.802 l 1,33,34
 1027.79 499.826 1027.79 499.826 1069.26 645.487 c 128,-1,35
 1110.73 791.147 1110.73 791.147 1127 941 c 1,36,-1
 1248 867.6 l 1,37,38
 1194.64 489.01 1194.64 489.01 1060.75 276.313 c 1,0,-1
433.794 711.392 m 1,39,40
 346.957 662.037 346.957 662.037 290.978 582.998 c 128,-1,41
 235 503.96 235 503.96 235 404 c 0,42,43
 235 280 235 280 321 196 c 128,-1,44
 407 112 407 112 530 112 c 0,45,46
 721.45 112 721.45 112 860.782 254.501 c 1,47,-1
 436 709 l 2,48,49
 434.899 710.192 434.899 710.192 433.794 711.392 c 1,39,40
EndSplineSet
Layer: 2
SplineSet
1098.64 -3.27516e-15 m 5
 436 709 l 6
 363 788 279 893 279 1042 c 7
 279 1246.36 425.364 1386 641 1386 c 7
 742.005 1386 825 1352 894 1320 c 4
 911.516 1311.78 928.776 1303.43 945.826 1294.81 c 5
 906.832 1152.49 l 5
 837.304 1193.78 720.309 1256.04 639 1257 c 7
 523.421 1257 463 1158.37 463 1042 c 7
 463 920 524 850 590 780 c 6
 1319 0 l 5
 1098.64 -3.27516e-15 l 5
1248 867.6 m 5
 1187.96 441.569 1029 -18 530 -17 c 4
 273.001 -16.485 51 150 51 404 c 7
 51 647 247 797 430 862 c 5
 512 747 l 5
 380 701 235 581 235 404 c 7
 235 237 367 112 530 112 c 4
 928.9 112 1087.99 581.728 1127 941 c 5
 1248 867.6 l 5
EndSplineSet
Layer: 3
SplineSet
1221 956 m 0
 1203.31 770.363 1152.3 586.755 1062 423.6 c 0
 1006.21 322.799 934.018 229.68 842.194 160.096 c 0
 752.376 92.0324 642.128 47.9338 529.546 47.9338 c 0
 527.032 47.9338 524.517 47.9558 522 48 c 0
 459.159 49.1042 396.417 64.0249 340.549 92.8156 c 0
 284.68 121.606 235.865 164.306 201 216.6 c 0
 170.147 262.877 150.408 316.644 145 372 c 0
 143.974 382.502 143.47 393.044 143.47 403.584 c 0
 143.47 455.133 155.522 506.645 177.47 553.355 c 0
 203.905 609.616 244.103 658.798 291 699.6 c 0
 343.714 745.463 405.13 781.289 471 804.6 c 0
  Spiro
    1221 956 {
    1062 423.6 o
    522 48 o
    201 216.6 c
    145 372 o
    291 699.6 c
    471 804.6 v
    0 0 z
  EndSpiro
1241.88 -35.1699 m 1
 513 744.6 l 2
 471.581 788.911 431.126 835.336 405.131 890.139 c 0
 382.707 937.414 371.115 989.714 371.115 1042.03 c 0
 371.115 1050.36 371.409 1058.69 372 1067 c 0
 376.379 1128.59 397.232 1190.22 438 1236.6 c 0
 462.878 1264.9 494.673 1286.93 529.56 1301.17 c 0
 563.523 1315.03 600.316 1321.51 637.004 1321.51 c 0
 640 1321.5 l 0
 710.641 1320.82 778.871 1296.23 843 1266.6 c 0
 888.656 1245.5 933.157 1221.9 976.235 1195.94 c 0
  Spiro
    1241.88 -35.1699 {
    513 744.6 ]
    372 1067 c
    438 1236.6 c
    640 1321.5 o
    843 1266.6 c
    976.235 1195.94 v
    0 0 z
  EndSpiro
EndSplineSet
Layer: 4
SplineSet
1060.75 276.313 m 5
 1319 0 l 5
 1098.64 -3.27516e-15 l 5
 959.439 148.941 l 5
 855.367 46.5266 716.41 -17.3736 530 -17 c 4
 273.001 -16.485 51 150 51 404 c 4
 51 609.08 190.601 747.92 344.173 825.33 c 5
 306.731 885.304 279 956.389 279 1042 c 4
 279 1246.36 425.364 1386 641 1386 c 4
 756 1386 861.681 1337.33 945.826 1294.81 c 5
 906.832 1152.49 l 5
 837.304 1193.78 720.309 1256.04 639 1257 c 4
 523.421 1257 463 1158.37 463 1042 c 4
 463 920 524 850 590 780 c 6
 959.358 384.802 l 5
 1056.54 548.152 1107.22 758.782 1127 941 c 5
 1248 867.6 l 5
 1218.64 659.264 1165.62 442.908 1060.75 276.313 c 5
433.794 711.392 m 5
 328.563 651.582 235 546.181 235 404 c 4
 235 237 367 112 530 112 c 4
 666.888 112 775.536 167.316 860.782 254.501 c 5
 436 709 l 6
 435.266 709.795 434.53 710.592 433.794 711.392 c 5
EndSplineSet
Validated: 33
EndChar

StartChar: quotesingle
Encoding: 39 39 10
Width: 264
GlyphClass: 2
Flags: MW
LayerCount: 5
Fore
SplineSet
216 1428 m 1,0,-1
 168 980 l 1,1,-1
 64 980 l 1,2,-1
 64 1428 l 1,3,-1
 216 1428 l 1,0,-1
EndSplineSet
Layer: 2
SplineSet
216 1428 m 25
 168 980 l 25
 64 980 l 25
 64 1428 l 25
 216 1428 l 25
EndSplineSet
Layer: 4
SplineSet
216 1428 m 1
 168 980 l 1
 64 980 l 1
 64 1428 l 1
 216 1428 l 1
EndSplineSet
Validated: 1
EndChar

StartChar: parenleft
Encoding: 40 40 11
Width: 634
GlyphClass: 2
Flags: MW
LayerCount: 5
Fore
SplineSet
271 492 m 256,0,1
 271 352.261 271 352.261 292.753 220.664 c 128,-1,2
 314.504 89.0674 314.504 89.0674 357.289 -33.1572 c 128,-1,3
 400.078 -155.382 400.078 -155.382 453.847 -264.851 c 128,-1,4
 507.613 -374.319 507.613 -374.319 581 -493.443 c 1,5,-1
 471 -493.443 l 1,6,7
 364.572 -341.485 364.572 -341.485 291.918 -204.241 c 128,-1,8
 219.265 -66.9961 219.265 -66.9961 180.488 54.2148 c 128,-1,9
 141.712 175.426 141.712 175.426 125.855 278.502 c 128,-1,10
 110 381.577 110 381.577 110 492 c 0,11,12
 110 599.819 110 599.819 125.906 702.515 c 128,-1,13
 141.813 805.209 141.813 805.209 180.438 926.953 c 128,-1,14
 219.061 1048.7 219.061 1048.7 291.969 1187.31 c 128,-1,15
 364.878 1325.92 364.878 1325.92 471 1477.44 c 1,16,-1
 581 1477.44 l 1,17,18
 507.638 1358.36 507.638 1358.36 453.847 1248.81 c 128,-1,19
 400.06 1139.26 400.06 1139.26 357.289 1017.01 c 128,-1,20
 314.513 894.773 314.513 894.773 292.753 763.194 c 128,-1,21
 270.997 631.614 270.997 631.614 271 492 c 256,0,1
EndSplineSet
Layer: 2
SplineSet
271 492 m 0
 271 109.711 396 -193.146 581 -493.443 c 9
 471 -493.443 l 17
 179 -76.5254 110 216.475 110 492 c 0
 110 760.228 179 1060.53 471 1477.44 c 9
 581 1477.44 l 17
 396 1177.15 271 873.933 271 492 c 0
EndSplineSet
Layer: 4
SplineSet
271 492 m 0
 271 110 396 -193 581 -493 c 1
 471 -493 l 1
 179 -76 110 216 110 492 c 0
 110 760 179 1060 471 1477 c 1
 581 1477 l 1
 396 1177 271 874 271 492 c 0
EndSplineSet
Validated: 1
EndChar

StartChar: parenright
Encoding: 41 41 12
Width: 634
GlyphClass: 2
Flags: MW
LayerCount: 5
Fore
SplineSet
363 492 m 256,0,1
 363 631.614 363 631.614 341.242 763.194 c 128,-1,2
 319.482 894.773 319.482 894.773 276.706 1017.01 c 128,-1,3
 233.934 1139.26 233.934 1139.26 180.148 1248.81 c 128,-1,4
 126.36 1358.36 126.36 1358.36 53 1477.44 c 1,5,-1
 163 1477.44 l 1,6,7
 269.122 1325.92 269.122 1325.92 342.031 1187.31 c 128,-1,8
 414.939 1048.7 414.939 1048.7 453.562 926.953 c 128,-1,9
 492.187 805.209 492.187 805.209 508.094 702.515 c 128,-1,10
 524 599.819 524 599.819 524 492 c 0,11,12
 524 381.577 524 381.577 508.145 278.502 c 128,-1,13
 492.288 175.426 492.288 175.426 453.512 54.2148 c 128,-1,14
 414.735 -66.9961 414.735 -66.9961 342.082 -204.241 c 128,-1,15
 269.428 -341.485 269.428 -341.485 163 -493.443 c 1,16,-1
 53 -493.443 l 1,17,18
 126.384 -374.319 126.384 -374.319 180.148 -264.851 c 128,-1,19
 233.917 -155.382 233.917 -155.382 276.706 -33.1572 c 128,-1,20
 319.491 89.0674 319.491 89.0674 341.242 220.664 c 128,-1,21
 362.997 352.261 362.997 352.261 363 492 c 256,0,1
EndSplineSet
Layer: 2
SplineSet
363 492 m 0
 363 873.933 238 1177.15 53 1477.44 c 9
 163 1477.44 l 17
 455 1060.53 524 760.228 524 492 c 0
 524 216.475 455 -76.5254 163 -493.443 c 9
 53 -493.443 l 17
 238 -193.146 363 109.711 363 492 c 0
EndSplineSet
Layer: 4
SplineSet
363 492 m 0
 363 874 238 1177 53 1477 c 1
 163 1477 l 1
 455 1060 524 760 524 492 c 0
 524 216 455 -76 163 -493 c 1
 53 -493 l 1
 238 -193 363 110 363 492 c 0
EndSplineSet
Validated: 1
EndChar

StartChar: asterisk
Encoding: 42 42 13
Width: 849
GlyphClass: 2
Flags: MW
LayerCount: 5
Fore
SplineSet
454 953 m 1,0,-1
 603 704 l 1,1,-1
 477 645 l 1,2,-1
 398 930 l 1,3,-1
 208 711 l 1,4,-1
 113 813 l 1,5,-1
 360 975 l 1,6,-1
 93 1088 l 1,7,-1
 161 1210 l 1,8,-1
 391 1026 l 1,9,-1
 416 1315 l 1,10,-1
 553 1288 l 1,11,-1
 449 1012 l 1,12,-1
 732 1078 l 1,13,-1
 748 939 l 1,14,-1
 454 953 l 1,0,-1
EndSplineSet
Layer: 2
SplineSet
454 953 m 29
 603 704 l 29
 477 645 l 29
 398 930 l 29
 208 711 l 29
 113 813 l 29
 360 975 l 29
 93 1088 l 29
 161 1210 l 29
 391 1026 l 29
 416 1315 l 29
 553 1288 l 29
 449 1012 l 29
 732 1078 l 29
 748 939 l 29
 454 953 l 29
EndSplineSet
Layer: 4
SplineSet
454 953 m 1
 603 704 l 1
 477 645 l 1
 398 930 l 1
 208 711 l 1
 113 813 l 1
 360 975 l 1
 93 1088 l 1
 161 1210 l 1
 391 1026 l 1
 416 1315 l 1
 553 1288 l 1
 449 1012 l 1
 732 1078 l 1
 748 939 l 1
 454 953 l 1
EndSplineSet
Validated: 1
EndChar

StartChar: plus
Encoding: 43 43 14
Width: 1130
GlyphClass: 2
Flags: MW
LayerCount: 5
Fore
SplineSet
620 558 m 1,0,-1
 1069 558 l 1,1,-1
 1069 449 l 1,2,-1
 620 449 l 1,3,-1
 620 0 l 1,4,-1
 510 0 l 1,5,-1
 510 449 l 1,6,-1
 61 449 l 1,7,-1
 61 558 l 1,8,-1
 510 558 l 1,9,-1
 510 1008 l 1,10,-1
 620 1008 l 1,11,-1
 620 558 l 1,0,-1
EndSplineSet
Layer: 2
SplineSet
510 0 m 25
 510 1008 l 25
 620 1008 l 17
 620 0 l 9
 510 0 l 25
1069 449 m 25
 61 449 l 25
 61 558 l 17
 1069 558 l 9
 1069 449 l 25
EndSplineSet
Layer: 4
SplineSet
620 449 m 1
 620 0 l 1
 510 0 l 1
 510 449 l 1
 61 449 l 1
 61 558 l 1
 510 558 l 1
 510 1008 l 1
 620 1008 l 1
 620 558 l 1
 1069 558 l 1
 1069 449 l 1
 620 449 l 1
EndSplineSet
Validated: 1
EndChar

StartChar: comma
Encoding: 44 44 15
Width: 450
GlyphClass: 2
Flags: MW
LayerCount: 5
Fore
SplineSet
205 -27 m 0,0,1
 205 -15 205 -15 189.5 -4.5 c 128,-1,2
 174 6 174 6 156 14.5 c 128,-1,3
 138 23 138 23 122.5 48 c 128,-1,4
 107 73 107 73 107 111 c 0,5,6
 107 153 107 153 138.5 188.5 c 128,-1,7
 170 224 170 224 225 224 c 0,8,9
 266 224 266 224 293.5 206.5 c 128,-1,10
 321 189 321 189 332 161 c 128,-1,11
 343 133 343 133 347 112 c 128,-1,12
 351 91 351 91 351 69 c 0,13,14
 351 -9 351 -9 312 -95.5 c 128,-1,15
 273 -182 273 -182 157 -294 c 1,16,-1
 75 -222 l 1,17,18
 205 -98 205 -98 205 -27 c 0,0,1
EndSplineSet
Layer: 2
SplineSet
205 -27 m 4
 205 12 107 -1.3838e-07 107 111 c 4
 107 160.5 145.5 224 225 224 c 4
 341 224 351 111 351 69 c 4
 351 -13 329 -128 157 -294 c 13
 75 -222 l 21
 166 -135 205 -71 205 -27 c 4
EndSplineSet
Layer: 4
SplineSet
205 -27 m 0
 205 12 107 0 107 111 c 0
 107 161 145 224 225 224 c 0
 341 224 351 111 351 69 c 0
 351 -13 329 -128 157 -294 c 1
 75 -222 l 1
 166 -135 205 -71 205 -27 c 0
EndSplineSet
Validated: 1
EndChar

StartChar: hyphen
Encoding: 45 45 16
Width: 765
GlyphClass: 2
Flags: MW
LayerCount: 5
Fore
SplineSet
690 449 m 1,0,-1
 61 449 l 1,1,-1
 61 558 l 1,2,-1
 690 558 l 1,3,-1
 690 449 l 1,0,-1
EndSplineSet
Layer: 2
SplineSet
697 449 m 29
 68 449 l 29
 68 558 l 21
 697 558 l 13
 697 449 l 29
EndSplineSet
Layer: 4
SplineSet
697 449 m 1
 68 449 l 1
 68 558 l 1
 697 558 l 1
 697 449 l 1
EndSplineSet
Validated: 1
EndChar

StartChar: period
Encoding: 46 46 17
Width: 450
GlyphClass: 2
Flags: MW
LayerCount: 5
Fore
SplineSet
107 103 m 256,0,1
 107 153 107 153 141.5 188.5 c 128,-1,2
 176 224 176 224 225 224 c 256,3,4
 274 224 274 224 308.5 188.5 c 128,-1,5
 343 153 343 153 343 103 c 256,6,7
 343 53 343 53 308.5 17.5 c 128,-1,8
 274 -18 274 -18 225 -18 c 256,9,10
 176 -18 176 -18 141.5 17.5 c 128,-1,11
 107 53 107 53 107 103 c 256,0,1
EndSplineSet
Layer: 2
SplineSet
107 103 m 4
 107 170 160 224 225 224 c 4
 290 224 343 170 343 103 c 4
 343 36 290 -18 225 -18 c 4
 160 -18 107 36 107 103 c 4
EndSplineSet
Layer: 4
SplineSet
107 103 m 0
 107 170 160 224 225 224 c 0
 290 224 343 170 343 103 c 0
 343 36 290 -18 225 -18 c 0
 160 -18 107 36 107 103 c 0
EndSplineSet
Validated: 1
EndChar

StartChar: slash
Encoding: 47 47 18
Width: 645
GlyphClass: 2
Flags: MW
LayerCount: 5
Fore
SplineSet
493 1475 m 1,0,-1
 621 1475 l 1,1,-1
 152 0 l 1,2,-1
 24 0 l 1,3,-1
 493 1475 l 1,0,-1
EndSplineSet
Layer: 2
SplineSet
493 1475 m 21
 621 1475 l 13
 152 0 l 13
 24 0 l 21
 493 1475 l 21
EndSplineSet
Layer: 4
SplineSet
493 1475 m 1
 621 1475 l 1
 152 0 l 1
 24 0 l 1
 493 1475 l 1
EndSplineSet
Validated: 1
EndChar

StartChar: zero
Encoding: 48 48 19
Width: 1231
GlyphClass: 2
Flags: MW
LayerCount: 5
Fore
SplineSet
616 111 m 256,0,1
 667 111 667 111 718.5 123.5 c 128,-1,2
 770 136 770 136 823.5 166.5 c 128,-1,3
 877 197 877 197 917.5 243 c 128,-1,4
 958 289 958 289 984 361.5 c 128,-1,5
 1010 434 1010 434 1010 524 c 256,6,7
 1010 614 1010 614 984 687 c 128,-1,8
 958 760 958 760 917.5 805.5 c 128,-1,9
 877 851 877 851 823.5 882 c 128,-1,10
 770 913 770 913 718.5 925.5 c 128,-1,11
 667 938 667 938 616 938 c 256,12,13
 565 938 565 938 513 925.5 c 128,-1,14
 461 913 461 913 408 882 c 128,-1,15
 355 851 355 851 314 805.5 c 128,-1,16
 273 760 273 760 247.5 687 c 128,-1,17
 222 614 222 614 222 524 c 256,18,19
 222 434 222 434 247.5 361.5 c 128,-1,20
 273 289 273 289 314 243 c 128,-1,21
 355 197 355 197 408 166.5 c 128,-1,22
 461 136 461 136 513 123.5 c 128,-1,23
 565 111 565 111 616 111 c 256,0,1
616 1067 m 256,24,25
 690 1067 690 1067 763 1050.5 c 128,-1,26
 836 1034 836 1034 911 994 c 128,-1,27
 986 954 986 954 1042.5 894 c 128,-1,28
 1099 834 1099 834 1135 738 c 128,-1,29
 1171 642 1171 642 1171 524 c 256,30,31
 1171 406 1171 406 1135 310.5 c 128,-1,32
 1099 215 1099 215 1042.5 155 c 128,-1,33
 986 95 986 95 911 55 c 128,-1,34
 836 15 836 15 763 -1.5 c 128,-1,35
 690 -18 690 -18 616 -18 c 256,36,37
 542 -18 542 -18 469 -1.5 c 128,-1,38
 396 15 396 15 321 55 c 128,-1,39
 246 95 246 95 189.5 155 c 128,-1,40
 133 215 133 215 97 310.5 c 128,-1,41
 61 406 61 406 61 524 c 0,42,43
 61 643 61 643 97 738.5 c 128,-1,44
 133 834 133 834 189.5 894 c 128,-1,45
 246 954 246 954 321 994 c 128,-1,46
 396 1034 396 1034 469 1050.5 c 128,-1,47
 542 1067 542 1067 616 1067 c 256,24,25
EndSplineSet
Layer: 2
SplineSet
616 111 m 0
 776 111 1010 211 1010 524 c 0
 1010 838 776 938 616 938 c 0
 455 938 222 838 222 524 c 0
 222 211 455 111 616 111 c 0
616 1067 m 0
 847 1067 1171 936 1171 524 c 0
 1171 113 847 -18 616 -18 c 0
 384 -18 61 113 61 524 c 0
 61 936 384 1067 616 1067 c 0
EndSplineSet
Layer: 3
SplineSet
142 524 m 0
 142 877 414 1002 616 1002 c 0
 817 1002 1090 877 1090 524 c 0
 1090 172 817 46 616 46 c 0
 414 46 142 172 142 524 c 0
EndSplineSet
Layer: 4
SplineSet
616 1067 m 0
 847 1067 1171 936 1171 524 c 0
 1171 113 847 -18 616 -18 c 0
 384 -18 61 113 61 524 c 0
 61 936 384 1067 616 1067 c 0
616 111 m 0
 776 111 1010 211 1010 524 c 0
 1010 838 776 938 616 938 c 0
 455 938 222 838 222 524 c 0
 222 211 455 111 616 111 c 0
EndSplineSet
Validated: 1
Substitution2: "'c2sc' Capitals to Small Capitals lookup 5-1" zero.c2sc
Substitution2: "'tnum' Tabular Numbers" zero.tnum
Substitution2: "'lnum' Lining Figure" zero.lnum
EndChar

StartChar: one
Encoding: 49 49 20
Width: 581
GlyphClass: 2
Flags: MW
LayerCount: 5
Back
SplineSet
328 934 m 1,0,-1
 87 810 l 1,1,-1
 34 925 l 1,2,-1
 275 1049 l 1,3,-1
 328 934 l 1,0,-1
436 1049 m 1,4,-1
 436 0 l 1,5,-1
 275 0 l 1,6,-1
 275 1049 l 1,7,-1
 436 1049 l 1,4,-1
EndSplineSet
Fore
SplineSet
436 1049 m 1,0,-1
 436 0 l 1,1,-1
 275 0 l 1,2,-1
 275 903 l 1,3,-1
 68 848 l 1,4,-1
 34 925 l 1,5,-1
 275 1049 l 1,6,-1
 436 1049 l 1,0,-1
EndSplineSet
Layer: 2
SplineSet
328 916.9 m 5
 67.9004 847.9 l 13
 34 925 l 21
 275 1049 l 5
 328 916.9 l 5
436 1049 m 5
 436 0 l 13
 275 0 l 29
 275 1049 l 5
 436 1049 l 5
EndSplineSet
Layer: 4
SplineSet
436 1049 m 1
 436 0 l 1
 275 0 l 1
 275 903 l 1
 68 848 l 1
 34 925 l 1
 275 1049 l 1
 436 1049 l 1
EndSplineSet
Validated: 1
Substitution2: "'c2sc' Capitals to Small Capitals lookup 5-1" one.c2sc
Substitution2: "'tnum' Tabular Numbers" one.tnum
Substitution2: "'lnum' Lining Figure" one.lnum
EndChar

StartChar: two
Encoding: 50 50 21
Width: 919
GlyphClass: 2
Flags: MW
LayerCount: 5
Back
SplineSet
400 938 m 0,0,1
 280 938 280 938 150 854 c 1,2,-1
 90 959 l 1,3,4
 139 999 139 999 221.5 1033 c 128,-1,5
 304 1067 304 1067 400 1067 c 0,6,7
 563 1067 563 1067 660.5 995 c 128,-1,8
 758 923 758 923 758 780 c 0,9,10
 758 733 758 733 741 683.5 c 128,-1,11
 724 634 724 634 701 593.5 c 128,-1,12
 678 553 678 553 636 501 c 128,-1,13
 594 449 594 449 562.5 415.5 c 128,-1,14
 531 382 531 382 478 328 c 2,15,-1
 282 128 l 1,16,-1
 802 128 l 1,17,-1
 802 0 l 1,18,-1
 90 0 l 1,19,-1
 90 128 l 1,20,-1
 286 328 l 2,21,22
 341 385 341 385 388 432.5 c 128,-1,23
 435 480 435 480 473.5 525 c 128,-1,24
 512 570 512 570 539 611 c 128,-1,25
 566 652 566 652 581 696 c 128,-1,26
 596 740 596 740 596 784 c 0,27,28
 596 847 596 847 546.5 892.5 c 128,-1,29
 497 938 497 938 400 938 c 0,0,1
EndSplineSet
Fore
SplineSet
400 938 m 0,0,1
 280 938 280 938 150 854 c 1,2,-1
 90 959 l 1,3,4
 139 999 139 999 221.5 1033 c 128,-1,5
 304 1067 304 1067 400 1067 c 0,6,7
 563 1067 563 1067 660.5 995 c 128,-1,8
 758 923 758 923 758 780 c 0,9,10
 758 733 758 733 741 683.5 c 128,-1,11
 724 634 724 634 701 593.5 c 128,-1,12
 678 553 678 553 636 501.5 c 128,-1,13
 594 450 594 450 562 415.5 c 0,14,15
 531.061 382.143 531.061 382.143 478 328 c 2,16,-1
 282 128 l 1,17,-1
 802 128 l 1,18,-1
 802 0 l 1,19,-1
 90 0 l 1,20,-1
 90 128 l 1,21,-1
 286 328 l 2,22,23
 438.878 483.998 438.878 483.998 476.797 528.527 c 0,24,25
 583.266 653.558 583.266 653.558 594.405 754.808 c 0,26,27
 596 769.309 596 769.309 596 784 c 0,28,29
 596 847 596 847 546.5 892.5 c 128,-1,30
 497 938 497 938 400 938 c 0,0,1
EndSplineSet
Layer: 2
SplineSet
90.5 128 m 25
 802 128 l 25
 802 0 l 17
 90.5 0 l 9
 90.5 128 l 25
157 -0 m 1
 90.5 128 l 1
 286 328 l 2
 470.839 517.094 596 648 596 784 c 0
 596 859 539 938 400 938 c 0
 298 938 204 889 150 854 c 1
 90 959 l 1
 140 1000 256 1067 400 1067 c 0
 608 1067 758 978 758 780 c 0
 758 618 619 471 478 328 c 2
 157 -0 l 1
EndSplineSet
Layer: 3
SplineSet
22.8643 -31.9834 m 1
 218.688 167.834 l 1
 414.51 367.652 l 1
 498.52 454.642 l 2
 532.553 489.882 564.883 526.896 592.625 567.277 c 0
 615.095 599.983 635.523 634.25 651.152 670.724 c 0
 674.27 724.675 677.435 763.999 677.504 787.337 c 0
 677.504 818.036 671.219 848.821 658.221 876.63 c 0
 645.034 904.842 624.991 929.765 600.5 949 c 0
 550.386 988.359 484.388 1002.5 420.662 1002.5 c 0
 346.83 1002.5 272.788 986.165 207.34 952.125 c 0
 186.287 941.175 166.21 928.349 147.45 913.818 c 0
  Spiro
    22.8643 -31.9834 {
    218.688 167.834 v
    414.51 367.652 v
    498.52 454.642 ]
    531.846 490.496 o
    563.491 527.998 o
    592.625 567.277 o
    614.291 600.493 o
    634.044 634.997 o
    651.152 670.724 o
    668.232 719.705 o
    675.783 758.755 o
    677.504 787.337 o
    675.397 817.921 o
    668.989 847.972 o
    658.221 876.63 o
    642.855 903.631 o
    623.398 927.981 o
    600.5 949 o
    545.822 980.339 o
    484.41 997.387 o
    420.662 1002.5 o
    347.159 997.015 o
    275.256 980.292 o
    207.34 952.125 o
    186.645 940.568 o
    166.617 927.761 o
    147.45 913.818 o
    0 0 z
  EndSpiro
90 64.5 m 2
 802 64.5 l 2
  Spiro
    90 64.5 {
    802 64.5 [
    0 0 z
  EndSpiro
EndSplineSet
Layer: 4
SplineSet
400 938 m 0
 298 938 204 889 150 854 c 1
 90 959 l 1
 140 1000 256 1067 400 1067 c 0
 608 1067 758 978 758 780 c 0
 758 618 619 471 478 328 c 10
 282 128 l 9
 802 128 l 29
 802 0 l 21
 90 0 l 9
 90 128 l 25
 286 328 l 18
 468.143 513.86 596 632 596 784 c 0
 596 859 539 938 400 938 c 0
EndSplineSet
Validated: 1
Substitution2: "'c2sc' Capitals to Small Capitals lookup 5-1" two.c2sc
Substitution2: "'tnum' Tabular Numbers" two.tnum
Substitution2: "'lnum' Lining Figure" two.lnum
EndChar

StartChar: three
Encoding: 51 51 22
Width: 917
GlyphClass: 2
Flags: MW
LayerCount: 5
Fore
SplineSet
350 378 m 2,0,-1
 232 378 l 1,1,-1
 232 508 l 1,2,-1
 315 508 l 2,3,4
 393 508 393 508 461 531.5 c 128,-1,5
 529 555 529 555 575.5 609 c 128,-1,6
 622 663 622 663 622 738 c 0,7,8
 622 835 622 835 554 887 c 128,-1,9
 486 939 486 939 379 939 c 0,10,11
 265 939 265 939 147 892 c 1,12,-1
 99 1015 l 1,13,14
 239 1068 239 1068 379 1068 c 0,15,16
 552 1068 552 1068 669 980.5 c 128,-1,17
 786 893 786 893 786 738 c 0,18,19
 786 648.173 786 648.173 738.893 576.62 c 128,-1,20
 691.785 505.068 691.785 505.068 615.015 457.706 c 1,21,22
 719.807 410.368 719.807 410.368 791.904 304.492 c 128,-1,23
 864 198.616 864 198.616 864 78 c 0,24,25
 864 -56 864 -56 792.5 -155 c 128,-1,26
 721 -254 721 -254 605.5 -302 c 128,-1,27
 490 -350 490 -350 348 -350 c 0,28,29
 170.822 -350 170.822 -350 33.1407 -261.128 c 1,30,-1
 105 -152 l 1,31,32
 213 -221 213 -221 348 -221 c 0,33,34
 502 -221 502 -221 601 -143 c 128,-1,35
 700 -65 700 -65 700 78 c 0,36,37
 700 220 700 220 604 299 c 128,-1,38
 508 378 508 378 350 378 c 2,0,-1
EndSplineSet
Layer: 2
SplineSet
232 378 m 25
 232 508 l 25
 350 508 l 18
 556 508 698 440 785 320 c 0
 845 238 864 150 864 78 c 0
 864 -100 757 -231 625 -293 c 0
 538 -335 441 -350 348 -350 c 0
 219.652 -350 119.475 -316.856 33.1407 -261.128 c 1
 105 -152 l 1
 172 -195 248 -221 348 -221 c 0
 545 -221 700 -119 700 78 c 0
 700 132 685 199 643 256 c 0
 582 341 493.001 378 350 378 c 10
 232 378 l 25
232 378 m 25
 232 508 l 25
 315 508 l 18
 464 508 622 580 622 738 c 0
 622 873 515 939 379 939 c 0
 304 939 220 921 147 892 c 1
 99 1015 l 1
 186 1048 280 1068 379 1068 c 0
 598 1068 786 954 786 738 c 0
 786 572 655 460 523 414 c 0
 447 388 374 378 289 378 c 2
 289 378 254 378 232 378 c 25
EndSplineSet
Layer: 3
SplineSet
116.932 950.629 m 4
 199.338 983.553 288.562 1003.47 378.82 1003.5 c 4
 418.613 1003.5 458.558 999.276 496.687 989.008 c 4
 534.931 978.707 571.25 962.121 602.025 939.199 c 4
 634.383 915.099 660.327 884.114 677.524 849.59 c 4
 694.926 814.653 703.424 776.936 703.504 738.304 c 4
 703.504 678.794 682.033 619.229 641.952 571.956 c 4
 603.607 526.732 549.203 493.769 490.222 473.482 c 4
 435.768 454.752 377.543 445.831 319.32 443.5 c 4
 299.376 442.702 279.392 442.706 259.447 443.5 c 4
  Spiro
    116.932 950.629 {
    378.453 1003.5 o
    602.026 939.199 o
    703.502 739.333 o
    641.952 571.957 o
    490.222 473.482 o
    319.32 443.5 o
    259.448 443.5 o
    0 0 z
  EndSpiro
259.447 444.5 m 5
 350.365 444.5 l 6
 386.03 444.5 421.845 443.944 457.036 438.713 c 4
 492.227 433.482 526.624 423.858 558.811 410 c 4
 621.508 383.005 675.708 340.263 714.035 288 c 4
 765.273 218.131 782.238 140.621 782.238 77.5986 c 4
 782.238 14.501 765.783 -48.8594 732.083 -104.143 c 4
 697.778 -160.42 644.971 -207.327 582.096 -237.471 c 4
 510.69 -271.705 428.695 -285.5 347.824 -285.5 c 4
 316.559 -285.491 285.504 -283.276 254.795 -278.309 c 4
 198.46 -269.197 144.247 -250.542 94.3066 -225.325 c 4
 80.8662 -218.538 67.7178 -211.281 54.8965 -203.581 c 4
  Spiro
    259.448 444.5 {
    350.365 444.5 ]
    558.81 410 o
    714.035 288 o
    782.223 81 o
    582.096 -237.471 o
    347.408 -285.5 o
    254.795 -278.309 o
    94.307 -225.325 o
    54.8961 -203.581 o
    0 0 z
  EndSpiro
EndSplineSet
Layer: 4
SplineSet
350 378 m 6
 232 378 l 5
 232 508 l 5
 315 508 l 6
 464 508 622 580 622 738 c 4
 622 873 515 939 379 939 c 4
 304 939 220 921 147 892 c 5
 99 1015 l 5
 186 1048 280 1068 379 1068 c 4
 598 1068 786 954 786 738 c 4
 786 611.37 709.769 516.163 615.015 457.706 c 5
 750.128 396.671 864 243.509 864 78 c 4
 864 -200.245 626.655 -350 348 -350 c 4
 219.652 -350 119.475 -316.856 33.1407 -261.128 c 5
 105 -152 l 5
 172 -195 248 -221 348 -221 c 4
 545 -221 700 -119 700 78 c 4
 700 270.719 556.183 378 350 378 c 6
EndSplineSet
Validated: 1
Substitution2: "'c2sc' Capitals to Small Capitals lookup 5-1" three.c2sc
Substitution2: "'tnum' Tabular Numbers" three.tnum
Substitution2: "'lnum' Lining Figure" three.lnum
EndChar

StartChar: four
Encoding: 52 52 23
Width: 995
GlyphClass: 2
InSpiro: 1
Flags: MW
LayerCount: 5
Fore
SplineSet
591 259 m 1,0,-1
 591 822 l 1,1,-1
 232 259 l 1,2,-1
 591 259 l 1,0,-1
  Spiro
    591 259 v
    591 822 v
    232 259 v
    0 0 z
  EndSpiro
62 236 m 1,3,-1
 591 1067 l 1,4,-1
 752 1067 l 1,5,-1
 752 259 l 1,6,-1
 969 259 l 1,7,-1
 969 131 l 1,8,-1
 752 131 l 1,9,-1
 752 -256 l 1,10,-1
 591 -256 l 1,11,-1
 591 131 l 1,12,-1
 62 131 l 1,13,-1
 62 236 l 1,3,-1
  Spiro
    62 236 v
    591 1067 v
    752 1067 v
    752 259 v
    969 259 v
    969 131 v
    752 131 v
    752 -256 v
    591 -256 v
    591 131 v
    62 131 v
    0 0 z
  EndSpiro
EndSplineSet
Layer: 2
SplineSet
62 236 m 1
 591 1067 l 1
 752 1067 l 1
 217 236 l 1
 62 236 l 1
  Spiro
    62 236 v
    591 1067 v
    752 1067 v
    217 236 v
    0 0 z
  EndSpiro
92.1084 131 m 25
 62 236 l 17
 96 259 l 1
 969 259 l 1
 969 131 l 1
 92.1084 131 l 25
  Spiro
    92.1084 131 v
    62 236 v
    96 259 v
    969 259 v
    969 131 v
    0 0 z
  EndSpiro
591 1067 m 1
 752 1067 l 1
 752 -306 l 1
 591 -306 l 1
 591 1067 l 1
  Spiro
    591 1067 v
    752 1067 v
    752 -306 v
    591 -306 v
    0 0 z
  EndSpiro
EndSplineSet
Substitution2: "'c2sc' Capitals to Small Capitals lookup 5-1" four.c2sc
Substitution2: "'tnum' Tabular Numbers" four.tnum
Substitution2: "'lnum' Lining Figure" four.lnum
EndChar

StartChar: five
Encoding: 53 53 24
Width: 964
GlyphClass: 2
Flags: MW
LayerCount: 5
Fore
SplineSet
59.5186 -303.563 m 1,0,-1
 128.218 -186.427 l 1,1,2
 222.505 -220.643 222.505 -220.643 333.438 -221.014 c 0,3,4
 581.649 -221.844 581.649 -221.844 671.014 -66.5977 c 0,5,6
 712.842 6.0684 712.842 6.0684 712.993 108.186 c 256,7,8
 713.143 210.304 713.143 210.304 667.959 276.163 c 128,-1,8
 622.775 342.023 622.775 342.023 562.481 372.107 c 128,-1,9
 502.187 402.192 502.187 402.192 400.078 419.587 c 128,-1,10
 297.968 436.982 297.968 436.982 85.1504 442.625 c 1,11,-1
 120 1049 l 1,12,-1
 813 1049 l 1,13,-1
 813 921 l 1,14,-1
 282 921 l 1,15,-1
 264.198 563.98 l 1,16,17
 519.621 546.256 519.621 546.256 633.196 489.588 c 0,18,19
 877.376 367.754 877.376 367.754 876.983 101.927 c 0,20,21
 876.677 -105.083 876.677 -105.083 728.792 -227.597 c 0,22,23
 580.004 -350.843 580.004 -350.843 329.165 -349.999 c 0,24,25
 186.175 -349.521 186.175 -349.521 59.5186 -303.563 c 1,0,-1
EndSplineSet
Layer: 2
SplineSet
85.1509 442.625 m 1
 120 1049 l 1
 813 1049 l 1
 813 921 l 1
 282 921 l 1
 264 560 l 1
 85.1509 442.625 l 1
59.5186 -303.563 m 1
 128.218 -186.427 l 1
 171.184 -202.019 215.876 -212.233 261.077 -217.199 c 0
 283.725 -219.688 306.688 -220.923 329.864 -221 c 0
 400.797 -221.238 468.129 -211.799 527.719 -187.756 c 0
 585.273 -164.535 638.652 -122.816 671.014 -66.5977 c 0
 698.865 -18.2129 712.895 41.6533 712.983 102.073 c 0
 713.083 169.431 695.39 236.182 661.026 286.27 c 0
 634.789 324.512 597.87 354.449 557.483 374.601 c 0
 516.392 395.104 469.144 407.821 417.247 416.662 c 0
 304.275 435.907 209.091 438.945 85.1504 442.625 c 1
 153 569.709 l 0
 250.376 566.127 350.58 560.01 451.958 542.74 c 0
 515.042 531.993 582.056 515.104 645.331 483.533 c 0
 709.312 451.609 765.604 405.47 805.353 347.532 c 0
 856.611 272.818 877.107 185.918 876.983 101.927 c 0
 876.872 26.6084 860.279 -50.5498 820.412 -119.806 c 0
 772.78 -202.554 693.711 -265.767 602.564 -302.539 c 0
 513.459 -338.489 418.573 -350.3 329.165 -349.999 c 0
 299.047 -349.898 268.718 -348.291 238.388 -344.959 c 0
 177.316 -338.249 117.054 -324.44 59.5186 -303.563 c 1
EndSplineSet
Layer: 3
SplineSet
93.8682 -244.995 m 0
 144.119 -263.23 196.596 -275.241 249.733 -281.079 c 0
 276.22 -283.989 302.867 -285.411 329.514 -285.5 c 0
 409.686 -285.769 490.793 -275.143 565.142 -245.148 c 0
 639.491 -215.152 705.718 -162.685 745.713 -93.2019 c 0
 779.571 -34.3814 794.885 34.131 794.983 102 c 0
 795.092 177.676 776 254.498 733.189 316.901 c 0
 700.198 364.991 653.591 403.03 601.407 429.067 c 0
 549.224 455.104 492.093 469.908 434.602 479.701 c 0
 312.384 500.52 187.925 504.321 64 508 c 0
  Spiro
    93.8682 -244.995 {
    249.733 -281.079 o
    329.514 -285.5 o
    745.713 -93.2019 o
    794.983 102 o
    733.189 316.901 o
    434.602 479.701 o
    64 508 v
    0 0 z
  EndSpiro
777.5 984.5 m 2
 196.878 984.5 l 1
 165.415 437.033 l 2
  Spiro
    777.5 984.5 {
    196.878 984.5 v
    165.415 437.033 [
    0 0 z
  EndSpiro
EndSplineSet
Layer: 4
SplineSet
85.1509 442.625 m 5
 120 1049 l 5
 813 1049 l 5
 813 921 l 5
 282 921 l 5
 264 560 l 5
 85.1509 442.625 l 5
59.5186 -303.563 m 5
 128.218 -186.427 l 5
 171.184 -202.019 215.876 -212.233 261.077 -217.199 c 4
 283.725 -219.688 306.688 -220.923 329.864 -221 c 4
 400.797 -221.238 468.129 -211.799 527.719 -187.756 c 4
 585.273 -164.535 638.652 -122.816 671.014 -66.5977 c 4
 698.865 -18.2129 712.895 41.6533 712.983 102.073 c 4
 713.083 169.431 695.39 236.182 661.026 286.27 c 4
 634.789 324.512 597.87 354.449 557.483 374.601 c 4
 516.392 395.104 469.144 407.821 417.247 416.662 c 4
 304.275 435.907 203 439.5 85.1504 442.625 c 5
 108 552 l 5
 172.5 568.957 l 5
 263.733 565.263 357.335 558.86 451.958 542.74 c 4
 515.042 531.993 582.056 515.104 645.331 483.533 c 4
 709.312 451.609 765.604 405.47 805.353 347.532 c 4
 856.611 272.818 877.107 185.918 876.983 101.927 c 4
 876.872 26.6084 860.279 -50.5498 820.412 -119.806 c 4
 772.78 -202.554 693.711 -265.767 602.564 -302.539 c 4
 513.459 -338.489 418.573 -350.3 329.165 -349.999 c 4
 299.047 -349.898 268.718 -348.291 238.388 -344.959 c 4
 177.316 -338.249 117.054 -324.44 59.5186 -303.563 c 5
EndSplineSet
Validated: 37
Substitution2: "'c2sc' Capitals to Small Capitals lookup 5-1" five.c2sc
Substitution2: "'tnum' Tabular Numbers" five.tnum
Substitution2: "'lnum' Lining Figure" five.lnum
EndChar

StartChar: six
Encoding: 54 54 25
Width: 1013
GlyphClass: 2
InSpiro: 1
Flags: MW
LayerCount: 5
Fore
SplineSet
522 111 m 0,0,1
 624 111 624 111 700.5 184 c 128,-1,2
 777 257 777 257 781 387 c 0,3,4
 786 528 786 528 709 604.5 c 128,-1,5
 632 681 632 681 508 681 c 0,6,7
 422 681 422 681 358.5 654.5 c 128,-1,8
 295 628 295 628 236 572 c 1,9,10
 231 540 231 540 231 510 c 0,11,12
 231 415 231 415 252 341 c 128,-1,13
 273 267 273 267 304.5 225 c 128,-1,14
 336 183 336 183 377.5 156 c 128,-1,15
 419 129 419 129 453.5 120 c 128,-1,16
 488 111 488 111 522 111 c 0,0,1
  Spiro
    522 111 o
    617.625 129.25 o
    700.5 184 o
    758.875 271.25 o
    781 387 o
    765.5 511.875 o
    709 604.5 o
    620.25 661.875 o
    508 681 o
    427.625 674.375 o
    358.5 654.5 o
    296.125 620.625 o
    236 572 v
    232.25 540.5 o
    231 510 o
    236.25 420.25 o
    252 341 o
    275.625 275 o
    304.5 225 o
    338.5 186.75 o
    377.5 156 o
    417.25 133.5 o
    453.5 120 o
    487.875 113.25 o
    0 0 z
  EndSpiro
525 -18 m 0,17,18
 464 -18 464 -18 405 -4 c 128,-1,19
 346 10 346 10 283.5 47 c 128,-1,20
 221 84 221 84 175 141.5 c 128,-1,21
 129 199 129 199 99.5 293.5 c 128,-1,22
 70 388 70 388 70 509 c 0,23,24
 70 584 70 584 80 655 c 128,-1,25
 90 726 90 726 115 802 c 128,-1,26
 140 878 140 878 178.5 944 c 128,-1,27
 217 1010 217 1010 278 1071.5 c 128,-1,28
 339 1133 339 1133 417 1179.5 c 128,-1,29
 495 1226 495 1226 603 1259.5 c 128,-1,30
 711 1293 711 1293 840 1305 c 1,31,-1
 855 1176 l 1,32,33
 611 1154 611 1154 455 1038 c 128,-1,34
 299 922 299 922 253 713 c 1,35,36
 295 758 295 758 374 784 c 128,-1,37
 453 810 453 810 536 810 c 0,38,39
 711 810 711 810 826.5 700.5 c 128,-1,40
 942 591 942 591 942 416 c 0,41,42
 942 232 942 232 831 107 c 128,-1,43
 720 -18 720 -18 525 -18 c 0,17,18
  Spiro
    525 -18 o
    464.5 -14.5 o
    405 -4 o
    345.125 15.75 o
    283.5 47 o
    225.125 89.125 o
    175 141.5 o
    133.125 208.25 o
    99.5 293.5 o
    77.375 394.625 o
    70 509 o
    72.5 583 o
    80 655 o
    93.75 727.25 o
    115 802 o
    143.375 875.5 o
    178.5 944 o
    222.625 1008.88 o
    278 1071.5 o
    343.25 1129.25 o
    417 1179.5 o
    502.5 1222.75 o
    603 1259.5 o
    716.25 1287.62 o
    840 1305 v
    855 1176 v
    633 1130.5 o
    455 1038 o
    326.5 898.75 o
    253 713 v
    304.25 753.25 o
    374 784 o
    454 803.5 o
    536 810 o
    696.125 782.625 o
    826.5 700.5 o
    913.125 574.625 o
    942 416 o
    914.25 246.75 o
    831 107 o
    699 13.25 o
    0 0 z
  EndSpiro
EndSplineSet
Layer: 2
SplineSet
522 111 m 0
 649 111 775 204 781 387 c 0
 788 582 666 681 508 681 c 0
 389 681 312 644 236 572 c 1
 231 540 231 531 231 510 c 0
 231 176 424 111 522 111 c 0
  Spiro
    522 111 o
    644.146 141.827 o
    739.48 234.234 o
    781 387 o
    748.513 549.758 o
    650.432 648.177 o
    508 681 o
    401.577 668.765 o
    313.771 632.211 o
    236 572 v
    232.484 546.391 o
    231.185 528.279 o
    231 510 o
    284.57 258.289 o
    403.129 140.156 o
    0 0 z
  EndSpiro
525 -18 m 0
 336 -18 70 89 70 509 c 0
 70 842 222 1246 840 1305 c 9
 855 1176 l 17
 537 1147 316 998 253 713 c 1
 311 776 431 810 536 810 c 0
 767 810 942 652 942 416 c 0
 942 182 796 -18 525 -18 c 0
  Spiro
    525 -18 o
    323.239 25.2021 o
    145.824 185.938 o
    70 509 o
    132.16 849.925 o
    366.046 1146.65 o
    840 1305 v
    855 1176 v
    571.839 1106.52 o
    366.246 953.063 o
    253 713 v
    328.724 766.105 o
    428.958 798.874 o
    536 810 o
    743.745 760.393 o
    888.177 622.862 o
    942 416 o
    894.206 199.674 o
    753.37 42.4037 o
    0 0 z
  EndSpiro
EndSplineSet
Layer: 3
SplineSet
768 1231 m 0
 675.025 1220.04 583.908 1192.48 501 1149 c 0
 399.015 1095.51 309.93 1015.94 251 917 c 0
 177.794 794.089 149.985 648.061 150 505 c 0
 150.007 433.765 157.749 361.906 180.705 294.472 c 0
 203.661 227.037 243.352 164.472 299 120 c 0
 359.862 71.362 438.092 45.7798 516 46 c 0
 579.432 46.1793 642.966 62.9584 697.383 95.5533 c 0
 751.801 128.148 796.31 176.931 824 234 c 0
 849.988 287.561 861.739 347.468 862 407 c 0
 862.202 453.193 855.548 499.594 840.337 543.211 c 0
 825.125 586.829 800.845 627.518 768 660 c 0
 738.592 689.083 702.592 711.303 663.734 725.468 c 0
 624.875 739.633 583.36 745.94 542 746 c 0
 471.031 746.103 400.537 728.523 336 699 c 0
 294.254 679.903 254.883 655.633 219 627 c 0
  Spiro
    768 1231 {
    501 1149 o
    251 917 o
    150 505 o
    299 120 o
    516 46 o
    824 234 o
    862 407 o
    768 660 o
    542 746 o
    336 699 o
    219 627 o
    0 0 z
  EndSpiro
EndSplineSet
Substitution2: "'c2sc' Capitals to Small Capitals lookup 5-1" six.c2sc
Substitution2: "'tnum' Tabular Numbers" six.tnum
Substitution2: "'lnum' Lining Figure" six.lnum
EndChar

StartChar: seven
Encoding: 55 55 26
Width: 787
GlyphClass: 2
Flags: MW
LayerCount: 5
Back
SplineSet
379 636 m 6,0,-1
 544 921 l 5,1,-1
 35 921 l 5,2,-1
 35 1049 l 5,3,-1
 771 1049 l 5,4,-1
 607 764 l 6,5,6
 475 535 475 535 392.5 264 c 132,-1,7
 310 -7 310 -7 285 -257 c 5,8,-1
 124 -257 l 5,9,10
 145 -39 145 -39 223 230 c 132,-1,11
 301 499 301 499 379 636 c 6,0,-1
EndSplineSet
Fore
SplineSet
379 636 m 1,0,-1
 544 921 l 1,1,-1
 35 921 l 1,2,-1
 35 1049 l 1,3,-1
 713 1050 l 1,4,-1
 733 983 l 1,5,-1
 607 764 l 2,6,7
 475 535 475 535 392.5 264.5 c 128,-1,8
 310 -6 310 -6 285 -256 c 1,9,-1
 124 -256 l 1,10,11
 145 -38 145 -38 223 230.5 c 128,-1,12
 301 499 301 499 379 636 c 1,0,-1
EndSplineSet
Layer: 2
SplineSet
379 636 m 6
 544 921 l 13
 35 921 l 29
 35 1049 l 21
 713 1050 l 5
 733 983 l 5
 607 764 l 6
 423 445 317 59 285 -256 c 13
 124 -256 l 21
 152 41 277 458 379 636 c 6
EndSplineSet
Layer: 3
SplineSet
771 984.5 m 2
 35 984.5 l 2
  Spiro
    771 984.5 {
    35 984.5 [
    0 0 z
  EndSpiro
661 993 m 1
 539 789 l 2
 488.062 703.826 440.367 616.528 402 525 c 0
 334.508 363.992 287.61 194.912 252 24 c 0
 232.283 -70.6336 216.397 -166.063 204.262 -261.964 c 0
  Spiro
    661 993 {
    539 789 ]
    402 525 o
    252 24 o
    204.262 -261.964 o
    0 0 z
  EndSpiro
EndSplineSet
Substitution2: "'c2sc' Capitals to Small Capitals lookup 5-1" seven.c2sc
Substitution2: "'tnum' Tabular Numbers" seven.tnum
Substitution2: "'lnum' Lining Figure" seven.lnum
EndChar

StartChar: eight
Encoding: 56 56 27
Width: 952
GlyphClass: 2
Flags: MW
LayerCount: 5
Fore
SplineSet
673 1012 m 0,0,1
 673 1057 673 1057 651.5 1091 c 128,-1,2
 630 1125 630 1125 597 1142.5 c 128,-1,3
 564 1160 564 1160 532.5 1168 c 128,-1,4
 501 1176 501 1176 472 1176 c 256,5,6
 443 1176 443 1176 411 1168 c 128,-1,7
 379 1160 379 1160 346 1143 c 128,-1,8
 313 1126 313 1126 291.5 1092 c 128,-1,9
 270 1058 270 1058 270 1012 c 0,10,11
 270 967 270 967 286 929 c 128,-1,12
 302 891 302 891 334 860 c 128,-1,13
 366 829 366 829 399.5 806.5 c 128,-1,14
 433 784 433 784 483 757 c 1,15,16
 526 787 526 787 553.5 810 c 128,-1,17
 581 833 581 833 611.5 865.5 c 128,-1,18
 642 898 642 898 657.5 935 c 128,-1,19
 673 972 673 972 673 1012 c 0,0,1
  Spiro
    673 1012 o
    667.625 1054.25 o
    651.5 1091 o
    627.125 1120.88 o
    597 1142.5 o
    564.375 1157.62 o
    532.5 1168 o
    501.625 1174 o
    472 1176 o
    442.25 1174 o
    411 1168 o
    378.75 1157.75 o
    346 1143 o
    315.875 1121.75 o
    291.5 1092 o
    275.375 1055 o
    270 1012 o
    274 968.75 o
    286 929 o
    306 892.75 o
    334 860 o
    366.375 831.125 o
    399.5 806.5 o
    437.125 782.875 o
    483 757 v
    522.125 785.25 o
    553.5 810 o
    581.75 835.375 o
    611.5 865.5 o
    638.25 899.125 o
    657.5 935 o
    669.125 972.75 o
    0 0 z
  EndSpiro
436 605 m 1,20,21
 338 549 338 549 284.5 479.5 c 128,-1,22
 231 410 231 410 231 312 c 0,23,24
 231 233 231 233 303 172 c 128,-1,25
 375 111 375 111 466 111 c 0,26,27
 574 111 574 111 649 165 c 128,-1,28
 724 219 724 219 724 312 c 0,29,30
 724 344 724 344 715.5 372 c 128,-1,31
 707 400 707 400 692.5 423 c 128,-1,32
 678 446 678 446 657 467 c 128,-1,33
 636 488 636 488 611 505 c 128,-1,34
 586 522 586 522 557 539.5 c 128,-1,35
 528 557 528 557 497.5 572.5 c 128,-1,36
 467 588 467 588 436 605 c 1,20,21
  Spiro
    436 605 v
    349.125 545.625 o
    284.5 479.5 o
    244.375 402.875 o
    231 312 o
    249 237.5 o
    303 172 o
    379.75 126.25 o
    466 111 o
    565.75 124.5 o
    649 165 o
    705.25 228.75 o
    724 312 o
    721.875 343 o
    715.5 372 o
    705.5 398.75 o
    692.5 423 o
    676.375 445.5 o
    657 467 o
    635 487 o
    611 505 o
    585 522.125 o
    557 539.5 o
    527.625 556.5 o
    497.5 572.5 ]
    0 0 z
  EndSpiro
316 672 m 1,37,38
 270 702 270 702 235 733.5 c 128,-1,39
 200 765 200 765 170 806.5 c 128,-1,40
 140 848 140 848 124.5 902 c 128,-1,41
 109 956 109 956 109 1020 c 0,42,43
 109 1106 109 1106 162.5 1172.5 c 128,-1,44
 216 1239 216 1239 297.5 1272 c 128,-1,45
 379 1305 379 1305 472 1305 c 256,46,47
 565 1305 565 1305 646 1272 c 128,-1,48
 727 1239 727 1239 780.5 1172.5 c 128,-1,49
 834 1106 834 1106 834 1020 c 0,50,51
 834 964 834 964 815 914.5 c 128,-1,52
 796 865 796 865 762 825 c 128,-1,53
 728 785 728 785 689.5 754.5 c 128,-1,54
 651 724 651 724 603 694 c 1,55,56
 652 667 652 667 688 643.5 c 128,-1,57
 724 620 724 620 763.5 584 c 128,-1,58
 803 548 803 548 828 510 c 128,-1,59
 853 472 853 472 869 419 c 128,-1,60
 885 366 885 366 885 304 c 0,61,62
 885 240 885 240 861 184 c 128,-1,63
 837 128 837 128 789.5 82 c 128,-1,64
 742 36 742 36 660 9 c 128,-1,65
 578 -18 578 -18 472 -18 c 256,66,67
 366 -18 366 -18 286 8.5 c 128,-1,68
 206 35 206 35 160 81 c 128,-1,69
 114 127 114 127 92 183 c 128,-1,70
 70 239 70 239 70 304 c 0,71,72
 70 347 70 347 77.5 385 c 128,-1,73
 85 423 85 423 97 452.5 c 128,-1,74
 109 482 109 482 129 510 c 128,-1,75
 149 538 149 538 167.5 558 c 128,-1,76
 186 578 186 578 214.5 600.5 c 128,-1,77
 243 623 243 623 263.5 637.5 c 128,-1,78
 284 652 284 652 316 672 c 1,37,38
  Spiro
    316 672 v
    272.75 702.375 o
    235 733.5 o
    201.25 767.5 o
    170 806.5 o
    143.625 851.125 o
    124.5 902 o
    112.875 958.5 o
    109 1020 o
    122.375 1101.12 o
    162.5 1172.5 o
    223 1230.62 o
    297.5 1272 o
    381.875 1296.75 o
    472 1305 o
    562 1296.75 o
    646 1272 o
    720.125 1230.62 o
    780.5 1172.5 o
    820.625 1101.12 o
    834 1020 o
    829.25 965.625 o
    815 914.5 o
    792.25 867.375 o
    762 825 o
    726.875 787.375 o
    689.5 754.5 o
    648.625 724.125 o
    603 694 v
    648.75 667.875 o
    688 643.5 o
    724.875 616.875 o
    763.5 584 o
    799.375 547.5 o
    828 510 o
    850.75 468.25 o
    869 419 o
    881 363.75 o
    885 304 o
    879 242 o
    861 184 o
    831.125 130.5 o
    789.5 82 o
    733.375 40.75 o
    660 9 o
    572 -11.25 o
    472 -18 o
    372.5 -11.375 o
    286 8.5 o
    214.5 39.875 o
    160 81 o
    120 129.5 o
    92 183 o
    75.5 241.25 o
    70 304 o
    71.875 345.75 o
    77.5 385 o
    86.125 420.875 o
    97 452.5 o
    111 481.625 o
    129 510 o
    148.625 536 o
    167.5 558 o
    188.5 578.625 o
    214.5 600.5 o
    241 621 o
    263.5 637.5 o
    286.875 653.375 o
    0 0 z
  EndSpiro
EndSplineSet
Layer: 2
SplineSet
673 1012 m 0xd8
 673 1140 540 1176 472 1176 c 0
 404 1176 270 1142 270 1012 c 0xd8
 270 696 885 753 885 304 c 0
 885 140 766 -18 472 -18 c 1
 178 -18 70 138 70 304 c 0
 70 539 235 618 372 708 c 9
 454 615 l 17
 328 546 231 459 231 312 c 16
 231 206 345 111 466 111 c 16
 604 111 724 184 724 312 c 16xe4
 724 628 109 567 109 1020 c 0
 109 1200 291 1305 472 1305 c 0
 653 1305 834 1200 834 1020 c 8
 834 843 687 738 552 666 c 9
 435 723 l 17
 538 797 673 879 673 1012 c 0xd8
EndSplineSet
Layer: 3
SplineSet
471 681 m 0
 503.248 696.727 534.382 714.75 564 735 c 0
 629.69 779.913 690.198 835.933 726 907 c 0
 743.628 941.992 754.462 980.822 754 1020 c 0
 753.627 1051.64 745.779 1083.2 730.962 1111.16 c 0
 716.145 1139.11 694.512 1163.28 669 1182 c 0
 640.985 1202.55 608.548 1216.61 575.003 1225.66 c 0
 541.457 1234.71 506.733 1239.08 472 1240 c 0
 431.532 1241.07 390.662 1237.45 351.898 1225.79 c 0
 313.133 1214.12 276.646 1193.57 249 1164 c 0
 226.736 1140.19 210.499 1110.95 201.061 1079.74 c 0
 191.623 1048.54 188.715 1015.52 191 983 c 0
 193.782 943.422 204.177 904.344 221.821 868.807 c 0
 239.466 833.271 264.703 801.617 295 776 c 0
 329.704 746.657 370.463 725.546 411 705 c 2
 557 631 l 2
 616.761 600.71 677.537 569.271 724 521 c 0
 774.432 468.606 804.746 396.719 804 324 c 0
 803.322 257.854 777.331 192.176 732 144 c 0
 699.344 109.294 657.472 83.8304 612.526 67.9981 c 0
 567.579 52.1658 519.65 45.405 472 46 c 0
 426.036 46.5739 379.986 54.0143 336.851 69.8999 c 0
 293.715 85.7856 253.583 110.601 222 144 c 0
 176.523 192.092 150.116 257.811 150 324 c 0
 149.945 355.365 155.727 386.73 167 416 c 0
 183.519 458.892 211.497 496.531 243 530 c 0
 279.189 568.448 319.754 602.706 363 633 c 0
 388.019 650.526 414.072 666.578 441 681 c 0
  Spiro
    471 681 {
    564 735 o
    726 907 o
    754 1020 o
    669 1182 o
    472 1240 o
    249 1164 o
    191 983 o
    295 776 o
    411 705 [
    557 631 ]
    724 521 o
    804 324 o
    732 144 o
    472 46 o
    222 144 o
    150 324 o
    167 416 o
    243 530 o
    363 633 o
    441 681 v
    0 0 z
  EndSpiro
EndSplineSet
Substitution2: "'c2sc' Capitals to Small Capitals lookup 5-1" eight.c2sc
Substitution2: "'tnum' Tabular Numbers" eight.tnum
Substitution2: "'lnum' Lining Figure" eight.lnum
EndChar

StartChar: nine
Encoding: 57 57 28
Width: 1013
GlyphClass: 2
Flags: MW
LayerCount: 5
Fore
SplineSet
490 938 m 0,0,1
 388 938 388 938 311.5 865 c 128,-1,2
 235 792 235 792 231 662 c 0,3,4
 226 521 226 521 303 444.5 c 128,-1,5
 380 368 380 368 504 368 c 0,6,7
 590 368 590 368 653.5 394.5 c 128,-1,8
 717 421 717 421 776 477 c 1,9,10
 781 509 781 509 781 539 c 0,11,12
 781 634 781 634 760 708 c 128,-1,13
 739 782 739 782 707.5 824 c 128,-1,14
 676 866 676 866 634.5 893 c 128,-1,15
 593 920 593 920 558.5 929 c 128,-1,16
 524 938 524 938 490 938 c 0,0,1
487 1067 m 0,17,18
 548 1067 548 1067 607 1053 c 128,-1,19
 666 1039 666 1039 728.5 1002 c 128,-1,20
 791 965 791 965 837 907.5 c 128,-1,21
 883 850 883 850 912.5 755.5 c 128,-1,22
 942 661 942 661 942 540 c 0,23,24
 942 465 942 465 932 394 c 128,-1,25
 922 323 922 323 897 247 c 128,-1,26
 872 171 872 171 833.5 105 c 128,-1,27
 795 39 795 39 734 -22.5 c 128,-1,28
 673 -84 673 -84 595 -130.5 c 128,-1,29
 517 -177 517 -177 409 -210.5 c 128,-1,30
 301 -244 301 -244 172 -256 c 1,31,-1
 157 -127 l 1,32,33
 401 -105 401 -105 557 11 c 128,-1,34
 713 127 713 127 759 336 c 1,35,36
 717 291 717 291 638 265 c 128,-1,37
 559 239 559 239 476 239 c 0,38,39
 301 239 301 239 185.5 348.5 c 128,-1,40
 70 458 70 458 70 633 c 0,41,42
 70 817 70 817 181 942 c 128,-1,43
 292 1067 292 1067 487 1067 c 0,17,18
EndSplineSet
Layer: 2
SplineSet
490 938 m 0
 363 938 237 845 231 662 c 0
 224 467 346 368 504 368 c 0
 623 368 700 405 776 477 c 1
 781 509 781 518 781 539 c 0
 781 873 588 938 490 938 c 0
487 1067 m 0
 676 1067 942 960 942 540 c 0
 942 207 790 -197 172 -256 c 9
 157 -127 l 17
 475 -98 696 51 759 336 c 1
 701 273 581 239 476 239 c 0
 245 239 70 397 70 633 c 0
 70 867 216 1067 487 1067 c 0
EndSplineSet
Substitution2: "'c2sc' Capitals to Small Capitals lookup 5-1" nine.c2sc
Substitution2: "'tnum' Tabular Numbers" nine.tnum
Substitution2: "'lnum' Lining Figure" nine.lnum
EndChar

StartChar: less
Encoding: 60 60 31
Width: 967
GlyphClass: 2
Flags: MW
LayerCount: 5
Fore
SplineSet
0 525 m 5,0,-1
 800 1155 l 5,1,-1
 879 1071 l 5,2,-1
 187 525 l 5,3,-1
 879 -21 l 5,4,-1
 800 -105 l 5,5,-1
 0 525 l 5,0,-1
EndSplineSet
Layer: 2
SplineSet
0 525 m 1
 800 1155 l 1
 879 1071 l 1
 187 525 l 1
 879 -21 l 1
 800 -105 l 1
 0 525 l 1
EndSplineSet
EndChar

StartChar: equal
Encoding: 61 61 32
Width: 1052
GlyphClass: 2
Flags: MW
LayerCount: 5
Fore
SplineSet
991 630 m 1,0,-1
 61 630 l 1,1,-1
 61 738 l 1,2,-1
 991 738 l 1,3,-1
 991 630 l 1,0,-1
991 294 m 1,4,-1
 61 294 l 1,5,-1
 61 402 l 1,6,-1
 991 402 l 1,7,-1
 991 294 l 1,4,-1
EndSplineSet
Layer: 2
SplineSet
991 294 m 25
 61 294 l 25
 61 402 l 17
 991 402 l 9
 991 294 l 25
991 630 m 25
 61 630 l 25
 61 738 l 17
 991 738 l 9
 991 630 l 25
EndSplineSet
EndChar

StartChar: greater
Encoding: 62 62 33
Width: 967
GlyphClass: 2
Flags: MW
LayerCount: 5
Fore
SplineSet
967 525 m 1,0,-1
 167 -105 l 1,1,-1
 88 -21 l 1,2,-1
 780 525 l 1,3,-1
 88 1071 l 1,4,-1
 167 1155 l 1,5,-1
 967 525 l 1,0,-1
EndSplineSet
Layer: 2
SplineSet
967 525 m 5
 167 -105 l 5
 88 -21 l 5
 780 525 l 5
 88 1071 l 5
 167 1155 l 5
 967 525 l 5
EndSplineSet
EndChar

StartChar: question
Encoding: 63 63 34
Width: 864
GlyphClass: 2
Flags: MW
LayerCount: 5
Fore
SplineSet
302 103 m 256,0,1
 302 153 302 153 336.5 188.5 c 128,-1,2
 371 224 371 224 420 224 c 256,3,4
 469 224 469 224 503.5 188.5 c 128,-1,5
 538 153 538 153 538 103 c 256,6,7
 538 53 538 53 503.5 17.5 c 128,-1,8
 469 -18 469 -18 420 -18 c 256,9,10
 371 -18 371 -18 336.5 17.5 c 128,-1,11
 302 53 302 53 302 103 c 256,0,1
108 1380 m 1,12,13
 138 1399 138 1399 154.5 1407.5 c 128,-1,14
 171 1416 171 1416 211 1432.5 c 128,-1,15
 251 1449 251 1449 303 1456.5 c 128,-1,16
 355 1464 355 1464 420 1464 c 0,17,18
 556 1464 556 1464 660 1384.5 c 128,-1,19
 764 1305 764 1305 764 1180 c 0,20,21
 764 1113 764 1113 734.5 1040.5 c 128,-1,22
 705 968 705 968 662.5 906.5 c 128,-1,23
 620 845 620 845 577.5 787.5 c 128,-1,24
 535 730 535 730 505.5 673 c 128,-1,25
 476 616 476 616 476 572 c 0,26,27
 476 496 476 496 502 408 c 1,28,-1
 368 388 l 1,29,30
 360 403 360 403 350.5 424.5 c 128,-1,31
 341 446 341 446 333 467 c 128,-1,32
 325 488 325 488 320 517 c 128,-1,33
 315 546 315 546 315 576 c 0,34,35
 315 635 315 635 344.5 700 c 128,-1,36
 374 765 374 765 416.5 822.5 c 128,-1,37
 459 880 459 880 501.5 937 c 128,-1,38
 544 994 544 994 573.5 1058 c 128,-1,39
 603 1122 603 1122 603 1180 c 0,40,41
 603 1242 603 1242 544 1288.5 c 128,-1,42
 485 1335 485 1335 374 1335 c 256,43,44
 263 1335 263 1335 158 1272 c 1,45,-1
 108 1380 l 1,12,13
EndSplineSet
Layer: 2
SplineSet
108 1380 m 21
 158 1411 236 1464 420 1464 c 4
 592 1464 764 1354 764 1180 c 4
 764 938 476 734 476 572 c 4
 476 509 482 476 502 408 c 13
 368 388 l 21
 346 434 315 490 315 576 c 4
 315 792 603 969 603 1180 c 4
 603 1254 532 1335 374 1335 c 4
 286 1335 208 1302 158 1272 c 13
 108 1380 l 21
302 103 m 4
 302 170 355 224 420 224 c 4
 485 224 538 170 538 103 c 4
 538 36 485 -18 420 -18 c 4
 355 -18 302 36 302 103 c 4
EndSplineSet
EndChar

StartChar: at
Encoding: 64 64 35
Width: 1994
GlyphClass: 2
Flags: MW
LayerCount: 5
Fore
SplineSet
1930 608 m 0,0,1
 1930 511 1930 511 1906.5 418.5 c 128,-1,2
 1883 326 1883 326 1837 248 c 128,-1,3
 1791 170 1791 170 1728.5 111 c 128,-1,4
 1666 52 1666 52 1583.5 18.5 c 128,-1,5
 1501 -15 1501 -15 1409 -15 c 0,6,7
 1348 -15 1348 -15 1303 -5.5 c 128,-1,8
 1258 4 1258 4 1232.5 18 c 128,-1,9
 1207 32 1207 32 1190 54.5 c 128,-1,10
 1173 77 1173 77 1166.5 96.5 c 128,-1,11
 1160 116 1160 116 1156 144 c 1,12,13
 1041 -18 1041 -18 848 -18 c 0,14,15
 784 -18 784 -18 731 1 c 128,-1,16
 678 20 678 20 637.5 58 c 128,-1,17
 597 96 597 96 575 159 c 128,-1,18
 553 222 553 222 553 305 c 0,19,20
 553 426 553 426 588 533 c 128,-1,21
 623 640 623 640 681.5 716 c 128,-1,22
 740 792 740 792 814 847.5 c 128,-1,23
 888 903 888 903 967.5 930 c 128,-1,24
 1047 957 1047 957 1124 957 c 0,25,26
 1223 957 1223 957 1296 933.5 c 128,-1,27
 1369 910 1369 910 1442 859 c 1,28,-1
 1351 392 l 2,29,30
 1327 270 1327 270 1327 209 c 0,31,32
 1327 144 1327 144 1353 119.5 c 128,-1,33
 1379 95 1379 95 1440 95 c 0,34,35
 1526 95 1526 95 1607 169 c 128,-1,36
 1688 243 1688 243 1737.5 359.5 c 128,-1,37
 1787 476 1787 476 1787 596 c 0,38,39
 1787 740 1787 740 1736 868 c 128,-1,40
 1685 996 1685 996 1593 1092 c 128,-1,41
 1501 1188 1501 1188 1363.5 1244 c 128,-1,42
 1226 1300 1226 1300 1064 1300 c 0,43,44
 940 1300 940 1300 818 1259 c 128,-1,45
 696 1218 696 1218 591.5 1139 c 128,-1,46
 487 1060 487 1060 406 954 c 128,-1,47
 325 848 325 848 279 709.5 c 128,-1,48
 233 571 233 571 233 420 c 0,49,50
 233 250 233 250 293.5 100.5 c 128,-1,51
 354 -49 354 -49 459 -155 c 128,-1,52
 564 -261 564 -261 712.5 -322.5 c 128,-1,53
 861 -384 861 -384 1030 -384 c 0,54,55
 1122 -384 1122 -384 1208.5 -366 c 128,-1,56
 1295 -348 1295 -348 1354 -325 c 128,-1,57
 1413 -302 1413 -302 1479.5 -261 c 128,-1,58
 1546 -220 1546 -220 1579 -194.5 c 128,-1,59
 1612 -169 1612 -169 1665 -125 c 1,60,-1
 1755 -195 l 1,61,62
 1634 -324 1634 -324 1446.5 -408 c 128,-1,63
 1259 -492 1259 -492 1030 -492 c 0,64,65
 866 -492 866 -492 726.5 -455 c 128,-1,66
 587 -418 587 -418 486 -352 c 128,-1,67
 385 -286 385 -286 307.5 -198.5 c 128,-1,68
 230 -111 230 -111 183.5 -6 c 128,-1,69
 137 99 137 99 113.5 209.5 c 128,-1,70
 90 320 90 320 90 436 c 0,71,72
 90 594 90 594 139.5 742.5 c 128,-1,73
 189 891 189 891 279 1010.5 c 128,-1,74
 369 1130 369 1130 487.5 1220 c 128,-1,75
 606 1310 606 1310 751.5 1359 c 128,-1,76
 897 1408 897 1408 1050 1408 c 0,77,78
 1213 1408 1213 1408 1354.5 1365.5 c 128,-1,79
 1496 1323 1496 1323 1600 1248.5 c 128,-1,80
 1704 1174 1704 1174 1779.5 1073.5 c 128,-1,81
 1855 973 1855 973 1892.5 854.5 c 128,-1,82
 1930 736 1930 736 1930 608 c 0,0,1
1135 828 m 0,83,84
 1065 828 1065 828 1005.5 808.5 c 128,-1,85
 946 789 946 789 904 757 c 128,-1,86
 862 725 862 725 828 681 c 128,-1,87
 794 637 794 637 773.5 591 c 128,-1,88
 753 545 753 545 739 494.5 c 128,-1,89
 725 444 725 444 719.5 401.5 c 128,-1,90
 714 359 714 359 714 320 c 0,91,92
 714 211 714 211 761 160.5 c 128,-1,93
 808 110 808 110 883 110 c 0,94,95
 931 110 931 110 972.5 124 c 128,-1,96
 1014 138 1014 138 1050 166.5 c 128,-1,97
 1086 195 1086 195 1112 222 c 128,-1,98
 1138 249 1138 249 1171 291 c 1,99,-1
 1268 791 l 1,100,101
 1217 828 1217 828 1135 828 c 0,83,84
EndSplineSet
Layer: 2
SplineSet
885 110 m 4
 1016 111 1095 195 1171 291 c 13
 1268 791 l 21
 1231 818 1192 828 1135 828 c 4
 900 828 768 656 728 449 c 4
 678 193 770 109 885 110 c 4
848 -18 m 4
 646 -18 503 121 569 457 c 4
 632 784 908 957 1124 957 c 4
 1262 957 1350 923 1442 859 c 5
 1351 392 l 6
 1304 149 1324 95 1440 95 c 4
 1616 95 1787 352 1787 596 c 4
 1787 980 1508 1300 1064 1300 c 4
 648 1300 233 938 233 420 c 4
 233 -40 572 -384 1030 -384 c 4
 1352 -384 1536 -232 1665 -125 c 5
 1755 -195 l 5
 1608 -352 1356 -492 1030 -492 c 4
 356 -492 90 -18 90 436 c 4
 90 972 532 1408 1050 1408 c 4
 1605 1408 1930 1033 1930 608 c 4
 1930 283 1724 -11 1420 -15 c 4
 1200 -18 1168 64 1156 144 c 5
 1068 20 948 -18 848 -18 c 4
EndSplineSet
EndChar

StartChar: A
Encoding: 65 65 36
Width: 1328
GlyphClass: 2
Flags: MW
AnchorPoint: "ogonek" 1166 0 basechar 0 13
AnchorPoint: "above" 664 1409 basechar 0 11
AnchorPoint: "below" 664 0 basechar 0 14
AnchorPoint: "cedilla" 1166 0 basechar 0 13
AnchorPoint: "topright" 786 1053 basechar 0 12
AnchorPoint: "center" 659 695 basechar 0 15
LayerCount: 5
Fore
SplineSet
933 404 m 1,0,-1
 385 404 l 1,1,-1
 235 0 l 1,2,-1
 67 0 l 1,3,-1
 589 1391 l 1,4,-1
 739 1391 l 1,5,-1
 1261 0 l 1,6,-1
 1083 0 l 1,7,-1
 933 404 l 1,0,-1
881 544 m 1,8,-1
 659 1144 l 1,9,-1
 436 544 l 1,10,-1
 881 544 l 1,8,-1
664 1409 m 25,11,-1
786 1053 m 25,12,-1
1166 0 m 25,13,-1
664 0 m 25,14,-1
659 695 m 29,15,-1
EndSplineSet
Layer: 2
SplineSet
739 1391 m 1
 669 1143 l 1
 245 0 l 1
 67 0 l 9
 589 1391 l 1
 739 1391 l 1
589 1391 m 1
 739 1391 l 1
 1261 0 l 17
 1083 0 l 1
 659 1143 l 1
 589 1391 l 1
329 543 m 1
 984 544 l 1
 984 404 l 1
 329 404 l 1
 329 543 l 1
EndSplineSet
Layer: 3
SplineSet
636 1419 m 29
 1165 0 l 29
356 474 m 29
 972 474 l 29
146 0 m 29
 675 1419 l 29
EndSplineSet
Substitution2: "'c2sc' Capitals to Small Capitals lookup 5-1" A.c2sc
EndChar

StartChar: B
Encoding: 66 66 37
Width: 1116
GlyphClass: 2
Flags: MW
AnchorPoint: "center" 539.2 695 basechar 0 54
AnchorPoint: "above" 540 1409 basechar 0 55
AnchorPoint: "ogonek" 636 0 basechar 0 57
AnchorPoint: "below" 540 0 basechar 0 58
AnchorPoint: "cedilla" 636 0 basechar 0 57
AnchorPoint: "topright" 892 1053 basechar 0 56
LayerCount: 5
Fore
SplineSet
361 1252 m 1,0,-1
 361 795 l 1,1,-1
 427 795 l 2,2,3
 594 795 594 795 682 858 c 0,4,5
 771 921 771 921 771 1040 c 0,6,7
 771 1095 771 1095 750 1138 c 0,8,9
 729 1180 729 1180 698 1204 c 128,-1,10
 667 1228 667 1228 626 1244 c 128,-1,11
 585 1260 585 1260 551 1265 c 128,-1,12
 517 1270 517 1270 484 1270 c 0,13,14
 418 1270 418 1270 361 1252 c 1,0,-1
  Spiro
    361 1252 v
    361 795 v
    427 795 ]
    574.25 810.75 o
    682 858 o
    748.75 935 o
    771 1040 o
    765.75 1092 o
    750 1138 o
    726.5 1175.5 o
    698 1204 o
    664.5 1226 o
    626 1244 o
    586.75 1257.25 o
    551 1265 o
    517.25 1268.75 o
    484 1270 o
    420.25 1265.5 o
    0 0 z
  EndSpiro
361 655 m 1,15,-1
 361 140 l 1,16,17
 379 134 379 134 425 128 c 128,-1,18
 471 122 471 122 499 122 c 0,19,20
 687 122 687 122 785 192 c 0,21,22
 883 261 883 261 883 390 c 0,23,24
 883 655 883 655 421 655 c 2,25,-1
 361 655 l 1,15,-1
  Spiro
    361 655 v
    361 140 v
    386 134 o
    425 128 o
    466.5 123.5 o
    499 122 o
    664.5 139.5 o
    785 192 o
    858.5 276 o
    883 390 o
    767.5 588.75 o
    421 655 [
    0 0 z
  EndSpiro
508 -18 m 0,26,27
 433 -18 433 -18 335 -9 c 128,-1,28
 237 0 237 0 180 13 c 1,29,-1
 180 1372 l 1,30,31
 346 1409 346 1409 500 1409 c 0,32,33
 702 1409 702 1409 832 1322 c 0,34,35
 963 1235 963 1235 963 1084 c 0,36,37
 963 953 963 953 894 867 c 128,-1,38
 825 781 825 781 717 752 c 1,39,40
 769 745 769 745 815 732 c 128,-1,41
 861 719 861 719 908 693 c 0,42,43
 956 667 956 667 990 631 c 0,44,45
 1025 595 1025 595 1046 538 c 0,46,47
 1068 482 1068 482 1068 413 c 0,48,49
 1068 271 1068 271 992 172 c 0,50,51
 917 73 917 73 793 28 c 0,52,53
 669 -18 669 -18 508 -18 c 0,26,27
  Spiro
    508 -18 o
    427.25 -15.75 o
    335 -9 o
    247.25 1 o
    180 13 v
    180 1372 v
    343 1399.75 o
    500 1409 o
    684 1387.25 o
    832 1322 o
    930.25 1219 o
    963 1084 o
    945.75 964.25 o
    894 867 o
    815.25 795.25 o
    717 752 v
    767.5 743.5 o
    815 732 o
    861.25 715.75 o
    908 693 o
    952.5 664.5 o
    990 631 o
    1021.5 589.75 o
    1046 538 o
    1062.5 478.75 o
    1068 413 o
    1049 281.75 o
    992 172 o
    904.75 86.5 o
    793 28 o
    659.75 -6.5 o
    0 0 z
  EndSpiro
539.2 695 m 25,54,-1
540 1409 m 25,55,-1
  Spiro
    540 1409 {
    0 0 z
  EndSpiro
892 1053 m 25,56,-1
  Spiro
    892 1053 {
    0 0 z
  EndSpiro
636 0 m 25,57,-1
  Spiro
    636 0 {
    0 0 z
  EndSpiro
540 0 m 25,58,-1
  Spiro
    540 0 {
    0 0 z
  EndSpiro
EndSplineSet
Layer: 2
SplineSet
361 1340 m 1
 361 48 l 1
 180 13 l 17
 180 1372 l 1
 361 1340 l 1
180 13 m 1
 332.5 147.5 l 1
 368 135.5 457 122 499 122 c 0
 712 122 883 195 883 390 c 0
 883 565 727 655 421 655 c 2
 322 655 l 1
 322 776 l 1
 421 776 l 2
 853 776 1075 677 1075 406 c 0
 1075 101 793 -18 499 -18 c 0
 434 -18 265 -9 180 13 c 1
303 1234 m 1
 180 1372 l 1
 262 1395 408 1409 500 1409 c 0
 753 1409 963 1300 963 1067 c 0
 963 802 706 707 427 707 c 2
 265 707 l 1
 265 795 l 1
 427 795 l 2
 619 795 771 863 771 1040 c 0
 771 1199 639 1270 484 1270 c 0
 414.911 1270 348 1251 303 1234 c 1
EndSplineSet
Layer: 3
SplineSet
280 728 m 5
 420 728 l 6
 532.626 728 648.119 723.512 752 680 c 4
 808.891 656.171 861.663 621.142 902.007 574.486 c 4
 942.351 527.83 969.49 469.335 976 408 c 4
 981.351 357.582 972.777 305.842 951.994 259.596 c 4
 931.211 213.351 898.531 172.788 859.086 140.934 c 4
 780.194 77.2274 677.271 49.1458 576 44 c 4
 447.817 37.4868 318.929 63.7388 200 112 c 4
  Spiro
    280 728 {
    420 728 ]
    752 680 o
    976 408 o
    576 44 o
    200 112 o
    0 0 z
  EndSpiro
168 1300 m 0
 275.744 1331.44 387.796 1350.77 500 1348 c 0
 580.479 1346.02 662.449 1330.96 731.76 1290.01 c 0
 766.416 1269.54 797.434 1242.61 821.218 1210.14 c 0
 845.002 1177.66 861.345 1139.7 868 1100 c 0
 876.806 1047.47 868.362 992.558 846.383 944.042 c 0
 824.405 895.527 789.573 853.293 748 820 c 0
 702.695 783.719 649.191 758.003 592.906 743.833 c 0
 536.62 729.662 478.041 728 420 728 c 2
 320 728 l 1
  Spiro
    168 1300 {
    500 1348 o
    868 1100 o
    748 820 o
    420 728 [
    320 728 v
    0 0 z
  EndSpiro
268 1348 m 1
 268 56 l 1
  Spiro
    268 1348 {
    268 56 v
    0 0 z
  EndSpiro
EndSplineSet
Substitution2: "'c2sc' Capitals to Small Capitals lookup 5-1" B.c2sc
EndChar

StartChar: C
Encoding: 67 67 38
Width: 1255
GlyphClass: 2
Flags: MW
AnchorPoint: "topright" 1080 1245 basechar 0 37
AnchorPoint: "cedilla" 660 0 basechar 0 39
AnchorPoint: "below" 660 0 basechar 0 39
AnchorPoint: "ogonek" 1080 153 basechar 0 38
AnchorPoint: "above" 660 1409 basechar 0 36
LayerCount: 5
Fore
SplineSet
693 1409 m 0,0,1
 789 1409 789 1409 855 1401.5 c 128,-1,2
 921 1394 921 1394 976 1373.5 c 128,-1,3
 1031 1353 1031 1353 1069 1330.5 c 128,-1,4
 1107 1308 1107 1308 1166 1265 c 1,5,-1
 1078 1146 l 1,6,7
 992 1211 992 1211 909 1241 c 128,-1,8
 826 1271 826 1271 728 1269 c 0,9,10
 616 1269 616 1269 522.5 1221 c 128,-1,11
 429 1173 429 1173 368.5 1092.5 c 128,-1,12
 308 1012 308 1012 274.5 909 c 128,-1,13
 241 806 241 806 241 695 c 256,14,15
 241 584 241 584 274.5 481.5 c 128,-1,16
 308 379 308 379 368.5 298.5 c 128,-1,17
 429 218 429 218 522.5 170 c 128,-1,18
 616 122 616 122 728 122 c 0,19,20
 826 120 826 120 909 150 c 128,-1,21
 992 180 992 180 1078 245 c 1,22,-1
 1166 126 l 1,23,24
 1107 83 1107 83 1069 60.5 c 128,-1,25
 1031 38 1031 38 976 17.5 c 128,-1,26
 921 -3 921 -3 855 -10.5 c 128,-1,27
 789 -18 789 -18 693 -18 c 0,28,29
 497 -18 497 -18 350 72 c 128,-1,30
 203 162 203 162 126 323.5 c 128,-1,31
 49 485 49 485 49 696 c 256,32,33
 49 907 49 907 126 1068 c 128,-1,34
 203 1229 203 1229 350 1319 c 128,-1,35
 497 1409 497 1409 693 1409 c 0,0,1
  Spiro
    693 1409 o
    781.5 1407.12 o
    855 1401.5 o
    918.25 1390.75 o
    976 1373.5 o
    1026.75 1352.5 o
    1069 1330.5 o
    1112.25 1302.88 o
    1166 1265 v
    1078 1146 v
    992.75 1202.25 o
    909 1241 o
    822.25 1263 o
    728 1269 o
    620.625 1257 o
    522.5 1221 o
    437.25 1164.88 o
    368.5 1092.5 o
    314.75 1006.38 o
    274.5 909 o
    249.375 804 o
    241 695 o
    249.375 586.125 o
    274.5 481.5 o
    314.75 384.5 o
    368.5 298.5 o
    437.25 226.125 o
    522.5 170 o
    620.625 134 o
    728 122 o
    822.25 128 o
    909 150 o
    992.75 188.75 o
    1078 245 v
    1166 126 v
    1112.25 88.125 o
    1069 60.5 o
    1026.75 38.5 o
    976 17.5 o
    918.25 0.25 o
    855 -10.5 o
    781.5 -16.125 o
    693 -18 o
    509.25 4.5 o
    350 72 o
    220.5 179.875 o
    126 323.5 o
    68.25 497.375 o
    49 696 o
    68.25 894.5 o
    126 1068 o
    220.5 1211.25 o
    350 1319 o
    509.25 1386.5 o
    0 0 z
  EndSpiro
660 1409 m 25,36,-1
  Spiro
    660 1409 {
    0 0 z
  EndSpiro
1080 1245 m 25,37,-1
  Spiro
    1080 1245 {
    0 0 z
  EndSpiro
1080 153 m 25,38,-1
  Spiro
    1080 153 {
    0 0 z
  EndSpiro
660 0 m 25,39,-1
  Spiro
    660 0 {
    0 0 z
  EndSpiro
EndSplineSet
Layer: 2
SplineSet
693 1409 m 0
 951 1409 1029 1365 1166 1265 c 1
 1078 1146 l 1
 964.153 1231.9 863.987 1269 728 1269 c 0
 420 1269 241 989 241 695 c 0
 241 401 415 122 723 122 c 0
 859.182 122 964.132 159.081 1078 245 c 1
 1166 126 l 1
 1029 26 880 -18 713 -18 c 0
 346 -18 49 233 49 696 c 0
 49 1119 294 1409 693 1409 c 0
EndSplineSet
Layer: 3
SplineSet
1176 1173 m 0
 1056.55 1278.4 898.501 1339.95 739.2 1340 c 0
 589.827 1340.05 439.975 1283.25 333 1179 c 0
 269.397 1117.02 221.23 1039.85 190.234 956.625 c 0
 159.238 873.399 144.766 784.31 145 695.5 c 0
 145.448 525.397 201.657 352.095 318 228 c 0
 428.166 110.494 590.157 44.9501 751.2 48 c 0
 908.181 50.973 1062.83 116.166 1176 225 c 0
  Spiro
    1176 1173 {
    739.2 1340 o
    333 1179 o
    145 695.5 o
    318 228 o
    751.2 48 o
    1176 225 v
    0 0 z
  EndSpiro
EndSplineSet
Substitution2: "'c2sc' Capitals to Small Capitals lookup 5-1" C.c2sc
EndChar

StartChar: D
Encoding: 68 68 39
Width: 1375
GlyphClass: 2
Flags: MW
AnchorPoint: "topright" 1135 1053 basechar 0 33
AnchorPoint: "cedilla" 620 0 basechar 0 34
AnchorPoint: "below" 620 0 basechar 0 34
AnchorPoint: "ogonek" 620 0 basechar 0 34
AnchorPoint: "above" 620 1409 basechar 0 32
LayerCount: 5
Fore
SplineSet
584 -18 m 0,0,1
 367 -18 367 -18 180 13 c 1,2,-1
 180 1372 l 1,3,4
 391 1409 391 1409 544 1409 c 0,5,6
 663 1409 663 1409 777 1379 c 128,-1,7
 891 1349 891 1349 991 1288.5 c 128,-1,8
 1091 1228 1091 1228 1166.5 1143.5 c 128,-1,9
 1242 1059 1242 1059 1286 942 c 128,-1,10
 1330 825 1330 825 1330 691 c 0,11,12
 1330 524 1330 524 1267.5 387 c 128,-1,13
 1205 250 1205 250 1100.5 163 c 128,-1,14
 996 76 996 76 863 29 c 128,-1,15
 730 -18 730 -18 584 -18 c 0,0,1
361 1252 m 1,16,-1
 360 140 l 1,17,18
 452 122 452 122 557 122 c 0,19,20
 665 122 665 122 768 159 c 128,-1,21
 871 196 871 196 955 264.5 c 128,-1,22
 1039 333 1039 333 1090.5 443.5 c 128,-1,23
 1142 554 1142 554 1142 688 c 0,24,25
 1142 799 1142 799 1105.5 895 c 128,-1,26
 1069 991 1069 991 1009 1058.5 c 128,-1,27
 949 1126 949 1126 871.5 1175 c 128,-1,28
 794 1224 794 1224 710.5 1247 c 128,-1,29
 627 1270 627 1270 546 1270 c 0,30,31
 439 1270 439 1270 361 1252 c 1,16,-1
620 1409 m 25,32,-1
1135 1053 m 25,33,-1
620 0 m 25,34,-1
EndSplineSet
Layer: 2
SplineSet
258 0 m 1
 293 150 l 1
 360 138 433 122 584 122 c 0
 839 122 1138 284 1138 691 c 0
 1138 1092 814 1269 544 1269 c 0
 442 1269 372 1256 298 1242 c 1
 180 1372 l 1
 261 1390 424 1409 544 1409 c 0
 938 1409 1330 1152 1330 691 c 0
 1330 230 967 -18 584 -18 c 0
 425 -18 329 -10 258 0 c 1
361 1325 m 1
 361 48 l 1
 180 13 l 17
 180 1372 l 1
 361 1325 l 1
EndSplineSet
Layer: 3
SplineSet
276 69 m 1
 342 60 429 52 584 52 c 0
 903 52 1234 257 1234 691 c 0
 1234 1122 876 1339 544 1339 c 0
 441 1339 349 1328 276 1316 c 1
258 1413 m 25
 258 12 l 25
  Spiro
    258 1413 {
    258 12 v
    0 0 z
  EndSpiro
EndSplineSet
Layer: 4
SplineSet
584 -18 m 0
 362 -18 267.5 -1.5 180 13 c 1
 180 1372 l 1
 262.5 1386.5 390 1409 544 1409 c 0
 938 1409 1330 1152 1330 691 c 0
 1330 230 968 -18 584 -18 c 0
361 1252 m 1
 360 140 l 1
 426.5 127 468 122 557 122 c 0
 840 122 1142 316 1142 688 c 0
 1142 1071 813 1270 546 1270 c 0
 476 1270 395.5 1260 361 1252 c 1
EndSplineSet
Validated: 1
Substitution2: "'c2sc' Capitals to Small Capitals lookup 5-1" D.c2sc
EndChar

StartChar: E
Encoding: 69 69 40
Width: 1077
GlyphClass: 2
Flags: MW
AnchorPoint: "topright" 868 1053 basechar 0 14
AnchorPoint: "cedilla" 568 0 basechar 0 15
AnchorPoint: "below" 568 0 basechar 0 15
AnchorPoint: "ogonek" 908 0 basechar 0 12
AnchorPoint: "above" 568 1409 basechar 0 13
LayerCount: 5
Fore
SplineSet
361 644 m 1,0,-1
 361 140 l 1,1,-1
 975 140 l 1,2,-1
 975 0 l 1,3,-1
 180 0 l 1,4,-1
 180 1391 l 1,5,-1
 975 1391 l 1,6,-1
 975 1252 l 1,7,-1
 361 1252 l 1,8,-1
 361 784 l 1,9,-1
 779 784 l 1,10,-1
 779 644 l 1,11,-1
 361 644 l 1,0,-1
908 0 m 25,12,-1
568 1409 m 25,13,-1
868 1053 m 25,14,-1
568 0 m 25,15,-1
EndSplineSet
Layer: 2
SplineSet
975 0 m 1
 180 0 l 1
 258 139 l 1
 975 139 l 1
 975 0 l 1
779 645 m 1
 261 645 l 1
 261 784 l 1
 779 784 l 1
 779 645 l 1
180 0 m 1
 180 1391 l 1
 361 1391 l 1
 361 0 l 1
 180 0 l 1
975 1252 m 1
 255 1252 l 1
 180 1391 l 1
 975 1391 l 1
 975 1252 l 1
EndSplineSet
Layer: 3
SplineSet
780 723 m 25
 291 723 l 25
258 1359 m 25
 258 51 l 25
978 84 m 25
 243 84 l 25
972 1320 m 25
 228 1320 l 25
EndSplineSet
Substitution2: "'c2sc' Capitals to Small Capitals lookup 5-1" E.c2sc
EndChar

StartChar: F
Encoding: 70 70 41
Width: 999
GlyphClass: 2
Flags: MW
AnchorPoint: "topright" 872 1053 basechar 0 11
AnchorPoint: "cedilla" 270 0 basechar 0 12
AnchorPoint: "below" 270 0 basechar 0 12
AnchorPoint: "ogonek" 270 0 basechar 0 12
AnchorPoint: "above" 580 1409 basechar 0 10
LayerCount: 5
Fore
SplineSet
361 644 m 1,0,-1
 361 0 l 1,1,-1
 180 0 l 1,2,-1
 180 1391 l 1,3,-1
 975 1391 l 1,4,-1
 975 1252 l 1,5,-1
 361 1252 l 1,6,-1
 361 784 l 1,7,-1
 779 784 l 1,8,-1
 779 644 l 1,9,-1
 361 644 l 1,0,-1
580 1409 m 25,10,-1
872 1053 m 25,11,-1
270 0 m 25,12,-1
EndSplineSet
Layer: 2
SplineSet
779 645 m 1
 261 645 l 1
 261 784 l 1
 779 784 l 1
 779 645 l 1
180 0 m 1
 180 1391 l 1
 361 1391 l 1
 361 0 l 1
 180 0 l 1
975 1252 m 1
 255 1252 l 1
 180 1391 l 1
 975 1391 l 1
 975 1252 l 1
EndSplineSet
Layer: 3
SplineSet
780 723 m 25
 291 723 l 25
258 1359 m 25
 258 51 l 25
972 1320 m 25
 228 1320 l 25
EndSplineSet
Substitution2: "'c2sc' Capitals to Small Capitals lookup 5-1" F.c2sc
EndChar

StartChar: G
Encoding: 71 71 42
Width: 1435
GlyphClass: 2
InSpiro: 1
Flags: MW
AnchorPoint: "topright" 1255 1053 basechar 0 37
AnchorPoint: "cedilla" 740 0 basechar 0 38
AnchorPoint: "below" 740 0 basechar 0 38
AnchorPoint: "ogonek" 740 0 basechar 0 38
AnchorPoint: "above" 740 1409 basechar 0 36
LayerCount: 5
Fore
SplineSet
49 696 m 0,0,1
 49 907 49 907 135.5 1068 c 128,-1,2
 222 1229 222 1229 386 1319 c 128,-1,3
 550 1409 550 1409 770 1409 c 0,4,5
 867 1409 867 1409 938.5 1400 c 128,-1,6
 1010 1391 1010 1391 1070.5 1369.5 c 128,-1,7
 1131 1348 1131 1348 1171.5 1326.5 c 128,-1,8
 1212 1305 1212 1305 1276 1264 c 1,9,-1
 1206 1131 l 1,10,11
 992 1269 992 1269 774 1269 c 0,12,13
 652 1269 652 1269 549.5 1221 c 128,-1,14
 447 1173 447 1173 380.5 1093 c 128,-1,15
 314 1013 314 1013 277.5 910.5 c 128,-1,16
 241 808 241 808 241 697 c 0,17,18
 241 608 241 608 262 524 c 128,-1,19
 283 440 283 440 325 367 c 128,-1,20
 367 294 367 294 424.5 239.5 c 128,-1,21
 482 185 482 185 561 153.5 c 128,-1,22
 640 122 640 122 730 122 c 0,23,24
 897.635 119.36 897.635 119.36 1071 196.795 c 1,25,-1
 1071 526 l 1,26,-1
 774 526 l 1,27,-1
 774 665 l 1,28,-1
 1252 666 l 1,29,-1
 1251 126 l 1,30,31
 1140 51 1140 51 1018.5 16.5 c 128,-1,32
 897 -18 897 -18 742 -18 c 0,33,34
 424 -18 424 -18 236.5 179 c 128,-1,35
 49 376 49 376 49 696 c 0,0,1
  Spiro
    49 696 o
    70.625 894.5 o
    135.5 1068 o
    241.375 1211.25 o
    386 1319 o
    564 1386.5 o
    770 1409 o
    860.625 1406.75 o
    938.5 1400 o
    1007.25 1387.88 o
    1070.5 1369.5 o
    1126 1348 o
    1171.5 1326.5 o
    1217.88 1300.12 o
    1276 1264 v
    1206 1131 v
    991 1234.5 o
    774 1269 o
    656.875 1257 o
    549.5 1221 o
    456 1165 o
    380.5 1093 o
    321.5 1007.38 o
    277.5 910.5 o
    250.125 805.875 o
    241 697 o
    246.25 609.25 o
    262 524 o
    288.25 442.75 o
    325 367 o
    370.875 298.625 o
    424.5 239.5 o
    487.375 190.75 o
    561 153.5 o
    642.75 129.875 o
    730 122 o
    899.068 139.379 o
    1071 196.795 v
    1071 526 v
    774 526 v
    774 665 v
    1252 666 v
    1251 126 v
    1137.38 61.125 o
    1018.5 16.5 o
    888.625 -9.375 o
    742 -18 o
    456.625 31.25 o
    236.5 179 o
    95.875 406.75 o
    0 0 z
  EndSpiro
740 1409 m 25,36,-1
  Spiro
    740 1409 {
    0 0 z
  EndSpiro
1255 1053 m 25,37,-1
  Spiro
    1255 1053 {
    0 0 z
  EndSpiro
740 0 m 25,38,-1
  Spiro
    740 0 {
    0 0 z
  EndSpiro
EndSplineSet
Layer: 2
SplineSet
774 665 m 1
 1252 666 l 1
 1252 526 l 1
 774 526 l 1
 774 665 l 1
  Spiro
    774 665 v
    1252 666 v
    1252 526 v
    774 526 v
    0 0 z
  EndSpiro
1252 666 m 9
 1251 126 l 25
 1071 126 l 17
 1071 666 l 17
 1252 666 l 9
  Spiro
    1252 666 v
    1251 126 v
    1071 126 v
    1071 666 v
    0 0 z
  EndSpiro
49 696 m 0
 49 1119 323 1401 770 1409 c 0
 1036 1414 1132 1355 1276 1264 c 1
 1206 1131 l 1
 1051 1231 904 1269 774 1269 c 0
 437 1269 241 991 241 697 c 0
 241 402 422 122 730 122 c 0
 857 120 1024 158 1177 253 c 1
 1251 126 l 1
 1104 27 950 -18 742 -18 c 0
 313 -18 49 274 49 696 c 0
  Spiro
    49 696 o
    136.421 1066.76 o
    384.728 1314.77 o
    770 1409 o
    987.23 1393.89 o
    1140.06 1343.08 o
    1276 1264 v
    1206 1131 v
    1054.15 1211.16 o
    909.193 1255.47 o
    774 1269 o
    486.274 1186.19 o
    304.172 975.709 o
    241 697 o
    299.219 417.07 o
    466.551 205.361 o
    730 122 o
    868.186 133.936 o
    1021.49 176.429 o
    1177 253 v
    1251 126 v
    1100.08 44.7307 o
    933.564 -2.69765 o
    742 -18 o
    371.975 73.1567 o
    133.168 323.651 o
    0 0 z
  EndSpiro
EndSplineSet
Layer: 3
SplineSet
825 588 m 1
 1218 588 l 1
  Spiro
    825 588 {
    1218 588 v
    0 0 z
  EndSpiro
1164 126 m 1
 1164 585 l 1
  Spiro
    1164 126 {
    1164 585 v
    0 0 z
  EndSpiro
1275.2 1179.2 m 0
 1118.18 1284.17 929.798 1345.36 741 1340 c 0
 591.365 1335.75 440.221 1283.46 333 1179 c 0
 259.364 1107.26 208.372 1013.91 180.976 914.824 c 0
 153.581 815.736 147.809 711.195 159 609 c 0
 174.233 469.898 223.638 331.331 318 228 c 0
 372.15 168.703 440.145 122.349 514.659 92.4179 c 0
 589.173 62.4865 669.701 48.5888 750 48 c 0
 925.487 46.7132 1099.6 106.322 1243.2 207.2 c 0
  Spiro
    1275.2 1179.2 {
    741 1340 o
    333 1179 o
    159 609 o
    318 228 o
    750 48 o
    1243.2 207.2 v
    0 0 z
  EndSpiro
EndSplineSet
Substitution2: "'c2sc' Capitals to Small Capitals lookup 5-1" G.c2sc
EndChar

StartChar: H
Encoding: 72 72 43
Width: 1364
GlyphClass: 2
Flags: MW
AnchorPoint: "ogonek" 1093 0 basechar 0 14
AnchorPoint: "above" 682 1409 basechar 0 12
AnchorPoint: "below" 682 0 basechar 0 15
AnchorPoint: "cedilla" 1093 0 basechar 0 14
AnchorPoint: "topright" 1096 1053 basechar 0 13
LayerCount: 5
Fore
SplineSet
1184 1391 m 1,0,-1
 1184 0 l 1,1,-1
 1003 0 l 1,2,-1
 1003 664 l 1,3,-1
 361 664 l 1,4,-1
 361 0 l 1,5,-1
 180 0 l 1,6,-1
 180 1391 l 1,7,-1
 361 1391 l 1,8,-1
 361 804 l 1,9,-1
 1003 804 l 1,10,-1
 1003 1391 l 1,11,-1
 1184 1391 l 1,0,-1
682 1409 m 25,12,-1
1096 1053 m 25,13,-1
1093 0 m 25,14,-1
682 0 m 25,15,-1
EndSplineSet
Layer: 2
SplineSet
294 803 m 1
 1087 803 l 1
 1087 663 l 1
 294 664 l 1
 294 803 l 1
1184 1391 m 9
 1184 -1 l 25
 1003 -1 l 17
 1003 1391 l 17
 1184 1391 l 9
361 1391 m 9
 361 0 l 25
 180 0 l 17
 180 1391 l 17
 361 1391 l 9
EndSplineSet
Layer: 3
SplineSet
1137 734 m 25
 213 734 l 25
1077 1389 m 25
 1077 0 l 25
267 1386 m 25
 267 0 l 25
EndSplineSet
Substitution2: "'c2sc' Capitals to Small Capitals lookup 5-1" H.c2sc
EndChar

StartChar: I
Encoding: 73 73 44
Width: 541
GlyphClass: 2
Flags: MW
AnchorPoint: "above" 270 1409 basechar 0 4
AnchorPoint: "ogonek" 270 0 basechar 0 6
AnchorPoint: "below" 270 0 basechar 0 6
AnchorPoint: "cedilla" 270 0 basechar 0 6
AnchorPoint: "topright" 270 1053 basechar 0 5
LayerCount: 5
Fore
SplineSet
361 1391 m 1,0,-1
 361 0 l 1,1,-1
 180 0 l 1,2,-1
 180 1391 l 1,3,-1
 361 1391 l 1,0,-1
270 1409 m 25,4,-1
270 1053 m 25,5,-1
270 0 m 25,6,-1
EndSplineSet
Layer: 2
SplineSet
361 1391 m 13
 361 0 l 25
 180 0 l 17
 180 1391 l 17
 361 1391 l 13
EndSplineSet
Substitution2: "'c2sc' Capitals to Small Capitals lookup 5-1" I.c2sc
EndChar

StartChar: J
Encoding: 74 74 45
Width: 541
GlyphClass: 2
Flags: MW
AnchorPoint: "topright" 270 1053 basechar 0 16
AnchorPoint: "cedilla" 60 -492 basechar 0 18
AnchorPoint: "below" 180 -492 basechar 0 17
AnchorPoint: "ogonek" 60 -492 basechar 0 18
AnchorPoint: "above" 270 1409 basechar 0 15
LayerCount: 5
Fore
SplineSet
361 1391 m 1,0,-1
 361 140 l 2,1,2
 359 74 359 74 359 32.5 c 128,-1,3
 359 -9 359 -9 351.5 -67.5 c 128,-1,4
 344 -126 344 -126 331.5 -166.5 c 128,-1,5
 319 -207 319 -207 295 -257 c 128,-1,6
 271 -307 271 -307 237.5 -344.5 c 128,-1,7
 204 -382 204 -382 153 -422 c 128,-1,8
 102 -462 102 -462 37 -495 c 1,9,-1
 -41 -396 l 1,10,11
 76 -306 76 -306 128 -200.5 c 128,-1,12
 180 -95 180 -95 180 69 c 2,13,-1
 180 1391 l 1,14,-1
 361 1391 l 1,0,-1
270 1409 m 25,15,-1
270 1053 m 25,16,-1
180 -492 m 25,17,-1
60 -492 m 25,18,-1
EndSplineSet
Layer: 2
SplineSet
361 1391 m 9
 360 140 l 18
 360 -112 349 -336 37 -495 c 1
 -41 -396 l 1
 112 -279 180 -154 180 69 c 2
 180 1391 l 17
 361 1391 l 9
  Spiro
    361 1391 v
    360 140 ]
    345.632 -101.067 o
    259.264 -315.902 o
    37 -495 v
    -41 -396 v
    84.198 -273.132 o
    156.751 -124.499 o
    180 69 [
    180 1391 v
    0 0 z
  EndSpiro
EndSplineSet
Layer: 3
SplineSet
264 1400 m 1
 264 100 l 2
 264 26.6281 262.472 -47.3786 245.726 -118.814 c 0
 228.98 -190.249 197.53 -258.463 152 -316 c 0
 101.8 -379.439 34.9881 -429.647 -40 -460 c 0
  Spiro
    264 1400 {
    264 100 ]
    152 -316 o
    -40 -460 o
    0 0 z
  EndSpiro
EndSplineSet
Substitution2: "'c2sc' Capitals to Small Capitals lookup 5-1" J.c2sc
EndChar

StartChar: K
Encoding: 75 75 46
Width: 1115
GlyphClass: 2
Flags: MW
AnchorPoint: "topright" 999 1053 basechar 0 12
AnchorPoint: "cedilla" 997 0 basechar 0 13
AnchorPoint: "below" 620 0 basechar 0 14
AnchorPoint: "above" 620 1409 basechar 0 11
AnchorPoint: "ogonek" 997 0 basechar 0 13
LayerCount: 5
Fore
SplineSet
361 0 m 1,0,-1
 180 0 l 1,1,-1
 180 1391 l 1,2,-1
 361 1391 l 1,3,-1
 361 693 l 1,4,-1
 871 1391 l 1,5,-1
 1059 1391 l 1,6,-1
 555 701 l 1,7,-1
 1103 0 l 1,8,-1
 892 0 l 1,9,-1
 361 679 l 1,10,-1
 361 0 l 1,0,-1
620 1409 m 25,11,-1
999 1053 m 25,12,-1
997 0 m 25,13,-1
620 0 m 25,14,-1
EndSplineSet
Layer: 2
SplineSet
1081 0 m 1
 877 0 l 1
 686 355 l 2
 617 484 519 618 335 631 c 1
 358 683 l 1
 434 762 l 1
 646 713 770 578 862 407 c 2
 1081 0 l 1
1053 1391 m 1
 859 984 l 2
 775 809 643 678 431 629 c 1
 358 683 l 1
 332 760 l 1
 516 773 621 903 683 1036 c 2
 849 1391 l 1
 1053 1391 l 1
871 1391 m 17
 1059 1391 l 9
 531 668 l 1
 358 683 l 1
 343 668 l 1
 871 1391 l 17
1103 1 m 9
 892 1 l 17
 358 683 l 17
 504 766 l 1
 1103 1 l 9
361 1391 m 9
 361 0 l 25
 180 0 l 17
 180 1391 l 17
 361 1391 l 9
EndSplineSet
Layer: 3
SplineSet
437 668 m 1
 965 1391 l 9
431 724 m 1
 998 1 l 17
976 0 m 1
 771 382 l 2
 744 433 715 483 678 527 c 0
 611 607 517 669 402 696 c 0
951 1392 m 1
 771 1010 l 2
 699 857 586 739 402 696 c 0
264 1392 m 25
 264 0 l 25
EndSplineSet
Substitution2: "'c2sc' Capitals to Small Capitals lookup 5-1" K.c2sc
EndChar

StartChar: L
Encoding: 76 76 47
Width: 1010
GlyphClass: 2
Flags: MW
AnchorPoint: "above" 270 1409 basechar 0 6
AnchorPoint: "ogonek" 580 0 basechar 0 8
AnchorPoint: "below" 580 0 basechar 0 8
AnchorPoint: "cedilla" 580 0 basechar 0 8
AnchorPoint: "topright" 270 1053 basechar 0 7
LayerCount: 5
Fore
SplineSet
180 0 m 1,0,-1
 180 1391 l 1,1,-1
 361 1391 l 1,2,-1
 361 140 l 1,3,-1
 975 140 l 1,4,-1
 975 0 l 1,5,-1
 180 0 l 1,0,-1
270 1409 m 25,6,-1
270 1053 m 25,7,-1
580 0 m 25,8,-1
EndSplineSet
Layer: 2
SplineSet
975 0 m 1
 180 0 l 1
 308.5 140 l 1
 975 140 l 1
 975 0 l 1
180 0 m 1
 180 1391 l 1
 361 1391 l 1
 361 0 l 1
 180 0 l 1
EndSplineSet
Layer: 3
SplineSet
975 70 m 9
 207.2 70 l 25
270 82 m 1
 270 1391 l 1
EndSplineSet
Substitution2: "'c2sc' Capitals to Small Capitals lookup 5-1" L.c2sc
EndChar

StartChar: M
Encoding: 77 77 48
Width: 1774
GlyphClass: 2
Flags: MW
AnchorPoint: "topright" 1455 1053 basechar 0 14
AnchorPoint: "cedilla" 1575 0 basechar 0 15
AnchorPoint: "below" 886 0 basechar 0 16
AnchorPoint: "above" 886 1409 basechar 0 13
AnchorPoint: "ogonek" 1575 0 basechar 0 15
LayerCount: 5
Fore
SplineSet
893 249 m 1,0,-1
 1323 1392 l 1,1,-1
 1491 1392 l 1,2,-1
 1664 0 l 1,3,-1
 1486 0 l 1,4,-1
 1362 1039 l 1,5,-1
 981 0 l 1,6,-1
 816 0 l 1,7,-1
 399 1087 l 1,8,-1
 269 0 l 1,9,-1
 109 0 l 1,10,-1
 282 1392 l 1,11,-1
 460 1392 l 1,12,-1
 893 249 l 1,0,-1
886 1409 m 25,13,-1
1455 1053 m 25,14,-1
1575 0 m 25,15,-1
886 0 m 25,16,-1
EndSplineSet
Layer: 2
SplineSet
406 1145 m 1
 269 1 l 1
 109 1 l 9
 282 1392 l 9
 433 1392 l 17
 406 1145 l 1
1349 1145 m 1
 1340 1392 l 9
 1491 1392 l 17
 1664 1 l 17
 1486 1 l 1
 1349 1145 l 1
893 249 m 1
 1323 1392 l 17
 1491 1392 l 9
 981 1 l 9
 816 1 l 17
 282 1392 l 17
 460 1392 l 1
 893 249 l 1
EndSplineSet
Substitution2: "'c2sc' Capitals to Small Capitals lookup 5-1" M.c2sc
EndChar

StartChar: N
Encoding: 78 78 49
Width: 1385
GlyphClass: 2
Flags: MW
AnchorPoint: "topright" 1114 1053 basechar 0 11
AnchorPoint: "cedilla" 1114 0 basechar 0 12
AnchorPoint: "below" 692 0 basechar 0 13
AnchorPoint: "above" 692 1409 basechar 0 10
AnchorPoint: "ogonek" 1114 0 basechar 0 12
LayerCount: 5
Fore
SplineSet
1205 1391 m 5,0,-1
 1205 0 l 1,1,-1
 1024 0 l 1,2,-1
 361 1042 l 1,3,-1
 361 0 l 1,4,-1
 180 0 l 1,5,-1
 180 1391 l 1,6,-1
 361 1391 l 1,7,-1
 1024 348 l 1,8,-1
 1024 1391 l 5,9,-1
 1205 1391 l 5,0,-1
692 1409 m 25,10,-1
1114 1053 m 25,11,-1
1114 0 m 25,12,-1
692 0 m 25,13,-1
EndSplineSet
Layer: 2
SplineSet
1127 96 m 13
 1024 0 l 21
 309 1124 l 5
 223 1340 l 5
 361 1391 l 5
 1057 296 l 5
 1127 96 l 13
1205 1391 m 13
 1205 0 l 29
 1024 0 l 21
 1024 1391 l 21
 1205 1391 l 13
361 1391 m 13
 361 0 l 29
 180 0 l 21
 180 1391 l 21
 361 1391 l 13
EndSplineSet
Substitution2: "'c2sc' Capitals to Small Capitals lookup 5-1" N.c2sc
EndChar

StartChar: O
Encoding: 79 79 50
Width: 1444
GlyphClass: 2
Flags: MW
AnchorPoint: "topright" 1263 1053 basechar 0 39
AnchorPoint: "ogonek" 727 0 basechar 0 40
AnchorPoint: "cedilla" 727 0 basechar 0 40
AnchorPoint: "below" 727 0 basechar 0 40
AnchorPoint: "above" 727 1409 basechar 0
AnchorPoint: "center" 727 695 basechar 0 41
LayerCount: 5
Fore
SplineSet
727 1409 m 0,0,1
 856 1409 856 1409 965.5 1373 c 128,-1,2
 1075 1337 1075 1337 1154.5 1272 c 128,-1,3
 1234 1207 1234 1207 1289.5 1118.5 c 128,-1,4
 1345 1030 1345 1030 1372 925 c 128,-1,5
 1399 820 1399 820 1399 703 c 0,6,7
 1399 587 1399 587 1371 479.5 c 128,-1,8
 1343 372 1343 372 1286 281.5 c 128,-1,9
 1229 191 1229 191 1149.5 124 c 128,-1,10
 1070 57 1070 57 961.5 19.5 c 128,-1,11
 853 -18 853 -18 727 -18 c 0,12,13
 562 -18 562 -18 431 37.5 c 128,-1,14
 300 93 300 93 216.5 190.5 c 128,-1,15
 133 288 133 288 89 418.5 c 128,-1,16
 45 549 45 549 45 703 c 0,17,18
 45 855 45 855 90.5 984 c 128,-1,19
 136 1113 136 1113 220.5 1207.5 c 128,-1,20
 305 1302 305 1302 435 1355.5 c 128,-1,21
 565 1409 565 1409 727 1409 c 0,0,1
727 1271 m 0,22,23
 573 1271 573 1271 460.5 1196 c 128,-1,24
 348 1121 348 1121 292.5 994 c 128,-1,25
 237 867 237 867 237 703 c 0,26,27
 237 537 237 537 291 408 c 128,-1,28
 345 279 345 279 457.5 201 c 128,-1,29
 570 123 570 123 727 123 c 0,30,31
 840 123 840 123 932.5 170 c 128,-1,32
 1025 217 1025 217 1085 297 c 128,-1,33
 1145 377 1145 377 1177.5 481.5 c 128,-1,34
 1210 586 1210 586 1210 703 c 0,35,36
 1210 861 1210 861 1156.5 988 c 128,-1,37
 1103 1115 1103 1115 991.5 1193 c 128,-1,38
 880 1271 880 1271 727 1271 c 0,22,23
1263 1053 m 25,39,-1
727 0 m 25,40,-1
727 695 m 25,41,-1
EndSplineSet
Layer: 2
SplineSet
727 1271 m 0
 411 1271 237 1027 237 703 c 0
 237 378 403 123 727 123 c 0
 1036 123 1210 393 1210 703 c 0
 1210 1013 1044 1271 727 1271 c 0
727 1409 m 0
 1168 1409 1399 1090 1399 703 c 0
 1399 316 1157 -18 727 -18 c 0
 276 -18 45 297 45 703 c 0
 45 1108 287 1409 727 1409 c 0
EndSplineSet
Layer: 3
SplineSet
727 1341 m 0
 1135 1341 1306 1018 1306 703 c 0
 1306 389 1130 53 727 53 c 0
 313 53 141 373 141 703 c 0
 141 1034 323 1341 727 1341 c 0
  Spiro
    727 1341 o
    1058.19 1245.77 o
    1246.68 1008.12 o
    1306 703 o
    1245.57 395.215 o
    1055.96 151.557 o
    727 53 o
    391.335 148.006 o
    200.804 388.104 o
    141 703 o
    203.022 1015.23 o
    395.779 1249.32 o
    0 0 z
  EndSpiro
EndSplineSet
Substitution2: "'c2sc' Capitals to Small Capitals lookup 5-1" O.c2sc
EndChar

StartChar: P
Encoding: 80 80 51
Width: 1083
GlyphClass: 2
Flags: MW
AnchorPoint: "above" 540 1409 basechar 0 26
AnchorPoint: "ogonek" 270 0 basechar 0 28
AnchorPoint: "below" 270 0 basechar 0 28
AnchorPoint: "cedilla" 270 0 basechar 0 28
AnchorPoint: "topright" 950 1053 basechar 0 27
LayerCount: 5
Fore
SplineSet
515 1409 m 0,0,1
 631 1409 631 1409 722.5 1385.5 c 128,-1,2
 814 1362 814 1362 871.5 1323 c 128,-1,3
 929 1284 929 1284 966.5 1229.5 c 128,-1,4
 1004 1175 1004 1175 1019.5 1117.5 c 128,-1,5
 1035 1060 1035 1060 1035 996 c 0,6,7
 1035 813 1035 813 895 694.5 c 128,-1,8
 755 576 755 576 531 576 c 2,9,-1
 361 576 l 1,10,-1
 361 0 l 1,11,-1
 180 0 l 1,12,-1
 180 1372 l 1,13,14
 248 1385 248 1385 348.5 1397 c 128,-1,15
 449 1409 449 1409 515 1409 c 0,0,1
  Spiro
    515 1409 o
    624.875 1403.12 o
    722.5 1385.5 o
    805.5 1358.12 o
    871.5 1323 o
    924 1280.12 o
    966.5 1229.5 o
    998.5 1174.25 o
    1019.5 1117.5 o
    1031.12 1058.38 o
    1035 996 o
    1000 829.125 o
    895 694.5 o
    734 605.625 o
    531 576 [
    361 576 v
    361 0 v
    180 0 v
    180 1372 v
    256.125 1384.75 o
    348.5 1397 o
    440.375 1406 o
    0 0 z
  EndSpiro
361 1252 m 1,16,-1
 361 716 l 1,17,-1
 427 716 l 2,18,19
 649 716 649 716 746 781.5 c 128,-1,20
 843 847 843 847 843 996 c 0,21,22
 843 1124 843 1124 761.5 1197 c 128,-1,23
 680 1270 680 1270 520 1270 c 0,24,25
 434 1270 434 1270 361 1252 c 1,16,-1
  Spiro
    361 1252 v
    361 716 v
    427 716 ]
    617.75 732.375 o
    746 781.5 o
    818.75 867.875 o
    843 996 o
    822.625 1110.25 o
    761.5 1197 o
    660.375 1251.75 o
    520 1270 o
    437.25 1265.5 o
    0 0 z
  EndSpiro
540 1409 m 25,26,-1
  Spiro
    540 1409 {
    0 0 z
  EndSpiro
950 1053 m 25,27,-1
  Spiro
    950 1053 {
    0 0 z
  EndSpiro
270 0 m 25,28,-1
  Spiro
    270 0 {
    0 0 z
  EndSpiro
EndSplineSet
Layer: 2
SplineSet
312 1238 m 1
 180 1372 l 1
 244 1387 426.225 1410 520 1410 c 0
 867.497 1410 1035 1207.39 1035 996 c 0
 1035 725.67 825 576 477 576 c 2
 310.5 576 l 1
 310.5 716 l 1
 427 716 l 2
 719.645 716 843 800.758 843 996 c 0
 843 1159.76 737.649 1270 520 1270 c 0
 454.08 1270 363 1256 312 1238 c 1
361 1340 m 1
 361 -0 l 1
 180 0 l 17
 180 1372 l 1
 361 1340 l 1
EndSplineSet
Layer: 3
SplineSet
269.6 640 m 1
 495.6 640 l 2
 548.6 640 602.6 641 654.6 652 c 0
 706.6 663 757.6 683 800.6 715 c 0
 843.6 747 879.6 789 903.6 836 c 0
 927.6 883 941.6 937 943.6 990 c 0
 945.6 1060 926.6 1132 885.6 1189 c 0
 845.6 1245 785.6 1285 720.6 1307 c 0
 655.6 1329 585.6 1335 516.6 1333 c 0
 381.6 1330 248.6 1306 115.6 1281 c 0
268 1348 m 1
 268 56 l 1
EndSplineSet
Substitution2: "'c2sc' Capitals to Small Capitals lookup 5-1" P.c2sc
EndChar

StartChar: Q
Encoding: 81 81 52
Width: 1449
GlyphClass: 2
InSpiro: 1
Flags: MW
AnchorPoint: "topright" 1263 1053 basechar 0 51
AnchorPoint: "ogonek" 727 0 basechar 0 52
AnchorPoint: "cedilla" 727 0 basechar 0 52
AnchorPoint: "below" 727 0 basechar 0 52
AnchorPoint: "above" 727 1409 basechar 0 0
LayerCount: 5
Fore
SplineSet
727 1409 m 0,0,1
 856 1409 856 1409 965.5 1373 c 128,-1,2
 1075 1337 1075 1337 1154.5 1272 c 128,-1,3
 1234 1207 1234 1207 1289.5 1118.5 c 128,-1,4
 1345 1030 1345 1030 1372 925 c 128,-1,5
 1399 820 1399 820 1399 703 c 0,6,7
 1399 554 1399 554 1353.5 423 c 128,-1,8
 1308 292 1308 292 1217 190 c 128,-1,9
 1126 88 1126 88 1000 34 c 1,10,11
 1028 19 1028 19 1084.5 -15.5 c 128,-1,12
 1141 -50 1141 -50 1176 -70 c 128,-1,13
 1211 -90 1211 -90 1265.5 -111.5 c 128,-1,14
 1320 -133 1320 -133 1372 -142 c 1,15,-1
 1319 -272 l 1,16,17
 1254 -261 1254 -261 1190 -232.5 c 128,-1,18
 1126 -204 1126 -204 1073 -171 c 128,-1,19
 1020 -138 1020 -138 966.5 -106 c 128,-1,20
 913 -74 913 -74 849.5 -49 c 128,-1,21
 786 -24 786 -24 721 -18 c 0,22,23
 590 -17 590 -17 479.5 19.5 c 128,-1,24
 369 56 369 56 289.5 121 c 128,-1,25
 210 186 210 186 154.5 275.5 c 128,-1,26
 99 365 99 365 72 473 c 128,-1,27
 45 581 45 581 45 703 c 0,28,29
 45 855 45 855 90.5 984 c 128,-1,30
 136 1113 136 1113 220.5 1207.5 c 128,-1,31
 305 1302 305 1302 435 1355.5 c 128,-1,32
 565 1409 565 1409 727 1409 c 0,0,1
  Spiro
    727 1409 o
    851.125 1400 o
    965.5 1373 o
    1067.5 1329.75 o
    1154.5 1272 o
    1228 1201.12 o
    1289.5 1118.5 o
    1337.88 1025.88 o
    1372 925 o
    1392.25 817 o
    1399 703 o
    1387.62 558.5 o
    1353.5 423 o
    1296.62 299.25 o
    1217 190 o
    1117.25 100 o
    1000 34 v
    1035.12 14.125 o
    1084.5 -15.5 o
    1176 -70 o
    1215.88 -90.375 o
    1265.5 -111.5 o
    1319.38 -129.875 o
    1372 -142 v
    1319 -272 v
    1254.25 -256.625 o
    1190 -232.5 o
    1128.75 -202.875 o
    1073 -171 o
    966.5 -106 o
    910.5 -75.75 o
    849.5 -49 o
    785.625 -28.75 o
    721 -18 o
    595.125 -8.125 o
    479.5 19.5 o
    376.75 63.125 o
    289.5 121 o
    216 192.125 o
    154.5 275.5 o
    106.125 369.625 o
    72 473 o
    51.75 584.5 o
    45 703 o
    56.375 849.25 o
    90.5 984 o
    145.75 1104.38 o
    220.5 1207.5 o
    316.375 1291.75 o
    435 1355.5 o
    573 1395.62 o
    0 0 z
  EndSpiro
727 1271 m 0,33,34
 573 1271 573 1271 460.5 1196 c 128,-1,35
 348 1121 348 1121 292.5 994 c 128,-1,36
 237 867 237 867 237 703 c 0,37,38
 237 537 237 537 291 408 c 128,-1,39
 345 279 345 279 457.5 201 c 128,-1,40
 570 123 570 123 727 123 c 0,41,42
 840 123 840 123 932.5 170 c 128,-1,43
 1025 217 1025 217 1085 297 c 128,-1,44
 1145 377 1145 377 1177.5 481.5 c 128,-1,45
 1210 586 1210 586 1210 703 c 0,46,47
 1210 861 1210 861 1156.5 988 c 128,-1,48
 1103 1115 1103 1115 991.5 1193 c 128,-1,49
 880 1271 880 1271 727 1271 c 0,33,34
  Spiro
    727 1271 o
    583.375 1252.25 o
    460.5 1196 o
    362.25 1108 o
    292.5 994 o
    250.875 857.75 o
    237 703 o
    250.5 546.25 o
    291 408 o
    359.625 291.75 o
    457.5 201 o
    581.125 142.5 o
    727 123 o
    834.875 134.75 o
    932.5 170 o
    1016.88 225.25 o
    1085 297 o
    1138.12 383.125 o
    1177.5 481.5 o
    1201.88 589.125 o
    1210 703 o
    1196.62 853.25 o
    1156.5 988 o
    1088.5 1102.75 o
    991.5 1193 o
    869.625 1251.5 o
    0 0 z
  EndSpiro
727 1409 m 25,50,-1
  Spiro
    727 1409 {
    0 0 z
  EndSpiro
1263 1053 m 25,51,-1
  Spiro
    1263 1053 {
    0 0 z
  EndSpiro
727 0 m 25,52,-1
  Spiro
    727 0 {
    0 0 z
  EndSpiro
EndSplineSet
Layer: 2
SplineSet
774 112 m 17
 1008 89 1136 -101 1372 -142 c 1
 1319 -272 l 17
 1083 -231 956 -41 721 -18 c 1
 774 112 l 17
  Spiro
    774 112 v
    980.405 45.1362 o
    1164.26 -63.1422 o
    1372 -142 v
    1319 -272 v
    1111.48 -193.142 o
    927.85 -84.8638 o
    721 -18 v
    0 0 z
  EndSpiro
727 1271 m 0
 411 1271 237 1027 237 703 c 0
 237 378 403 123 727 123 c 0
 1036 123 1210 393 1210 703 c 0
 1210 1013 1044 1271 727 1271 c 0
  Spiro
    727 1271 o
    459.736 1195.89 o
    293.702 994.007 o
    237 703 o
    291.927 408.443 o
    456.181 200.999 o
    727 123 o
    989.341 204.327 o
    1153.56 415.11 o
    1210 703 o
    1155.33 987.785 o
    992.896 1192.78 o
    0 0 z
  EndSpiro
727 1409 m 0
 1168 1409 1399 1090 1399 703 c 0
 1399 316 1157 -18 727 -18 c 0
 276 -18 45 297 45 703 c 0
 45 1108 287 1409 727 1409 c 0
  Spiro
    727 1409 o
    1096.92 1312.15 o
    1322.93 1057.72 o
    1399 703 o
    1320.49 344.395 o
    1092.03 82.7346 o
    727 -18 o
    350.044 78.5187 o
    121.44 335.95 o
    45 703 o
    123.881 1065.72 o
    354.933 1316.14 o
    0 0 z
  EndSpiro
EndSplineSet
Layer: 3
SplineSet
748 47 m 0
 802.781 40.309 856.407 25.0468 907 3 c 0
 955.453 -18.1144 1001 -45.2848 1046 -73 c 0
 1091.79 -101.199 1137.53 -129.7 1186 -153 c 0
 1236.87 -177.455 1290.63 -196.045 1346 -207 c 0
  Spiro
    748 47 {
    907 3 o
    1046 -73 o
    1186 -153 o
    1346 -207 o
    0 0 z
  EndSpiro
727 1341 m 0
 1135 1341 1306 1018 1306 703 c 0
 1306 389 1130 53 727 53 c 0
 313 53 141 373 141 703 c 0
 141 1034 323 1341 727 1341 c 0
  Spiro
    727 1341 o
    1058.19 1245.77 o
    1246.68 1008.12 o
    1306 703 o
    1245.57 395.215 o
    1055.96 151.557 o
    727 53 o
    391.335 148.006 o
    200.804 388.104 o
    141 703 o
    203.022 1015.23 o
    395.779 1249.32 o
    0 0 z
  EndSpiro
EndSplineSet
Substitution2: "'c2sc' Capitals to Small Capitals lookup 5-1" Q.c2sc
EndChar

StartChar: R
Encoding: 82 82 53
Width: 1045
GlyphClass: 2
Flags: MW
AnchorPoint: "ogonek" 997 0 basechar 0 34
AnchorPoint: "above" 548 1409 basechar 0 32
AnchorPoint: "below" 548 0 basechar 0 35
AnchorPoint: "cedilla" 997 0 basechar 0 34
AnchorPoint: "topright" 900 1053 basechar 0 33
LayerCount: 5
Back
SplineSet
1079 0 m 1,0,-1
 878 0 l 1,1,-1
 361 628 l 1,2,-1
 361 0 l 1,3,-1
 180 0 l 1,4,-1
 180 1372 l 1,5,6
 367 1409 367 1409 500 1409 c 0,7,8
 732 1409 732 1409 863 1302.5 c 128,-1,9
 994 1196 994 1196 994 1030 c 0,10,11
 994 866 994 866 876 757 c 128,-1,12
 758 648 758 648 559 631 c 1,13,-1
 1079 0 l 1,0,-1
  Spiro
    1079 0 v
    878 0 v
    361 628 v
    361 0 v
    180 0 v
    180 1372 v
    353.5 1399.75 o
    500 1409 o
    706.75 1382.38 o
    863 1302.5 o
    961.25 1181.12 o
    994 1030 o
    964.5 879.75 o
    876 757 o
    737.75 671 o
    559 631 v
    0 0 z
  EndSpiro
361 1252 m 1,14,-1
 361 768 l 1,15,-1
 386 768 l 2,16,17
 802 768 802 768 802 1024 c 0,18,19
 802 1133 802 1133 708.5 1201.5 c 128,-1,20
 615 1270 615 1270 491 1270 c 0,21,22
 457 1270 457 1270 416 1263.5 c 128,-1,23
 375 1257 375 1257 361 1252 c 1,14,-1
  Spiro
    361 1252 v
    361 768 v
    386 768 ]
    698 832 o
    802 1024 o
    778.625 1122.88 o
    708.5 1201.5 o
    607.375 1252.88 o
    491 1270 o
    455.25 1268.38 o
    416 1263.5 o
    381.75 1257.38 o
    0 0 z
  EndSpiro
548 1409 m 25,24,-1
  Spiro
    548 1409 {
    0 0 z
  EndSpiro
900 1053 m 25,25,-1
  Spiro
    900 1053 {
    0 0 z
  EndSpiro
997 0 m 25,26,-1
  Spiro
    997 0 {
    0 0 z
  EndSpiro
548 0 m 25,27,-1
  Spiro
    548 0 {
    0 0 z
  EndSpiro
EndSplineSet
Fore
SplineSet
802 1016 m 0,0,1
 802 1134 802 1134 713 1202 c 128,-1,2
 624 1270 624 1270 495 1270 c 0,3,4
 428 1270 428 1270 361 1250 c 1,5,-1
 361 768 l 1,6,-1
 389 768 l 2,7,8
 802 768 802 768 802 1016 c 0,0,1
880 0 m 1,9,-1
 689 356 l 2,10,11
 628 469 628 469 553 538.5 c 128,-1,12
 478 608 478 608 361 637 c 1,13,-1
 361 0 l 1,14,-1
 180 0 l 1,15,-1
 180 1372 l 1,16,17
 340 1409 340 1409 477 1409 c 0,18,19
 561 1409 561 1409 635.5 1396 c 128,-1,20
 710 1383 710 1383 776.5 1354 c 128,-1,21
 843 1325 843 1325 891 1282 c 128,-1,22
 939 1239 939 1239 966.5 1174 c 128,-1,23
 994 1109 994 1109 994 1029 c 0,24,25
 994 880 994 880 901 788 c 128,-1,26
 808 696 808 696 655 664 c 1,27,28
 778 575 778 575 867 408 c 2,29,-1
 1086 0 l 1,30,-1
 880 0 l 1,9,-1
180 0 m 1,31,-1
  Spiro
    1079 0 v
    878 0 v
    361 628 v
    361 0 v
    180 0 v
    180 1372 v
    353.5 1399.75 o
    500 1409 o
    706.75 1382.38 o
    863 1302.5 o
    961.25 1181.12 o
    994 1030 o
    964.5 879.75 o
    876 757 o
    737.75 671 o
    559 631 v
    0 0 z
  EndSpiro
548 1409 m 25,32,-1
  Spiro
    548 1409 {
    0 0 z
  EndSpiro
900 1053 m 25,33,-1
  Spiro
    900 1053 {
    0 0 z
  EndSpiro
997 0 m 25,34,-1
  Spiro
    997 0 {
    0 0 z
  EndSpiro
548 0 m 25,35,-1
  Spiro
    548 0 {
    0 0 z
  EndSpiro
EndSplineSet
Layer: 2
SplineSet
1081 0 m 1
 877 0 l 1
 686 355 l 2
 617 484 519 618 335 631 c 1
 358 683 l 1
 434 762 l 1
 646 713 770 578 862 407 c 2
 1081 0 l 1
256 1292 m 2
 180 1372 l 1
 283 1399 409 1410 495 1410 c 0
 769 1410 994 1248 994 1016 c 0
 994 698 637 634 408 634 c 2
 297 634 l 1
 297 768 l 1
 408 768 l 2
 605 768 802 808 802 1016 c 0
 802 1180 657 1270 495 1270 c 0
 455 1270 369 1259 310 1234 c 1
 294 1254 274 1273 256 1292 c 2
361 1340 m 1
 361 -0 l 1
 180 0 l 17
 180 1372 l 1
 361 1340 l 1
1079 0 m 1
 878 0 l 1
 332 662 l 1
 449 765 l 1
 1079 0 l 1
EndSplineSet
Layer: 3
SplineSet
256 1292 m 1
 323 1320 432 1340 495 1340 c 0
 713 1340 898 1214 898 1016 c 0
 898 753 621 698 408 698 c 2
 297 698 l 1
976 0 m 1
 771 382 l 2
 743.79 432.704 715.26 483.124 678.27 527.21 c 0
 611.51 606.798 516.82 668.995 402 696 c 0
  Spiro
    976 0 {
    771 382 ]
    547 638 c
    402 696 o
    0 0 z
  EndSpiro
271 1372 m 1
 271 0 l 1
  Spiro
    271 1372 {
    271 0 v
    0 0 z
  EndSpiro
978.5 0 m 1
 405 696.5 l 1
  Spiro
    978.5 0 {
    405 696.5 o
    0 0 z
  EndSpiro
EndSplineSet
Substitution2: "'c2sc' Capitals to Small Capitals lookup 5-1" R.c2sc
EndChar

StartChar: S
Encoding: 83 83 54
Width: 1007
GlyphClass: 2
InSpiro: 1
Flags: MW
AnchorPoint: "topright" 772 1053 basechar 0 59
AnchorPoint: "cedilla" 504 0 basechar 0 60
AnchorPoint: "below" 504 0 basechar 0 60
AnchorPoint: "above" 504 1409 basechar 0 58
AnchorPoint: "ogonek" 504 0 basechar 0 60
LayerCount: 5
Fore
SplineSet
157 253 m 1,0,1
 185 233 185 233 208.5 214 c 128,-1,2
 232 195 232 195 262 178.5 c 128,-1,3
 292 162 292 162 324 149.5 c 128,-1,4
 356 137 356 137 401 129.5 c 128,-1,5
 446 122 446 122 499 122 c 0,6,7
 558 122 558 122 602.5 141.5 c 128,-1,8
 647 161 647 161 671.5 192.5 c 128,-1,9
 696 224 696 224 707.5 259.5 c 128,-1,10
 719 295 719 295 719 332 c 0,11,12
 719 373 719 373 706.5 407 c 128,-1,13
 694 441 694 441 668.5 469 c 128,-1,14
 643 497 643 497 614.5 517.5 c 128,-1,15
 586 538 586 538 546 561 c 2,16,-1
 392 642 l 2,17,18
 346 667 346 667 311.5 691 c 128,-1,19
 277 715 277 715 240.5 750.5 c 128,-1,20
 204 786 204 786 180.5 825.5 c 128,-1,21
 157 865 157 865 142 920.5 c 128,-1,22
 127 976 127 976 127 1040 c 0,23,24
 127 1199 127 1199 230 1304 c 128,-1,25
 333 1409 333 1409 498 1409 c 0,26,27
 603 1409 603 1409 686.5 1382 c 128,-1,28
 770 1355 770 1355 819 1317 c 1,29,-1
 781 1179 l 1,30,31
 662 1271 662 1271 511 1271 c 0,32,33
 426 1271 426 1271 372.5 1208 c 128,-1,34
 319 1145 319 1145 319 1046 c 0,35,36
 319 1001 319 1001 333.5 963.5 c 128,-1,37
 348 926 348 926 377 896.5 c 128,-1,38
 406 867 406 867 437.5 845.5 c 128,-1,39
 469 824 469 824 514 800 c 2,40,-1
 671 720 l 2,41,42
 713 697 713 697 745.5 674.5 c 128,-1,43
 778 652 778 652 810.5 619.5 c 128,-1,44
 843 587 843 587 864 550.5 c 128,-1,45
 885 514 885 514 898 464.5 c 128,-1,46
 911 415 911 415 911 357 c 0,47,48
 911 200 911 200 802 91 c 128,-1,49
 693 -18 693 -18 518 -18 c 0,50,51
 463 -18 463 -18 415.5 -13 c 128,-1,52
 368 -8 368 -8 331.5 1 c 128,-1,53
 295 10 295 10 262 22.5 c 128,-1,54
 229 35 229 35 202.5 49.5 c 128,-1,55
 176 64 176 64 148.5 80 c 128,-1,56
 121 96 121 96 96 113 c 1,57,-1
 157 253 l 1,0,1
  Spiro
    157 253 v
    183.875 233.25 o
    208.5 214 o
    233.625 195.625 o
    262 178.5 o
    292.5 163 o
    324 149.5 o
    359.25 138.25 o
    401 129.5 o
    448 123.875 o
    499 122 o
    554.375 126.875 o
    602.5 141.5 o
    642 164 o
    671.5 192.5 o
    692.75 225 o
    707.5 259.5 o
    716.125 295.375 o
    719 332 o
    715.875 371.25 o
    706.5 407 o
    690.75 439.5 o
    668.5 469 o
    642.25 495.125 o
    614.5 517.5 o
    583.125 538.625 o
    546 561 [
    392 642 ]
    348.875 666.75 o
    311.5 691 o
    276.5 717.875 o
    240.5 750.5 o
    207.25 787 o
    180.5 825.5 o
    159.125 869 o
    142 920.5 o
    130.75 978.125 o
    127 1040 o
    152.75 1185.5 o
    230 1304 o
    348.5 1382.75 o
    498 1409 o
    597.625 1402.25 o
    686.5 1382 o
    761.375 1352.25 o
    819 1317 v
    781 1179 v
    654 1248 o
    511 1271 o
    433.875 1255.25 o
    372.5 1208 o
    332.375 1136 o
    319 1046 o
    322.625 1002.88 o
    333.5 963.5 o
    351.625 928 o
    377 896.5 o
    406.625 869 o
    437.5 845.5 o
    472.375 823.375 o
    514 800 [
    671 720 ]
    710.625 697.125 o
    745.5 674.5 o
    778 649.5 o
    810.5 619.5 o
    840.125 586 o
    864 550.5 o
    883 510.75 o
    898 464.5 o
    907.75 412.875 o
    911 357 o
    883.75 212 o
    802 91 o
    676.5 9.25 o
    518 -18 o
    464.875 -16.75 o
    415.5 -13 o
    370.75 -7 o
    331.5 1 o
    295.875 10.875 o
    262 22.5 o
    230.625 35.5 o
    202.5 49.5 o
    148.5 80 o
    121.625 96.25 o
    96 113 v
    0 0 z
  EndSpiro
504 1409 m 25,58,-1
  Spiro
    504 1409 {
    0 0 z
  EndSpiro
772 1053 m 25,59,-1
  Spiro
    772 1053 {
    0 0 z
  EndSpiro
504 0 m 25,60,-1
  Spiro
    504 0 {
    0 0 z
  EndSpiro
EndSplineSet
Layer: 2
SplineSet
157 253 m 17
 244 187 315 122 499 122 c 0
 664 122 719 239 719 332 c 0
 719 445 643 507 546 561 c 2
 392 642 l 2
 255 717 127 818 127 1040 c 0
 127 1248 274 1409 498 1409 c 0
 649 1409 762 1362 819 1317 c 9
 781 1179 l 17
 732 1217 638 1271 511 1271 c 0
 398 1271 319 1177 319 1046 c 0
 319 920 406 857 514 800 c 2
 671 720 l 2
 798 650 911 556 911 357 c 0
 911 154 758 -18 518 -18 c 0
 291 -18 203 47 96 113 c 9
 157 253 l 17
  Spiro
    157 253 v
    243.354 189.762 o
    348.012 141.26 o
    499 122 o
    629.273 155.715 o
    698.672 236.316 o
    719 332 o
    695.748 429.509 o
    633.886 502.805 o
    546 561 [
    392 642 ]
    262.525 729.082 o
    165.187 854.967 o
    127 1040 o
    173.317 1227.95 o
    302.424 1359.65 o
    498 1409 o
    635.543 1395.17 o
    744.092 1360.81 o
    819 1317 v
    781 1179 v
    717.522 1219.7 o
    626.452 1255.62 o
    511 1271 o
    411.085 1241.83 o
    343.619 1162.46 o
    319 1046 o
    345.505 938.979 o
    415.531 861.044 o
    514 800 [
    671 720 ]
    789.56 639.095 o
    877.064 523.862 o
    911 357 o
    862.539 169.722 o
    726.381 34.0122 o
    518 -18 o
    331.633 1.26009 o
    202.407 49.7619 o
    96 113 v
    0 0 z
  EndSpiro
EndSplineSet
Layer: 3
SplineSet
79.2 223.2 m 0
 129.514 169.757 191.478 127.509 259.2 99.2 c 0
 337.615 66.4214 423.024 50.4194 508 52 c 0
 549.352 52.7692 590.86 58.2318 630.058 71.4238 c 0
 669.257 84.6159 705.93 105.98 735.2 135.2 c 0
 762.26 162.214 782.725 195.575 795.83 231.495 c 0
 808.935 267.415 815.043 305.764 815 344 c 0
 814.927 409.444 795.44 475.59 755.2 527.2 c 0
 716.91 576.309 662.651 610.149 608 640 c 0
 556.838 667.946 504.478 693.64 453 721 c 0
 418.249 739.47 383.742 758.706 352.179 782.212 c 0
 320.616 805.718 292.276 833.965 271.2 867.2 c 0
 238.246 919.166 224.102 981.476 223 1043 c 0
 222.318 1081.04 226.364 1119.32 237.079 1155.82 c 0
 247.793 1192.32 265.722 1226.95 291.2 1255.2 c 0
 317.513 1284.38 351.542 1306.2 388.418 1319.76 c 0
 425.295 1333.32 464.722 1339.06 504 1340 c 0
 568.728 1341.55 633.596 1331.13 695.2 1311.2 c 0
 753.894 1292.21 809.555 1263.82 859.2 1227.2 c 0
  Spiro
    79.2 223.2 {
    259.2 99.2 o
    508 52 o
    735.2 135.2 o
    815 344 o
    755.2 527.2 o
    608 640 o
    453 721 o
    271.2 867.2 o
    223 1043 o
    291.2 1255.2 o
    504 1340 o
    695.2 1311.2 o
    859.2 1227.2 o
    0 0 z
  EndSpiro
EndSplineSet
Substitution2: "'c2sc' Capitals to Small Capitals lookup 5-1" S.c2sc
EndChar

StartChar: T
Encoding: 84 84 55
Width: 1183
GlyphClass: 2
Flags: MW
AnchorPoint: "above" 591 1409 basechar 0 8
AnchorPoint: "ogonek" 591 0 basechar 0 10
AnchorPoint: "below" 591 0 basechar 0 10
AnchorPoint: "cedilla" 591 0 basechar 0 10
AnchorPoint: "topright" 1008 1053 basechar 0 9
LayerCount: 5
Fore
SplineSet
57 1391 m 5,0,-1
 1126 1391 l 1,1,-1
 1126 1252 l 1,2,-1
 682 1252 l 1,3,-1
 682 0 l 1,4,-1
 501 0 l 1,5,-1
 501 1252 l 1,6,-1
 57 1252 l 1,7,-1
 57 1391 l 5,0,-1
591 1409 m 25,8,-1
1008 1053 m 25,9,-1
591 0 m 25,10,-1
EndSplineSet
Layer: 2
SplineSet
57 1391 m 1
 1126 1391 l 1
 1126 1252 l 1
 57 1252 l 1
 57 1391 l 1
682 1344 m 9
 682 0 l 25
 501 0 l 17
 501 1344 l 17
 682 1344 l 9
EndSplineSet
Layer: 3
SplineSet
592 1344 m 17
 592 0 l 1
57 1322 m 9
 1126 1322 l 17
EndSplineSet
Substitution2: "'c2sc' Capitals to Small Capitals lookup 5-1" T.c2sc
EndChar

StartChar: U
Encoding: 85 85 56
Width: 1310
GlyphClass: 2
Flags: MW
AnchorPoint: "above" 655 1392 basechar 0 19
AnchorPoint: "below" 655 0 basechar 0 17
AnchorPoint: "cedilla" 655 0 basechar 0 17
AnchorPoint: "ogonek" 655 0 basechar 0 17
AnchorPoint: "topright" 1048 1053 basechar 0 18
LayerCount: 5
Fore
SplineSet
361 486 m 2,0,1
 361 299 361 299 447 211 c 128,-1,2
 533 123 533 123 681 123 c 0,3,4
 814 123 814 123 886.5 218.5 c 128,-1,5
 959 314 959 314 959 513 c 2,6,-1
 959 1391 l 1,7,-1
 1130 1391 l 1,8,-1
 1130 469 l 2,9,10
 1130 248 1130 248 1012 115 c 128,-1,11
 894 -18 894 -18 681 -18 c 0,12,13
 180 -18 180 -18 180 438 c 2,14,-1
 180 1391 l 1,15,-1
 361 1391 l 1,16,-1
 361 486 l 2,0,1
655 0 m 25,17,-1
1048 1053 m 25,18,-1
655 1392 m 25,19,-1
EndSplineSet
Layer: 2
SplineSet
361 486 m 2
 361 204 513 123 681 123 c 0
 853 123 959 240 959 513 c 2
 959 1391 l 1
 1130 1391 l 1
 1130 469 l 2
 1130 180 970 -18 681 -18 c 0
 374 -18 180 109 180 438 c 2
 180 1391 l 1
 361 1391 l 1
 361 486 l 2
  Spiro
    361 486 ]
    406.543 266.717 o
    523.513 154.377 o
    681 123 o
    829.395 163.362 o
    925.214 290.729 o
    959 513 [
    959 1391 v
    1130 1391 v
    1130 469 ]
    1077.92 214.513 o
    925.652 43.917 o
    681 -18 o
    414.889 27.0182 o
    241.546 173.758 o
    180 438 [
    180 1391 v
    361 1391 v
    0 0 z
  EndSpiro
EndSplineSet
Layer: 3
SplineSet
1055 1391 m 5
 1055 513 l 4
 1055 374.8 1032.12 265.772 970.49 184.599 c 4
 909.147 103.797 785.151 53 660 53 c 4
 534.849 53 410.853 103.797 349.51 184.599 c 4
 287.884 265.772 265 374.8 265 513 c 4
 265 1391 l 5
EndSplineSet
Substitution2: "'c2sc' Capitals to Small Capitals lookup 5-1" U.c2sc
EndChar

StartChar: V
Encoding: 86 86 57
Width: 1328
GlyphClass: 2
Flags: MW
AnchorPoint: "topright" 1048 1053 basechar 0 8
AnchorPoint: "cedilla" 664 0 basechar 0 9
AnchorPoint: "below" 664 0 basechar 0 9
AnchorPoint: "above" 664 1409 basechar 0 7
AnchorPoint: "ogonek" 664 0 basechar 0 9
AnchorPoint: "center" 659 695 basechar 0 10
LayerCount: 5
Fore
SplineSet
669 248 m 1,0,-1
 1093 1391 l 1,1,-1
 1261 1391 l 1,2,-1
 739 0 l 1,3,-1
 589 0 l 1,4,-1
 67 1391 l 1,5,-1
 245 1391 l 1,6,-1
 669 248 l 1,0,-1
664 1409 m 25,7,-1
1048 1053 m 25,8,-1
664 0 m 25,9,-1
659 695 m 25,10,-1
EndSplineSet
Layer: 2
SplineSet
589 0 m 5
 659 248 l 5
 1083 1391 l 5
 1261 1391 l 13
 739 0 l 5
 589 0 l 5
739 0 m 5
 589 0 l 5
 67 1391 l 21
 245 1391 l 5
 669 248 l 5
 739 0 l 5
EndSplineSet
Substitution2: "'c2sc' Capitals to Small Capitals lookup 5-1" V.c2sc
EndChar

StartChar: W
Encoding: 87 87 58
Width: 2027
GlyphClass: 2
Flags: MW
AnchorPoint: "topright" 1772 1053 basechar 0 14
AnchorPoint: "cedilla" 1424 0 basechar 0 16
AnchorPoint: "below" 1013 0 basechar 0 15
AnchorPoint: "above" 1013 1409 basechar 0 13
AnchorPoint: "ogonek" 1424 0 basechar 0 16
LayerCount: 5
Fore
SplineSet
1792 1391 m 1,0,-1
 1960 1391 l 1,1,-1
 1499 0 l 1,2,-1
 1349 0 l 1,3,-1
 1013 1014 l 1,4,-1
 677 0 l 1,5,-1
 527 0 l 1,6,-1
 67 1391 l 1,7,-1
 245 1391 l 1,8,-1
 607 248 l 1,9,-1
 970 1391 l 1,10,-1
 1067 1391 l 1,11,-1
 1429 248 l 1,12,-1
 1792 1391 l 1,0,-1
1013 1409 m 25,13,-1
1772 1053 m 25,14,-1
1013 0 m 25,15,-1
1424 0 m 25,16,-1
EndSplineSet
Layer: 2
SplineSet
1429 248 m 5
 1792 1391 l 21
 1960 1391 l 13
 1499 0 l 13
 1349 0 l 21
 985 1100 l 5
 970 1391 l 5
 1067 1391 l 5
 1429 248 l 5
607 248 m 5
 970 1391 l 21
 1067 1391 l 5
 1063 1164 l 5
 677 0 l 13
 527 0 l 21
 67 1391 l 21
 245 1391 l 5
 607 248 l 5
EndSplineSet
Substitution2: "'c2sc' Capitals to Small Capitals lookup 5-1" W.c2sc
EndChar

StartChar: X
Encoding: 88 88 59
Width: 1288
GlyphClass: 2
Flags: MW
AnchorPoint: "topright" 892 1053 basechar 0 14
AnchorPoint: "cedilla" 1098 0 basechar 0 12
AnchorPoint: "below" 644 0 basechar 0 15
AnchorPoint: "above" 644 1409 basechar 0 13
AnchorPoint: "ogonek" 1098 0 basechar 0 12
LayerCount: 5
Fore
SplineSet
108 1392 m 1,0,-1
 319 1392 l 1,1,-1
 662 854 l 1,2,-1
 1002 1391 l 1,3,-1
 1190 1391 l 1,4,-1
 756 706 l 1,5,-1
 1204 1 l 1,6,-1
 992 1 l 1,7,-1
 633 566 l 1,8,-1
 272 -5 l 1,9,-1
 84 -5 l 1,10,-1
 539 714 l 1,11,-1
 108 1392 l 1,0,-1
1098 0 m 25,12,-1
644 1409 m 25,13,-1
892 1053 m 25,14,-1
644 0 m 25,15,-1
EndSplineSet
Layer: 2
SplineSet
1002 1391 m 21
 1190 1391 l 13
 732 668 l 9
 544 668 l 17
 1002 1391 l 21
541 718 m 17
 729 718 l 9
 272 -5 l 9
 84 -5 l 17
 541 718 l 17
1204 1 m 9
 992 1 l 17
 108 1392 l 21
 319 1392 l 5
 1204 1 l 9
EndSplineSet
Substitution2: "'c2sc' Capitals to Small Capitals lookup 5-1" X.c2sc
EndChar

StartChar: Y
Encoding: 89 89 60
Width: 1241
GlyphClass: 2
Flags: MW
AnchorPoint: "topright" 896 1053 basechar 0 10
AnchorPoint: "cedilla" 620 0 basechar 0 11
AnchorPoint: "below" 620 0 basechar 0 11
AnchorPoint: "ogonek" 620 0 basechar 0 11
AnchorPoint: "above" 620 1409 basechar 0 9
LayerCount: 5
Fore
SplineSet
1014 1391 m 1,0,-1
 1182 1391 l 1,1,-1
 711 618 l 1,2,-1
 711 0 l 1,3,-1
 530 0 l 1,4,-1
 530 619 l 1,5,-1
 59 1391 l 1,6,-1
 237 1391 l 1,7,-1
 626 754 l 1,8,-1
 1014 1391 l 1,0,-1
620 1409 m 25,9,-1
896 1053 m 25,10,-1
620 0 m 25,11,-1
EndSplineSet
Layer: 2
SplineSet
532 616 m 1
 59 1391 l 21
 237 1391 l 5
 710 616 l 1
 532 616 l 1
1014 1391 m 5
 1182 1391 l 13
 710 616 l 1
 542 616 l 1
 1014 1391 l 5
711 741 m 9
 711 0 l 25
 530 0 l 17
 530 741 l 17
 711 741 l 9
EndSplineSet
Substitution2: "'c2sc' Capitals to Small Capitals lookup 5-1" Y.c2sc
EndChar

StartChar: Z
Encoding: 90 90 61
Width: 1259
GlyphClass: 2
Flags: MW
AnchorPoint: "ogonek" 1048 0 basechar 0 8
AnchorPoint: "above" 601 1409 basechar 0 9
AnchorPoint: "below" 601 0 basechar 0 11
AnchorPoint: "cedilla" 1048 0 basechar 0 8
AnchorPoint: "topright" 808 1053 basechar 0 10
LayerCount: 5
Fore
SplineSet
87 1391 m 1,0,-1
 1116 1391 l 1,1,-1
 320 139 l 1,2,-1
 1116 139 l 1,3,-1
 1116 -1 l 1,4,-1
 50 0 l 1,5,-1
 846 1252 l 1,6,-1
 87 1252 l 1,7,-1
 87 1391 l 1,0,-1
1048 0 m 25,8,-1
601 1409 m 25,9,-1
808 1053 m 25,10,-1
601 0 m 25,11,-1
EndSplineSet
Layer: 2
SplineSet
168 139 m 1
 1116 139 l 1
 1116 -1 l 1
 50 0 l 1
 168 139 l 1
87 1391 m 1
 1116 1391 l 1
 980 1252 l 1
 87 1252 l 1
 87 1391 l 1
50 0 m 17
 935 1391 l 1
 1116 1391 l 9
 232 0 l 9
 50 0 l 17
EndSplineSet
Substitution2: "'c2sc' Capitals to Small Capitals lookup 5-1" Z.c2sc
EndChar

StartChar: bracketleft
Encoding: 91 91 62
Width: 581
GlyphClass: 2
Flags: MW
LayerCount: 5
Fore
SplineSet
100 -490 m 1,0,-1
 100 1475 l 1,1,-1
 522 1475 l 1,2,-1
 522 1347 l 1,3,-1
 261 1347 l 1,4,-1
 261 -362 l 1,5,-1
 522 -362 l 1,6,-1
 522 -490 l 1,7,-1
 100 -490 l 1,0,-1
EndSplineSet
Layer: 2
SplineSet
100 -490 m 1
 100 1475 l 1
 522 1475 l 1
 522 1347 l 1
 261 1347 l 1
 261 -362 l 1
 522 -362 l 1
 522 -490 l 1
 100 -490 l 1
EndSplineSet
EndChar

StartChar: backslash
Encoding: 92 92 63
Width: 645
GlyphClass: 2
Flags: MW
LayerCount: 5
Fore
SplineSet
152 1475 m 1,0,-1
 621 0 l 1,1,-1
 493 0 l 1,2,-1
 24 1475 l 1,3,-1
 152 1475 l 1,0,-1
EndSplineSet
Layer: 2
SplineSet
152 1475 m 9
 621 0 l 9
 493 0 l 17
 24 1475 l 17
 152 1475 l 9
EndSplineSet
EndChar

StartChar: bracketright
Encoding: 93 93 64
Width: 581
GlyphClass: 2
Flags: MW
LayerCount: 5
Fore
SplineSet
522 -490 m 1,0,-1
 100 -490 l 1,1,-1
 100 -362 l 1,2,-1
 361 -362 l 1,3,-1
 361 1347 l 1,4,-1
 100 1347 l 1,5,-1
 100 1475 l 1,6,-1
 522 1475 l 1,7,-1
 522 -490 l 1,0,-1
EndSplineSet
Layer: 2
SplineSet
522 -490 m 1
 100 -490 l 1
 100 -362 l 1
 361 -362 l 1
 361 1347 l 1
 100 1347 l 1
 100 1475 l 1
 522 1475 l 1
 522 -490 l 1
EndSplineSet
EndChar

StartChar: asciicircum
Encoding: 94 94 65
Width: 1085
GlyphClass: 2
Flags: MW
LayerCount: 5
Fore
SplineSet
600 1409 m 1,0,-1
 1015 828 l 1,1,-1
 915 795 l 1,2,-1
 540 1310 l 1,3,-1
 165 795 l 1,4,-1
 65 828 l 1,5,-1
 480 1409 l 1,6,-1
 600 1409 l 1,0,-1
EndSplineSet
Layer: 2
SplineSet
600 1409 m 25
 1015 828 l 25
 915 795 l 25
 540 1310 l 25
 165 795 l 25
 65 828 l 25
 480 1409 l 25
 600 1409 l 25
EndSplineSet
EndChar

StartChar: underscore
Encoding: 95 95 66
Width: 1048
GlyphClass: 2
Flags: MW
LayerCount: 5
Fore
SplineSet
983 -297 m 1,0,-1
 65 -297 l 1,1,-1
 65 -188 l 1,2,-1
 983 -188 l 1,3,-1
 983 -297 l 1,0,-1
EndSplineSet
Layer: 2
SplineSet
983 -297 m 25
 65 -297 l 25
 65 -188 l 17
 983 -188 l 9
 983 -297 l 25
EndSplineSet
EndChar

StartChar: grave
Encoding: 96 96 67
Width: 491
GlyphClass: 2
Flags: MW
LayerCount: 5
Fore
SplineSet
10 1475 m 1,0,-1
 198 1475 l 1,1,-1
 360 1100 l 1,2,-1
 249 1100 l 1,3,-1
 10 1475 l 1,0,-1
EndSplineSet
Layer: 2
SplineSet
10 1475 m 25
 198 1475 l 25
 341 1144 l 25
 249 1100 l 25
 10 1475 l 25
EndSplineSet
EndChar

StartChar: a
Encoding: 97 97 68
Width: 894
GlyphClass: 2
Flags: MW
AnchorPoint: "center" 439 956 basechar 0 48
AnchorPoint: "topright" 774 828 basechar 0 52
AnchorPoint: "ogonek" 720 0 basechar 0 51
AnchorPoint: "cedilla" 693 0 basechar 0 49
AnchorPoint: "below" 439 0 basechar 0 50
AnchorPoint: "above" 439 956 basechar 0 48
LayerCount: 5
Fore
SplineSet
511 469 m 25,0,-1
611 416 m 1,1,-1
 605 416 l 2,2,3
 497 416 497 416 413 397.5 c 256,4,5
 329 379 329 379 275.5 338.5 c 128,-1,6
 222 298 222 298 222 239 c 0,7,8
 222 190 222 190 260 148 c 128,-1,9
 298 106 298 106 376 106 c 0,10,11
 489.08017273 106 489.08017273 106 546.395092253 163.825088328 c 256,12,13
 603.710011777 221.650176655 603.710011777 221.650176655 611 331 c 1,14,-1
 611 416 l 1,1,-1
145 890 m 1,15,16
 340.294 955.197 340.294 955.197 444 955.998 c 0,17,18
 555 955.998 555 955.998 638 897.499 c 128,-1,19
 721 839 721 839 750 727 c 0,20,21
 766 664 766 664 766 467 c 2,22,-1
 766 160 l 2,23,24
 766 72 766 72 780 0 c 1,25,-1
 624 0 l 9,26,27
 610 44 610 44 611 100 c 1,28,29
 571.224968405 52.2699620856 571.224968405 52.2699620856 512.612484202 17.1349810428 c 256,30,31
 454 -18 454 -18 356 -18 c 3,32,33
 226 -18 226 -18 151 50.75 c 128,-1,34
 76 119.5 76 119.5 76 235 c 0,35,36
 76 356.789473684 76 356.789473684 171.869781312 423.393742806 c 128,-1,37
 267.739562624 489.998011928 267.739562624 489.998011928 399 515 c 0,38,39
 474 529 474 529 593 529 c 2,40,-1
 611 529 l 1,41,-1
 611 633 l 2,42,43
 611 743.210526316 611 743.210526316 565.722222222 786.105263158 c 128,-1,44
 520.444444444 829 520.444444444 829 420 829 c 0,45,46
 292 829 292 829 153 765 c 1,47,-1
 145 890 l 1,15,16
439 956 m 25,48,-1
693 0 m 25,49,-1
439 0 m 25,50,-1
720 0 m 25,51,-1
774 828 m 25,52,-1
EndSplineSet
Layer: 2
SplineSet
766 160 m 2
 766 101.333 770.667 48 780 0 c 1
 624 0 l 9
 624 0 610.333 62.6667 611 100 c 1
 611 599 l 1
 611 610 611 622 611 633 c 0
 611 709 609 827 420 827 c 0
 353 827 251 810 153 765 c 1
 145 890 l 1
 288 940 384 956 444 956 c 0
 584 956 710 882 750 727 c 0
 764 672 767 614 767 556 c 0
 767 526 766 497 766 467 c 2
 766 160 l 2
  Spiro
    766 160 ]
    767.553 103.166 o
    772.229 49.7261 o
    780 0 v
    624 0 v
    620.487 17.5976 o
    614.068 57.5259 o
    611 100 v
    611 599 v
    611 633 [
    603.503 716.988 o
    553.434 793.653 o
    420 827 o
    342.864 820.938 o
    250.793 801.047 o
    153 765 v
    145 890 v
    272.628 929.304 o
    371.678 950.013 o
    444 956 o
    576.544 931.124 o
    684.089 855.157 o
    750 727 o
    760.622 671.168 o
    765.707 613.831 o
    767 556 o
    766.741 526.289 o
    766.259 496.711 o
    766 467 [
    0 0 z
  EndSpiro
222 239 m 0
 222 186 260 106 376 106 c 0
 627 106 612 329 612 380 c 2
 612 386 l 1
 612 416 l 1
 702 404 l 1
 702 368 l 2
 702 304 685 144 556 48 c 0
 485 -5 424 -18 356 -18 c 0
 132 -18 76 145 76 235 c 0
 76 403 240 486 399 515 c 0
 463 527 528 529 593 529 c 2
 666 529 l 1
 672 416 l 1
 605 416 l 2
 397 416 222 361 222 239 c 0
  Spiro
    222 239 o
    236.118 181.022 o
    284.587 128.662 o
    376 106 o
    548.636 165.599 o
    606.614 286.418 o
    612 380 [
    612 386 v
    612 416 v
    702 404 v
    702 368 ]
    692.837 278.036 o
    651.12 159.287 o
    556 48 o
    487.77 7.36268 o
    422.231 -12.6783 o
    356 -18 o
    183.976 27.5102 o
    98.7651 129.52 o
    76 235 o
    124.317 375.7 o
    244.736 466.92 o
    399 515 o
    463.232 523.957 o
    528.102 528.039 o
    593 529 [
    666 529 v
    672 416 v
    605 416 ]
    413.43 397.26 o
    274.973 339.032 o
    0 0 z
  EndSpiro
EndSplineSet
Layer: 3
SplineSet
610 384 m 1
 610 312 l 2
 610 284.541 609.558 256.891 604 230 c 0
 593.626 179.804 564.32 134.149 524 102.5 c 0
 480.404 68.28 425.419 48.616 370 48 c 0
 313.553 47.3725 257.009 67.4369 214 104 c 0
  Spiro
    610 384 {
    610 312 ]
    604 230 o
    524 102.5 o
    370 48 o
    214 104 o
    0 0 z
  EndSpiro
676 474 m 1
 626 474 l 2
 558.469 474 490.663 472.79 424 462 c 0
 355.863 450.972 287.141 430.049 234 386 c 0
 210.904 366.856 191.199 343.419 177.568 316.697 c 0
 163.937 289.974 156.525 259.995 157 230 c 0
 157.751 182.607 179.142 136.118 214 104 c 0
 255.574 65.6943 313.47 48.2996 370 48 c 0
 428.742 47.6886 487.177 64.5425 538 94 c 0
 575.849 115.938 609.981 144.402 638 178 c 0
 657.392 201.253 673.549 227.508 682.986 256.277 c 0
 692.423 285.047 694 315.722 694 346 c 2
 694 402 l 1
  Spiro
    676 474 {
    626 474 ]
    424 462 o
    234 386 o
    157 230 o
    214 104 o
    370 48 o
    538 94 o
    638 178 o
    694 346 [
    694 402 v
    0 0 z
  EndSpiro
100 816 m 0
 144.482 835.985 190.718 852.063 238 864 c 0
 295.757 878.581 355.099 887.709 414.667 888 c 0
 417.284 888.006 l 0
 463.657 888.006 510.648 881.925 553.141 863.418 c 0
 596.434 844.563 633.819 811.686 656 770 c 0
 669.977 743.732 678.041 714.595 681.999 685.104 c 0
 685.957 655.614 686 625.755 686 596 c 2
 686 150 l 2
 686 110.869 686.638 71.5596 693.218 32.9861 c 0
 699.798 -5.58745 712.033 -43.2382 730 -78 c 0
  Spiro
    100 816 {
    238 864 o
    414.667 888 o
    656 770 o
    686 596 [
    686 150 ]
    730 -78 o
    0 0 z
  EndSpiro
EndSplineSet
Substitution2: "'smcp' Lowercase to Single Small Capitals-1" A.c2sc
EndChar

StartChar: b
Encoding: 98 98 69
Width: 1059
GlyphClass: 2
Flags: MW
AnchorPoint: "ogonek" 555 0 basechar 0 34
AnchorPoint: "topright" 841 828 basechar 0 35
AnchorPoint: "above" 244 1475 basechar 0 36
AnchorPoint: "below" 555 0 basechar 0 34
AnchorPoint: "cedilla" 555 0 basechar 0 34
LayerCount: 5
Fore
SplineSet
594 828 m 0,0,1
 431 827 431 827 325 648 c 1,2,-1
 325 148 l 1,3,4
 383 111 383 111 490 111 c 0,5,6
 576 111 576 111 643.5 141 c 128,-1,7
 711 171 711 171 753 223 c 128,-1,8
 795 275 795 275 816.5 343 c 128,-1,9
 838 411 838 411 838 490 c 0,10,11
 838 582 838 582 816.5 650.5 c 128,-1,12
 795 719 795 719 758.5 756 c 128,-1,13
 722 793 722 793 681 810.5 c 128,-1,14
 640 828 640 828 594 828 c 0,0,1
  Spiro
    594 828 o
    445.25 782.5 o
    325 648 v
    325 148 v
    395.25 120.25 o
    490 111 o
    571.375 118.5 o
    643.5 141 o
    704.625 176.5 o
    753 223 o
    789.875 279 o
    816.5 343 o
    832.625 413.75 o
    838 490 o
    832.625 576.125 o
    816.5 650.5 o
    791.25 711.125 o
    758.5 756 o
    720.875 788.125 o
    681 810.5 o
    638.75 823.625 o
    0 0 z
  EndSpiro
606 956 m 0,15,16
 684 956 684 956 753 928.5 c 128,-1,17
 822 901 822 901 878 846 c 128,-1,18
 934 791 934 791 966.5 697.5 c 128,-1,19
 999 604 999 604 999 482 c 0,20,21
 999 387 999 387 970.5 304.5 c 128,-1,22
 942 222 942 222 894.5 164 c 128,-1,23
 847 106 847 106 785.5 64 c 128,-1,24
 724 22 724 22 658 2 c 128,-1,25
 592 -18 592 -18 526 -18 c 0,26,27
 323 -18 323 -18 164 80 c 1,28,-1
 164 1475 l 1,29,-1
 325 1475 l 1,30,-1
 325 828 l 1,31,32
 390 901 390 901 457 928.5 c 128,-1,33
 524 956 524 956 606 956 c 0,15,16
  Spiro
    606 956 o
    681.75 949.125 o
    753 928.5 o
    818.75 894.125 o
    878 846 o
    928.125 781.375 o
    966.5 697.5 o
    990.875 596.875 o
    999 482 o
    991.875 390.125 o
    970.5 304.5 o
    937.25 228.125 o
    894.5 164 o
    843.5 110 o
    785.5 64 o
    722.875 27.5 o
    658 2 o
    592 -13 o
    526 -18 o
    334 6.5 o
    164 80 v
    164 1475 v
    325 1475 v
    325 828 v
    390.5 889.625 o
    457 928.5 o
    527.75 949.125 o
    0 0 z
  EndSpiro
555 0 m 25,34,-1
  Spiro
    555 0 {
    0 0 z
  EndSpiro
841 828 m 25,35,-1
  Spiro
    841 828 {
    0 0 z
  EndSpiro
244 1475 m 25,36,-1
  Spiro
    244 1475 {
    0 0 z
  EndSpiro
EndSplineSet
Layer: 2
SplineSet
270 648 m 21
 270 900 506 956 606 956 c 7
 808 956 999 818 999 482 c 7
 999 155 742 -18 526 -18 c 7
 388 -18 268 16 164 80 c 5
 235 158.362 l 5
 325 148 l 5
 373 125 398.995 111 490 111 c 7
 725 111 838 283 838 490 c 7
 838 746 709.004 828 594 828 c 7
 462.996 828 382 744 325 648 c 5
 270 648 l 21
164 80 m 9
 164 1475 l 25
 325 1475 l 25
 325 148 l 16
 164 80 l 9
EndSplineSet
Layer: 3
SplineSet
808 798 m 0
 752.007 854.318 673.416 888.089 594 888 c 0
 536.966 887.936 479.685 870.02 434.352 835.41 c 0
 389.02 800.801 357.304 749.943 342 695 c 0
 324.264 631.327 326 564.097 326 498 c 2
 326 408 l 1
  Spiro
    808 798 {
    594 888 o
    342 695 o
    326 498 [
    326 408 v
    0 0 z
  EndSpiro
212 144 m 0
 295.733 84.4871 397.283 49.4382 500 48 c 0
 595.935 46.6568 693.375 77.3028 766 140 c 0
 814.339 181.731 850.933 236.221 874.963 295.388 c 0
 898.993 354.555 911.378 418.193 914 482 c 0
 916.348 539.136 910.76 596.895 894 651.568 c 0
 877.239 706.241 848.565 757.695 808 798 c 0
 751.76 853.879 673.253 885.913 594 888 c 0
 531.814 889.637 469.464 873.882 414.707 844.362 c 0
 359.949 814.841 312.718 771.619 278 720 c 0
 264.828 700.415 253.433 679.635 244 658 c 0
  Spiro
    212 144 {
    500 48 o
    766 140 o
    914 482 o
    808 798 o
    594 888 o
    278 720 o
    244 658 v
    0 0 z
  EndSpiro
244 80 m 1
 244 1475 l 1
  Spiro
    244 80 {
    244 1475 v
    0 0 z
  EndSpiro
EndSplineSet
Substitution2: "'smcp' Lowercase to Single Small Capitals-1" B.c2sc
EndChar

StartChar: c
Encoding: 99 99 70
Width: 888
GlyphClass: 2
Flags: MW
AnchorPoint: "ogonek" 516 0 basechar 0 25
AnchorPoint: "cedilla" 516 0 basechar 0 25
AnchorPoint: "below" 486 0 basechar 0 24
AnchorPoint: "above" 486 956 basechar 0 22
AnchorPoint: "topright" 773 828 basechar 0 23
LayerCount: 5
Fore
SplineSet
65 476 m 0,0,1
 65 697 65 697 188 825 c 128,-1,2
 311 953 311 953 530 953 c 0,3,4
 710 953 710 953 850 857 c 1,5,-1
 775 735 l 1,6,7
 673 824 673 824 530 824 c 0,8,9
 378 824 378 824 302 731.5 c 128,-1,10
 226 639 226 639 226 476 c 0,11,12
 226 310 226 310 299.5 211 c 128,-1,13
 373 112 373 112 523 112 c 0,14,15
 664 112 664 112 772 203 c 1,16,-1
 842 80 l 1,17,18
 699 -17 699 -17 523 -17 c 0,19,20
 306 -17 306 -17 185.5 117 c 128,-1,21
 65 251 65 251 65 476 c 0,0,1
486 956 m 25,22,-1
  Spiro
    486 956 {
    0 0 z
  EndSpiro
773 828 m 17,23,-1
  Spiro
    773 828 {
    0 0 z
  EndSpiro
486 0 m 9,24,-1
  Spiro
    486 0 {
    0 0 z
  EndSpiro
516 0 m 25,25,-1
  Spiro
    516 0 {
    0 0 z
  EndSpiro
EndSplineSet
Layer: 2
SplineSet
65 476 m 4
 65 769 236 953 530 953 c 4
 656 953 770 912 850 857 c 5
 775 735 l 5
 714 788 634 824 530 824 c 4
 322 824 226 686 226 476 c 4
 226 266 315 112 523 112 c 4
 628 112 709 150 772 203 c 5
 842 80 l 5
 761 25 650 -17 523 -17 c 4
 228.187 -17 65 181.543 65 476 c 4
EndSplineSet
Layer: 3
SplineSet
866 748 m 0
 818.007 799.799 756.782 839.053 690 862 c 0
 635.511 880.723 577.605 889.072 520 888 c 0
 467.522 887.024 414.922 878.174 366.078 858.962 c 0
 317.233 839.749 272.503 809.553 238 770 c 0
 202.409 729.199 178.234 679.193 164.193 626.902 c 0
 150.151 574.612 145.312 520.139 146 466 c 0
 146.67 413.318 152.58 360.491 166.761 309.75 c 0
 180.942 259.008 204.181 210.4 238 170 c 0
 271.734 129.701 315.676 98.242 364.207 78.0748 c 0
 412.738 57.9076 465.449 48.578 518 48 c 0
 570.842 47.4188 623.773 55.572 674 72 c 0
 746.447 95.6958 813.052 137.167 866 192 c 0
  Spiro
    866 748 {
    690 862 o
    520 888 o
    238 770 o
    146 466 o
    238 170 o
    518 48 o
    674 72 o
    866 192 o
    0 0 z
  EndSpiro
EndSplineSet
Substitution2: "'smcp' Lowercase to Single Small Capitals-1" C.c2sc
EndChar

StartChar: d
Encoding: 100 100 71
Width: 1063
GlyphClass: 2
Flags: MW
AnchorPoint: "topright" 816 828 basechar 0 32
AnchorPoint: "below" 482 0 basechar 0 31
AnchorPoint: "ogonek" 816 0 basechar 0 33
AnchorPoint: "cedilla" 482 0 basechar 0 31
AnchorPoint: "above" 816 1475 basechar 0 30
LayerCount: 5
Fore
SplineSet
465 -18 m 0,0,1
 349 -18 349 -18 255 46 c 128,-1,2
 161 110 161 110 111 212.5 c 128,-1,3
 61 315 61 315 61 432 c 0,4,5
 61 665 61 665 196.5 810.5 c 128,-1,6
 332 956 332 956 533 956 c 0,7,8
 617 956 617 956 734 924 c 1,9,-1
 734 1475 l 1,10,-1
 899 1475 l 1,11,-1
 899 0 l 1,12,-1
 734 0 l 1,13,-1
 734 110 l 1,14,15
 621 -18 621 -18 465 -18 c 0,0,1
  Spiro
    465 -18 o
    354.5 -2 o
    255 46 o
    172 119.625 o
    111 212.5 o
    73.5 318.625 o
    61 432 o
    94.875 643.125 o
    196.5 810.5 o
    348.375 919.625 o
    533 956 o
    625.25 948 o
    734 924 v
    734 1475 v
    899 1475 v
    899 0 v
    734 0 v
    734 110 v
    610.25 14 o
    0 0 z
  EndSpiro
734 784 m 1,16,17
 651 828 651 828 543 828 c 0,18,19
 488 828 488 828 431.5 799.5 c 128,-1,20
 375 771 375 771 328 721.5 c 128,-1,21
 281 672 281 672 251.5 597 c 128,-1,22
 222 522 222 522 222 436 c 0,23,24
 222 297 222 297 296.5 204 c 128,-1,25
 371 111 371 111 480 111 c 0,26,27
 554 111 554 111 621 161.5 c 128,-1,28
 688 212 688 212 734 290 c 1,29,-1
 734 784 l 1,16,17
  Spiro
    734 784 v
    644.75 817 o
    543 828 o
    487.625 820.875 o
    431.5 799.5 o
    377.375 765.75 o
    328 721.5 o
    285.375 665.625 o
    251.5 597 o
    229.375 519.25 o
    222 436 o
    240.625 308.5 o
    296.5 204 o
    379.625 134.25 o
    480 111 o
    552.25 123.625 o
    621 161.5 o
    682.75 218.875 o
    734 290 v
    0 0 z
  EndSpiro
816 1475 m 25,30,-1
  Spiro
    816 1475 {
    0 0 z
  EndSpiro
482 0 m 25,31,-1
  Spiro
    482 0 {
    0 0 z
  EndSpiro
816 828 m 25,32,-1
  Spiro
    816 828 {
    0 0 z
  EndSpiro
816 0 m 25,33,-1
  Spiro
    816 0 {
    0 0 z
  EndSpiro
EndSplineSet
Layer: 2
SplineSet
60 458 m 0
 60 748 268 956 548 956 c 0
 627 956 800 924 896 858 c 1
 777 750 l 1
 735 790 l 1
 686 818 634 827 567 827 c 0
 362 827 220 676 220 435 c 0
 220 256 307 111 473 111 c 0
 618 111 722 240 768 348 c 1
 840 270 l 1
 797 164 718 71 618 21 c 0
 567 -5 512 -17 457 -17 c 0
 209 -17 60 176 60 458 c 0
734 0 m 1
 734 1475 l 1
 899 1475 l 1
 899 0 l 1
 734 0 l 1
  Spiro
    734 1475 v
    899 1475 v
    899 0 v
    734 0 v
    720 0 z
  EndSpiro
EndSplineSet
Layer: 3
SplineSet
734 384 m 1
 734 312 l 2
 734 284.54 733.625 256.878 728 230 c 0
 718.08 182.598 690.629 139.487 653 109 c 0
 601.511 67.2828 534.248 46.3517 468 48 c 0
 400.803 49.6719 334.428 75.556 284 120 c 0
  Spiro
    734 384 {
    734 312 ]
    728 230 o
    653 109 o
    468 48 o
    284 120 o
    0 0 z
  EndSpiro
834 804 m 0
 754.803 858.992 658.41 889.169 562 888 c 0
 500.977 887.26 440.002 873.975 384.737 848.088 c 0
 329.472 822.202 280.195 783.597 242 736 c 0
 181.804 660.987 150.026 565.095 146 469 c 0
 143.291 404.34 152.697 338.991 175.379 278.379 c 0
 198.06 217.767 234.582 161.786 284 120 c 0
 335.272 76.6465 400.879 49.7838 468 48 c 0
 512.846 46.8082 557.792 56.4791 598.745 74.794 c 0
 639.698 93.1089 676.765 119.798 708 152 c 0
 748.295 193.543 778.745 244.653 795.52 300.043 c 0
 812.294 355.433 813.851 414.132 813 472 c 2
 812 540 l 1
  Spiro
    834 804 {
    562 888 o
    242 736 o
    146 469 o
    284 120 o
    468 48 o
    708 152 o
    813 472 [
    812 540 o
    0 0 z
  EndSpiro
814 0 m 1
 814 1475 l 1
  Spiro
    814 0 {
    814 1475 v
    0 0 z
  EndSpiro
EndSplineSet
Substitution2: "'smcp' Lowercase to Single Small Capitals-1" D.c2sc
EndChar

StartChar: e
Encoding: 101 101 72
Width: 939
GlyphClass: 2
Flags: MW
AnchorPoint: "below" 495 0 basechar 0 42
AnchorPoint: "above" 495 956 basechar 0 39
AnchorPoint: "ogonek" 740 0 basechar 0 41
AnchorPoint: "cedilla" 495 0 basechar 0 42
AnchorPoint: "topright" 773 828 basechar 0 40
LayerCount: 5
Fore
SplineSet
500 828 m 0,0,1
 361 828 361 828 292 744 c 0,2,3
 244 686 244 686 229 580 c 1,4,-1
 714 580 l 1,5,6
 705 689 705 689 648.5 758.5 c 128,-1,7
 592 828 592 828 500 828 c 0,0,1
  Spiro
    500 828 o
    378.5 807 o
    292 744 o
    252.25 674 o
    229 580 v
    714 580 v
    693.125 679.125 o
    648.5 758.5 o
    583.125 810.625 o
    0 0 z
  EndSpiro
222 460 m 1,8,9
 224 294 224 294 310 204 c 0,10,11
 398 111 398 111 543 111 c 0,12,13
 586 111 586 111 605.5 112.5 c 128,-1,14
 625 114 625 114 675 127.5 c 128,-1,15
 725 141 725 141 795 170 c 1,16,-1
 838 55 l 1,17,18
 782 17 782 17 700.5 -0.5 c 128,-1,19
 619 -18 619 -18 546 -18 c 0,20,21
 313 -18 313 -18 187 115 c 128,-1,22
 61 248 61 248 61 469 c 0,23,24
 61 571 61 571 86 654.5 c 128,-1,25
 111 738 111 738 152 793 c 128,-1,26
 193 848 193 848 248 885.5 c 128,-1,27
 303 923 303 923 361 939.5 c 128,-1,28
 419 956 419 956 480 956 c 0,29,30
 552 956 552 956 611 938 c 128,-1,31
 670 920 670 920 709.5 891 c 128,-1,32
 749 862 749 862 779.5 821.5 c 128,-1,33
 810 781 810 781 826.5 742 c 128,-1,34
 843 703 843 703 854 658.5 c 128,-1,35
 865 614 865 614 868 582.5 c 128,-1,36
 871 551 871 551 872 520 c 1,37,-1
 848 460 l 1,38,-1
 222 460 l 1,8,9
  Spiro
    222 460 v
    245 313 o
    310 204 o
    412.25 134.25 o
    543 111 o
    580.125 111.375 o
    605.5 112.5 o
    632.625 117 o
    675 127.5 o
    730 144.875 o
    795 170 v
    838 55 v
    775.625 22.125 o
    700.5 -0.5 o
    621.125 -13.625 o
    546 -18 o
    339.75 15.25 o
    187 115 o
    92.5 270 o
    61 469 o
    67.25 566.375 o
    86 654.5 o
    115 730.875 o
    152 793 o
    196.5 843.625 o
    248 885.5 o
    303.75 917.75 o
    361 939.5 o
    419.75 951.875 o
    480 956 o
    548.75 951.5 o
    611 938 o
    665.125 917.25 o
    709.5 891 o
    746.75 859.125 o
    779.5 821.5 o
    806.5 781.375 o
    826.5 742 o
    841.625 701.625 o
    854 658.5 o
    863 617.25 o
    868 582.5 o
    870.5 551.125 o
    872 520 v
    848 460 v
    0 0 z
  EndSpiro
495 956 m 29,39,-1
  Spiro
    495 956 {
    0 0 z
  EndSpiro
773 828 m 29,40,-1
  Spiro
    773 828 {
    0 0 z
  EndSpiro
740 0 m 29,41,-1
  Spiro
    740 0 {
    0 0 z
  EndSpiro
495 0 m 29,42,-1
  Spiro
    495 0 {
    0 0 z
  EndSpiro
EndSplineSet
Layer: 2
SplineSet
848 460 m 25
 202 460 l 25
 208 580 l 25
 714 580 l 17
 848 460 l 25
714 531 m 1
 712 712 627 828 500 828 c 0
 321 828 222 729 222 469 c 0
 222 231 357 111 543 111 c 0
 605 111 646 108 795 170 c 1
 838 55 l 1
 756 0 629 -18 546 -18 c 0
 228 -18 61 183 61 469 c 0
 61 822 285 956 480 956 c 0
 828 956 870 640 872 520 c 9
 848 460 l 17
 714 531 l 1
EndSplineSet
Layer: 3
SplineSet
180 525 m 1
 775 525 l 1
 790 566 l 1
 795.185 660.921 753.165 757.306 680 818 c 0
 626.698 862.217 557.92 887.409 488.667 888 c 0
 432.93 888.476 377.232 873.197 329.206 844.906 c 0
 281.18 816.615 241.076 775.554 212 728 c 0
 164.424 650.19 145.521 557.201 146 466 c 0
 146.275 413.553 153.124 360.951 168.782 310.895 c 0
 184.441 260.839 209.433 213.445 244 174 c 0
 280.609 132.226 327.676 99.9715 379.242 79.3274 c 0
 430.809 58.6834 486.468 49.2451 542 48 c 0
 658.639 45.3848 774.958 76.2088 879 129 c 0
  Spiro
    180 525 {
    775 525 v
    790 566 v
    680 818 o
    488.667 888 o
    212 728 o
    146 466 o
    244 174 o
    542 48 o
    879 129 o
    0 0 z
  EndSpiro
EndSplineSet
Substitution2: "'smcp' Lowercase to Single Small Capitals-1" E.c2sc
EndChar

StartChar: f
Encoding: 102 102 73
Width: 675
GlyphClass: 2
Flags: MW
AnchorPoint: "cedilla" 302 0 basechar 0 25
AnchorPoint: "below" 302 0 basechar 0 25
AnchorPoint: "above" 564 1475 basechar 0 27
AnchorPoint: "topright" 580 828 basechar 0 26
AnchorPoint: "ogonek" 302 0 basechar 0 25
LayerCount: 5
Fore
SplineSet
383 0 m 1,0,-1
 222 0 l 1,1,-1
 222 810 l 1,2,-1
 56 810 l 1,3,-1
 56 938 l 1,4,-1
 222 938 l 1,5,-1
 222 1020 l 2,6,7
 222 1464 222 1464 573 1464 c 0,8,9
 632 1464 632 1464 681 1452.5 c 128,-1,10
 730 1441 730 1441 753.5 1429.5 c 128,-1,11
 777 1418 777 1418 807 1398.5 c 128,-1,12
 837 1379 837 1379 846 1374 c 1,13,-1
 802 1247 l 1,14,15
 761 1283 761 1283 699.5 1309.5 c 128,-1,16
 638 1336 638 1336 575 1336 c 0,17,18
 500 1336 500 1336 441.5 1264 c 128,-1,19
 383 1192 383 1192 383 1107 c 2,20,-1
 383 938 l 1,21,-1
 612 938 l 1,22,-1
 612 810 l 1,23,-1
 383 810 l 1,24,-1
 383 0 l 1,0,-1
  Spiro
    383 0 v
    222 0 v
    222 810 v
    56 810 v
    56 938 v
    222 938 v
    222 1020 ]
    309.75 1353 o
    573 1464 o
    629.5 1461.12 o
    681 1452.5 o
    723.625 1441 o
    753.5 1429.5 o
    778.625 1416 o
    807 1398.5 o
    831.75 1382.62 o
    846 1374 v
    802 1247 v
    755.875 1280.62 o
    699.5 1309.5 o
    637.625 1329.38 o
    575 1336 o
    504.125 1318 o
    441.5 1264 o
    397.625 1188.75 o
    383 1107 [
    383 938 v
    612 938 v
    612 810 v
    383 810 v
    0 0 z
  EndSpiro
302 0 m 25,25,-1
  Spiro
    302 0 {
    0 0 z
  EndSpiro
580 828 m 25,26,-1
  Spiro
    580 828 {
    0 0 z
  EndSpiro
564 1475 m 25,27,-1
  Spiro
    564 1475 {
    0 0 z
  EndSpiro
EndSplineSet
Layer: 2
SplineSet
56 938 m 17
 612 938 l 13
 612 810 l 29
 56 810 l 25
 56 938 l 17
  Spiro
    56 938 v
    612 938 v
    612 810 v
    56 810 v
    0 0 z
  EndSpiro
222 1020 m 18
 222 1270 306 1464 573 1464 c 0
 743 1464 796 1400 846 1374 c 9
 802 1247 l 17
 754 1289 666 1336 575 1336 c 0
 474 1336 383 1219 383 1107 c 26
 383 0 l 25
 222 0 l 25
 222 1020 l 18
  Spiro
    222 1020 ]
    253.6 1246.02 o
    363.489 1404.56 o
    573 1464 o
    708.118 1446.48 o
    790.842 1408.85 o
    846 1374 v
    802 1247 v
    742.108 1288.7 o
    663.545 1322.28 o
    575 1336 o
    480.419 1301.58 o
    410.282 1216.05 o
    383 1107 [
    383 0 v
    222 0 v
    0 0 z
  EndSpiro
EndSplineSet
Layer: 3
SplineSet
57 874 m 1
 615 874 l 1
  Spiro
    57 874 {
    615 874 v
    0 0 z
  EndSpiro
849 1302 m 0
 772.947 1361.96 676.821 1398.12 580 1396 c 4
 525.573 1394.81 470.827 1380.56 425.286 1350.73 c 0
 379.745 1320.9 345.137 1275.33 327 1224 c 0
 312.388 1182.64 307.79 1138.42 306.423 1094.58 c 0
 305.056 1050.74 306 1006.86 306 963 c 2
 306 0 l 1
  Spiro
    849 1302 {
    580 1396 o
    327 1224 o
    306 963 [
    306 0 v
    0 0 z
  EndSpiro
EndSplineSet
Substitution2: "'smcp' Lowercase to Single Small Capitals-1" F.c2sc
EndChar

StartChar: g
Encoding: 103 103 74
Width: 980
GlyphClass: 2
Flags: MW
AnchorPoint: "topright" 892 828 basechar 0 95
AnchorPoint: "cedilla" 516 -492 basechar 0 93
AnchorPoint: "ogonek" 516 -492 basechar 0 93
AnchorPoint: "above" 516 956 basechar 0 94
AnchorPoint: "below" -139 -2239.26 basechar 0
LayerCount: 5
Fore
SplineSet
492 827 m 256,0,1
 435 827 435 827 392 806.5 c 128,-1,2
 349 786 349 786 325 752 c 128,-1,3
 301 718 301 718 289.5 680 c 128,-1,4
 278 642 278 642 278 602 c 0,5,6
 278 519 278 519 329 466.5 c 128,-1,7
 380 414 380 414 492 414 c 0,8,9
 549 414 549 414 592 433 c 128,-1,10
 635 452 635 452 659 483.5 c 128,-1,11
 683 515 683 515 694.5 550 c 128,-1,12
 706 585 706 585 706 621 c 0,13,14
 706 655 706 655 694.5 689.5 c 128,-1,15
 683 724 683 724 659 755.5 c 128,-1,16
 635 787 635 787 592 807 c 128,-1,17
 549 827 549 827 492 827 c 256,0,1
  Spiro
    492 827 o
    438.5 821.875 o
    392 806.5 o
    353.75 782.625 o
    325 752 o
    304.125 717 o
    289.5 680 o
    280.875 641.5 o
    278 602 o
    290.75 526.625 o
    329 466.5 o
    395.25 427.125 o
    492 414 o
    545.5 418.75 o
    592 433 o
    630.25 455.125 o
    659 483.5 o
    679.875 515.875 o
    694.5 550 o
    703.125 585.25 o
    706 621 o
    703.125 655.125 o
    694.5 689.5 o
    679.875 723.25 o
    659 755.5 o
    630.25 784.125 o
    592 807 o
    545.5 822 o
    0 0 z
  EndSpiro
805 810 m 1,18,19
 867 722 867 722 867 621 c 0,20,21
 867 574 867 574 855 528 c 128,-1,22
 843 482 843 482 815 437.5 c 128,-1,23
 787 393 787 393 745 359.5 c 128,-1,24
 703 326 703 326 638 305.5 c 128,-1,25
 573 285 573 285 492 285 c 0,26,27
 406 285 406 285 338 303 c 1,28,29
 279 258 279 258 279 201 c 0,30,31
 279 176 279 176 301 159 c 128,-1,32
 323 142 323 142 364 134.5 c 128,-1,33
 405 127 405 127 444 124.5 c 128,-1,34
 483 122 483 122 536 122 c 0,35,36
 594 122 594 122 646.5 115.5 c 128,-1,37
 699 109 699 109 754 92 c 128,-1,38
 809 75 809 75 848.5 49 c 128,-1,39
 888 23 888 23 913 -21 c 128,-1,40
 938 -65 938 -65 938 -121 c 0,41,42
 938 -244 938 -244 869 -329 c 128,-1,43
 800 -414 800 -414 686.5 -453 c 128,-1,44
 573 -492 573 -492 424 -492 c 0,45,46
 265 -492 265 -492 165.5 -428 c 128,-1,47
 66 -364 66 -364 66 -241 c 0,48,49
 66 -195 66 -195 78 -157 c 128,-1,50
 90 -119 90 -119 114.5 -88 c 128,-1,51
 139 -57 139 -57 168.5 -33 c 128,-1,52
 198 -9 198 -9 242 18 c 1,53,54
 118 60 118 60 118 170 c 0,55,56
 118 211 118 211 146 262 c 128,-1,57
 174 313 174 313 231 353 c 1,58,59
 120 433 120 433 117 598 c 0,60,61
 116 662 116 662 136 722.5 c 128,-1,62
 156 783 156 783 198 837 c 128,-1,63
 240 891 240 891 316 923.5 c 128,-1,64
 392 956 392 956 492 956 c 0,65,66
 563 956 563 956 624 938 c 1,67,-1
 938 938 l 1,68,-1
 938 810 l 1,69,-1
 805 810 l 1,18,19
  Spiro
    805 810 v
    851.5 718.75 o
    867 621 o
    864 574.25 o
    855 528 o
    839 482.375 o
    815 437.5 o
    783.5 395.75 o
    745 359.5 o
    697.25 329.25 o
    638 305.5 o
    569 290.125 o
    492 285 o
    410.5 289.5 o
    338 303 v
    293.75 255 o
    279 201 o
    284.5 178 o
    301 159 o
    327.75 144.375 o
    364 134.5 o
    404.5 128.25 o
    444 124.5 o
    486.5 122.625 o
    536 122 o
    592.625 120.375 o
    646.5 115.5 o
    699.625 106.375 o
    754 92 o
    805.125 72.75 o
    848.5 49 o
    884.375 18.5 o
    913 -21 o
    931.75 -68 o
    938 -121 o
    920.75 -234.5 o
    869 -329 o
    788.875 -402.5 o
    686.5 -453 o
    564.125 -482.25 o
    424 -492 o
    279.875 -476 o
    165.5 -428 o
    90.875 -349.25 o
    66 -241 o
    69 -197 o
    78 -157 o
    93.125 -120.75 o
    114.5 -88 o
    140.25 -58.75 o
    168.5 -33 o
    201.625 -8.25 o
    242 18 v
    149 77 o
    118 170 o
    125 213.5 o
    146 262 o
    181.25 310.25 o
    231 353 v
    147 454.25 o
    117 598 o
    121.25 661.125 o
    136 722.5 o
    161.5 781.375 o
    198 837 o
    248.5 885.625 o
    316 923.5 o
    398 947.875 o
    492 956 o
    560.5 951.5 o
    624 938 v
    938 938 v
    938 810 v
    0 0 z
  EndSpiro
396 -6 m 1,70,71
 369 -21 369 -21 350.5 -32 c 128,-1,72
 332 -43 332 -43 306.5 -63.5 c 128,-1,73
 281 -84 281 -84 265.5 -105 c 128,-1,74
 250 -126 250 -126 238.5 -156.5 c 128,-1,75
 227 -187 227 -187 227 -222 c 0,76,77
 227 -273 227 -273 262 -306 c 128,-1,78
 297 -339 297 -339 345 -351 c 128,-1,79
 393 -363 393 -363 454 -363 c 0,80,81
 537 -363 537 -363 607.5 -342.5 c 128,-1,82
 678 -322 678 -322 727.5 -273.5 c 128,-1,83
 777 -225 777 -225 777 -156 c 0,84,85
 777 -122 777 -122 763 -95.5 c 128,-1,86
 749 -69 749 -69 721 -53.5 c 128,-1,87
 693 -38 693 -38 664 -28 c 128,-1,88
 635 -18 635 -18 591.5 -13.5 c 128,-1,89
 548 -9 548 -9 517.5 -8 c 128,-1,90
 487 -7 487 -7 442 -7 c 0,91,92
 418 -7 418 -7 396 -6 c 1,70,71
  Spiro
    396 -6 v
    350.5 -32 [
    330.25 -45.375 o
    306.5 -63.5 o
    283.5 -84.125 o
    265.5 -105 o
    251 -128.375 o
    238.5 -156.5 o
    229.875 -188.125 o
    227 -222 o
    235.75 -268.5 o
    262 -306 o
    300.25 -333.75 o
    345 -351 o
    396.25 -360 o
    454 -363 o
    533.875 -357.875 o
    607.5 -342.5 o
    672.75 -315 o
    727.5 -273.5 o
    764.625 -219.875 o
    777 -156 o
    773.5 -123.875 o
    763 -95.5 o
    745.5 -71.75 o
    721 -53.5 o
    692.75 -39.375 o
    664 -28 o
    631.375 -19.375 o
    591.5 -13.5 o
    551.25 -9.875 o
    517.5 -8 o
    483.375 -7.25 o
    442 -7 o
    418.5 -6.75 o
    0 0 z
  EndSpiro
516 -492 m 25,93,-1
  Spiro
    516 -492 {
    0 0 z
  EndSpiro
516 956 m 25,94,-1
  Spiro
    516 956 {
    0 0 z
  EndSpiro
892 828 m 25,95,-1
  Spiro
    892 828 {
    0 0 z
  EndSpiro
EndSplineSet
Layer: 2
SplineSet
66 -241 m 0xe480
 66 -96 157 -31 291 48 c 9
 407 0 l 17
 336 -38 227 -95 227 -222 c 0xe480
 227 -330 343 -363 454 -363 c 0
 610 -363 777 -301 777 -156 c 0
 777 -13 584.99 -7 442 -7 c 16
 182 -7 118 77 118 170 c 0
 118 227 161 324 282 384 c 9
 390 336 l 17
 313 294 279 254 279 201 c 0xe280
 279 130 417 122 536 122 c 0
 714 122 938 74 938 -121 c 0
 938 -374 714 -492 424 -492 c 0
 222 -492 66 -412 66 -241 c 0xe480
  Spiro
    66 -241 o
    94.5002 -119.287 o
    173.211 -29.7347 o
    291 48 v
    407 0 v
    328.858 -46.1659 o
    257.833 -116.53 o
    227 -222 o
    261.121 -306.493 o
    345.916 -350.471 o
    454 -363 o
    606.931 -341.599 o
    728.017 -274.019 o
    777 -156 o
    722.025 -53.8811 o
    592.254 -13.8333 o
    442 -7 o
    242.588 18.1746 o
    144.165 82.8565 o
    118 170 o
    133.597 237.406 o
    185.777 314.595 o
    282 384 v
    390 336 v
    327.049 294.153 o
    290.643 250.176 o
    279 201 o
    319.111 148.998 o
    416.596 126.692 o
    536 122 o
    719.155 102.376 o
    873.453 28.5586 o
    938 -121 o
    869.317 -329.465 o
    685.92 -452.118 o
    424 -492 o
    241.567 -464.98 o
    113.834 -381.962 o
    0 0 z
  EndSpiro
557 938 m 25xf080
 938 938 l 25
 938 810 l 25
 772 810 l 25
 557 938 l 25xf080
  Spiro
    557 938 v
    938 938 v
    938 810 v
    772 810 v
    0 0 z
  EndSpiro
492 827 m 0xe9
 333 827 278 702 278 602 c 0
 278 502 333 414 492 414 c 0
 651 414 706 530 706 621 c 0
 706 706 651 827 492 827 c 0xe9
  Spiro
    492 827 o
    365.947 790.956 o
    298.106 704.678 o
    278 602 o
    298.106 508.898 o
    365.947 440.468 o
    492 414 o
    618.053 447.383 o
    685.894 526.981 o
    706 621 o
    685.894 712.094 o
    618.053 792.545 o
    0 0 z
  EndSpiro
492 956 m 0
 771 956 867 748 867 621 c 0
 867 470 771 285 492 285 c 0
 213 285 120 429 117 598 c 0
 114 760 213 956 492 956 c 0
  Spiro
    492 956 o
    713.056 897.477 o
    831.851 764.147 o
    867 621 o
    831.851 466.927 o
    713.056 338.457 o
    492 285 o
    271.61 328.51 o
    153.482 441.88 o
    117 598 o
    150.815 762.656 o
    270.279 899.29 o
    0 0 z
  EndSpiro
EndSplineSet
Layer: 3
SplineSet
609 874 m 1
 954 874 l 1
  Spiro
    609 874 {
    954 874 v
    0 0 z
  EndSpiro
393 390 m 0
 358.846 365.085 324.512 340.417 290 316 c 0
 264.964 298.287 239.525 280.203 220.866 255.864 c 0
 211.537 243.695 204.006 230.068 199.4 215.443 c 0
 194.793 200.817 193.166 185.224 195 170 c 0
 196.887 154.334 202.44 139.145 210.941 125.852 c 0
 219.442 112.559 230.821 101.195 243.754 92.1565 c 0
 269.622 74.0795 300.961 65.7002 332 60 c 0
 386.652 49.9632 442.434 48 498 48 c 2
 511.5 48 l 2
 590.191 48 671.486 48.561 744 18 c 0
 777.471 3.89359 808.391 -17.0922 831.616 -45.0192 c 0
 854.841 -72.9462 869.882 -107.812 873 -144 c 0
 876.814 -188.265 862.454 -233.211 836.436 -269.225 c 0
 810.419 -305.238 773.866 -332.475 735 -354 c 0
 649.089 -401.579 551.147 -426.604 453 -430 c 0
 413.412 -431.37 373.517 -428.726 334.976 -419.577 c 0
 296.435 -410.428 259.128 -394.498 228 -370 c 0
 205.924 -352.626 187.118 -330.919 174.117 -306.015 c 0
 161.116 -281.111 154.107 -253.093 154 -225 c 0
 153.886 -194.9 161.63 -165.023 174.643 -137.88 c 0
 187.655 -110.737 205.677 -86.2045 226 -64 c 0
 262.332 -24.3043 305.597 8.7506 352 36 c 0
  Spiro
    393 390 {
    290 316 c
    195 170 o
    332 60 c
    498 48 [
    511.5 48 ]
    744 18 c
    873 -144 o
    735 -354 c
    453 -430 o
    228 -370 c
    154 -225 o
    226 -64 o
    352 36 v
    0 0 z
  EndSpiro
492 888 m 0
 528.421 887.757 564.954 883.473 599.929 873.307 c 0
 634.903 863.142 668.257 846.598 696 823 c 0
 725.178 798.181 747.655 765.815 761.965 730.282 c 0
 776.274 694.75 782.875 656.306 783 618 c 0
 783.126 579.501 776.708 540.809 762.408 505.064 c 0
 748.109 469.319 725.454 436.793 696 412 c 0
 668.183 388.585 634.772 372.295 599.803 362.337 c 0
 564.834 352.379 528.359 348.241 492 348 c 0
 455.253 347.757 418.317 351.496 382.931 361.405 c 0
 347.545 371.314 313.783 387.949 286 412 c 0
 257.072 437.042 235.171 469.796 221.505 505.535 c 0
 207.84 541.273 201.878 579.739 202 618 c 0
 202.121 656.068 208.264 694.292 221.941 729.818 c 0
 235.619 765.345 257.347 797.936 286 823 c 0
 313.706 847.235 347.409 864.127 382.801 874.245 c 0
 418.193 884.362 455.191 888.246 492 888 c 0
  Spiro
    492 888 o
    696 823 o
    783 618 o
    696 412 o
    492 348 o
    286 412 o
    202 618 o
    286 823 o
    477 897 z
  EndSpiro
EndSplineSet
Substitution2: "'smcp' Lowercase to Single Small Capitals-1" G.c2sc
EndChar

StartChar: h
Encoding: 104 104 75
Width: 1121
GlyphClass: 2
Flags: MW
AnchorPoint: "above" 244 1475 basechar 0 27
AnchorPoint: "below" 555 0 basechar 0 24
AnchorPoint: "cedilla" 876 0 basechar 0 25
AnchorPoint: "ogonek" 876 0 basechar 0 25
AnchorPoint: "topright" 907 828 basechar 0 26
LayerCount: 5
Fore
SplineSet
164 0 m 1,0,-1
 164 1475 l 1,1,-1
 325 1475 l 1,2,-1
 325 766 l 1,3,4
 415 956 415 956 618 956 c 0,5,6
 654 956 654 956 694 946.5 c 128,-1,7
 734 937 734 937 782.5 910 c 128,-1,8
 831 883 831 883 868.5 841 c 128,-1,9
 906 799 906 799 931.5 727 c 128,-1,10
 957 655 957 655 957 563 c 2,11,-1
 957 0 l 1,12,-1
 796 0 l 1,13,-1
 796 507 l 2,14,15
 796 678 796 678 736 753 c 128,-1,16
 676 828 676 828 566 828 c 0,17,18
 507 828 507 828 458 796.5 c 128,-1,19
 409 765 409 765 382 721 c 128,-1,20
 355 677 355 677 340 638.5 c 128,-1,21
 325 600 325 600 325 578 c 2,22,-1
 325 0 l 1,23,-1
 164 0 l 1,0,-1
  Spiro
    164 0 v
    164 1475 v
    325 1475 v
    325 766 v
    443.25 908.5 o
    618 956 o
    655 953.625 o
    694 946.5 o
    736.125 932.625 o
    782.5 910 o
    828.25 879.25 o
    868.5 841 o
    903 791.5 o
    931.5 727 o
    950.625 650 o
    957 563 [
    957 0 v
    796 0 v
    796 507 ]
    781 654 o
    736 753 o
    663.5 809.25 o
    566 828 o
    509.5 820.125 o
    458 796.5 o
    414.5 761.875 o
    382 721 o
    358 678.375 o
    340 638.5 o
    328.75 604.125 o
    325 578 [
    325 0 v
    0 0 z
  EndSpiro
555 0 m 25,24,-1
  Spiro
    555 0 {
    0 0 z
  EndSpiro
876 0 m 25,25,-1
  Spiro
    876 0 {
    0 0 z
  EndSpiro
907 828 m 25,26,-1
  Spiro
    907 828 {
    0 0 z
  EndSpiro
244 1475 m 25,27,-1
  Spiro
    244 1475 {
    0 0 z
  EndSpiro
EndSplineSet
Layer: 2
SplineSet
325 0 m 1
 164 0 l 1
 164.002 1475 l 1
 325.002 1475 l 1
 325 0 l 1
797 538 m 2
 797 687 732 828 579 828 c 0
 431 828 346 708 325 578 c 1
 267 576 l 1
 299 767 388 956 611 956 c 0
 741 956 836 889 893 808 c 0
 938 743 957 667 957 563 c 2
 957 0 l 1
 796 0 l 1
 797 538 l 2
  Spiro
    797 538 ]
    774.527 679.279 o
    703.422 786.005 o
    579 828 o
    452.143 792.142 o
    367.233 700.481 o
    325 578 v
    267 576 v
    320.773 759.238 o
    429.957 900.031 o
    611 956 o
    729.116 935.668 o
    823.526 882.305 o
    893 808 o
    929.564 738.778 o
    950.421 658.209 o
    957 563 [
    957 0 v
    796 0 v
    0 0 z
  EndSpiro
EndSplineSet
Layer: 3
SplineSet
750 852 m 0
 705.386 876.004 654.658 888.631 604 888 c 0
 546.577 887.284 489.186 869.092 443.059 834.884 c 0
 396.932 800.676 363.42 750.721 346 696 c 0
 325.792 632.52 326 564.619 326 498 c 2
 326 408 l 1
  Spiro
    750 852 {
    604 888 o
    346 696 o
    326 498 [
    326 408 v
    0 0 z
  EndSpiro
877 0 m 1
 877 564 l 2
 877 619.429 875.265 676.074 855.535 727.872 c 0
 835.805 779.671 798.19 824.612 750 852 c 0
 705.939 877.042 654.68 887.806 604 888 c 0
 540.294 888.244 476.62 873.092 419.523 844.834 c 0
 362.427 816.577 311.94 773.912 278 720 c 0
 263.496 696.961 252.018 672.016 244 646 c 0
  Spiro
    877 0 {
    877 564 ]
    750 852 o
    604 888 o
    278 720 o
    244 646 v
    0 0 z
  EndSpiro
244 0 m 1
 244 1475 l 1
  Spiro
    244 0 {
    244 1475 v
    0 0 z
  EndSpiro
EndSplineSet
Substitution2: "'smcp' Lowercase to Single Small Capitals-1" H.c2sc
EndChar

StartChar: k
Encoding: 107 107 78
Width: 935
GlyphClass: 2
Flags: MW
AnchorPoint: "topright" 632 828 basechar 0 13
AnchorPoint: "ogonek" 555 0 basechar 0 12
AnchorPoint: "cedilla" 555 0 basechar 0 12
AnchorPoint: "below" 555 0 basechar 0 11
AnchorPoint: "above" 244 1475 basechar 0 14
LayerCount: 5
Fore
SplineSet
325 0 m 1,0,-1
 164 0 l 1,1,-1
 164 1475 l 1,2,-1
 325 1475 l 1,3,-1
 325 624 l 1,4,-1
 644 938 l 1,5,-1
 844 938 l 1,6,-1
 458 562 l 1,7,-1
 913 0 l 1,8,-1
 714 0 l 1,9,-1
 325 479 l 1,10,-1
 325 0 l 1,0,-1
555 0 m 25,11,-1
555 0 m 25,12,-1
632 828 m 25,13,-1
244 1475 m 25,14,-1
EndSplineSet
Layer: 2
SplineSet
244 544 m 25
 644 938 l 17
 844 938 l 9
 372 478 l 25
 244 544 l 25
290 522 m 25
 404 630 l 25
 914 0 l 17
 714 0 l 9
 290 522 l 25
325 0 m 17
 164 0 l 25
 164 1475 l 25
 325 1475 l 25
 325 0 l 17
EndSplineSet
Layer: 3
SplineSet
366 560 m 29
 864 -62 l 29
304 512 m 29
 794 988 l 29
244 0 m 5
 244 1475 l 5
EndSplineSet
Substitution2: "'smcp' Lowercase to Single Small Capitals-1" K.c2sc
EndChar

StartChar: l
Encoding: 108 108 79
Width: 593
GlyphClass: 2
Flags: MW
AnchorPoint: "center" 244 469 basechar 0 0
AnchorPoint: "above" 244 1475 basechar 0 17
AnchorPoint: "below" 344 0 basechar 0 15
AnchorPoint: "cedilla" 344 0 basechar 0 15
AnchorPoint: "ogonek" 344 0 basechar 0 15
AnchorPoint: "topright" 244 828 basechar 0 16
LayerCount: 5
Fore
SplineSet
244 469 m 25,0,-1
325 1475 m 1,1,-1
 325 256 l 2,2,3
 325 179 325 179 355.5 145.5 c 128,-1,4
 386 112 386 112 423 112 c 0,5,6
 438 112 438 112 526 120 c 1,7,-1
 539 3 l 1,8,9
 439 -18 439 -18 372 -18 c 0,10,11
 270 -18 270 -18 217 44.5 c 128,-1,12
 164 107 164 107 164 246 c 2,13,-1
 164 1475 l 1,14,-1
 325 1475 l 1,1,-1
  Spiro
    325 1475 v
    325 256 ]
    332.625 189.875 o
    355.5 145.5 o
    387.625 120.375 o
    423 112 o
    456.25 114 o
    526 120 v
    539 3 v
    447.25 -12.75 o
    372 -18 o
    282.25 -2.375 o
    217 44.5 o
    177.25 126.125 o
    164 246 [
    164 1475 v
    0 0 z
  EndSpiro
344 0 m 25,15,-1
  Spiro
    344 0 {
    0 0 z
  EndSpiro
244 828 m 25,16,-1
  Spiro
    244 828 {
    0 0 z
  EndSpiro
244 1475 m 25,17,-1
  Spiro
    244 1475 {
    0 0 z
  EndSpiro
EndSplineSet
Layer: 2
SplineSet
325 1475 m 17
 325 256 l 2
 325 142 384 112 423 112 c 0
 463 112 482 116 526 120 c 1
 539 3 l 1
 482 -9 443 -18 372 -18 c 0
 241 -18 164 55 164 246 c 2
 164 1475 l 9
 325 1475 l 17
EndSplineSet
Layer: 3
SplineSet
244 1475 m 1
 244 304 l 2
 244 266.691 243.6 229.148 249.827 192.362 c 0
 256.053 155.577 269.956 118.701 297 93 c 0
 313.574 77.2486 334.431 66.4244 356.316 59.8011 c 0
 378.201 53.1777 401.143 50.6164 424 50 c 0
 493.118 48.1361 562.642 64.1267 624 96 c 0
  Spiro
    244 1475 {
    244 304 ]
    297 93 c
    424 50 c
    624 96 o
    0 0 z
  EndSpiro
EndSplineSet
Substitution2: "'smcp' Lowercase to Single Small Capitals-1" L.c2sc
EndChar

StartChar: m
Encoding: 109 109 80
Width: 1645
GlyphClass: 2
Flags: MW
AnchorPoint: "center" 825 469 basechar 0 0
AnchorPoint: "topright" 1431 828 basechar 0 38
AnchorPoint: "above" 825 956 basechar 0 37
AnchorPoint: "below" 825 0 basechar 0 36
AnchorPoint: "cedilla" 1403 0 basechar 0 39
AnchorPoint: "ogonek" 1403 0 basechar 0 39
LayerCount: 5
Fore
SplineSet
825 469 m 25,0,-1
164 0 m 1,1,-1
 164 938 l 1,2,-1
 325 938 l 1,3,-1
 325 789 l 1,4,5
 356 862 356 862 416.5 909 c 128,-1,6
 477 956 477 956 567 956 c 0,7,8
 793 956 793 956 867 731 c 1,9,10
 946 956 946 956 1145 956 c 0,11,12
 1310 956 1310 956 1395.5 833 c 128,-1,13
 1481 710 1481 710 1481 469 c 2,14,-1
 1481 1 l 1,15,-1
 1325 0 l 1,16,-1
 1325 469 l 2,17,18
 1325 828 1325 828 1111 828 c 0,19,20
 1053 828 1053 828 1006 785 c 128,-1,21
 959 742 959 742 933.5 679.5 c 0,22,23
 903 617 903 617 903 549 c 2,24,-1
 903 0 l 1,25,-1
 747 0 l 5,26,-1
 747 469 l 6,27,28
 747 828 747 828 533 828 c 4,29,30
 475 828 475 828 428 785 c 132,-1,31
 381 742 381 742 355.5 679.5 c 4,32,33
 325 617 325 617 325 549 c 6,34,-1
 325 0 l 5,35,-1
 164 0 l 1,1,-1
  Spiro
    164 0 v
    164 938 v
    325 938 v
    325 789 v
    363.375 855.5 o
    416.5 909 o
    484.375 944.25 o
    567 956 o
    755 899.75 o
    867 731 v
    976 899.75 o
    1145 956 o
    1290.12 925.25 o
    1395.5 833 o
    1459.62 680.5 o
    1481 469 [
    1481 1 v
    1325 0 v
    1325 469 ]
    1271.5 738.25 o
    1111 828 o
    1055.75 817.25 o
    1006 785 o
    964.375 737.125 o
    933.5 679.5 o
    910.625 615.625 o
    903 549 [
    903 0 v
    747 0 v
    747 469 ]
    693.5 738.25 o
    533 828 o
    477.75 817.25 o
    428 785 o
    386.375 737.125 o
    355.5 679.5 o
    332.625 615.625 o
    325 549 [
    325 0 v
    0 0 z
  EndSpiro
825 0 m 25,36,-1
  Spiro
    825 0 {
    0 0 z
  EndSpiro
825 956 m 25,37,-1
  Spiro
    825 956 {
    0 0 z
  EndSpiro
1431 828 m 25,38,-1
  Spiro
    1431 828 {
    0 0 z
  EndSpiro
1403 0 m 25,39,-1
  Spiro
    1403 0 {
    0 0 z
  EndSpiro
EndSplineSet
Layer: 2
SplineSet
822 484 m 17
 824 668 911 956 1142 956 c 3
 1412 956 1482 728 1482 469 c 2
 1482 0 l 1
 1326 0 l 1
 1326 469 l 2
 1326 708 1254 828 1112 828 c 3
 1014 828 903 708 903 549 c 10
 903 0 l 1
 822 484 l 17
244 484 m 17
 246 668 332 956 563 956 c 3
 833 956 903 728 903 469 c 2
 903 0 l 1
 747 0 l 1
 747 469 l 2
 747 708 675 828 533 828 c 3
 435 828 325 708 325 549 c 10
 324 0 l 1
 244 484 l 17
324 0 m 1
 164 0 l 1
 164 938 l 1
 324 938 l 1
 324 0 l 1
EndSplineSet
Layer: 3
SplineSet
244.499 0 m 1
 244.499 549 l 2
 244.502 718.613 359.497 892.5 533 892.5 c 0
 757.438 892.5 827.5 703.122 827.5 469 c 2
 827.5 0 l 1
1280 838 m 0
 1229.3 878.116 1162.03 896.97 1098 888 c 0
 1054.56 881.914 1012.85 863.004 980.362 833.529 c 0
 947.875 804.055 925.416 764.353 914 722 c 0
 904.24 685.793 901.993 647.995 901.601 610.497 c 0
 901.209 573 902 535.5 902 498 c 2
 902 408 l 1
  Spiro
    1280 838 {
    1098 888 o
    914 722 o
    902 498 [
    902 408 v
    0 0 z
  EndSpiro
1400 0 m 1
 1400 490 l 2
 1400 553.857 1399.34 618.573 1382.32 680.12 c 0
 1365.3 741.667 1330.87 799.406 1280 838 c 0
 1228.66 876.949 1162.09 894.715 1098 888 c 0
 1047.08 882.665 998.092 862.713 956.386 833.008 c 0
 914.681 803.304 880.013 764.102 854 720 c 0
 840.185 696.578 828.784 671.735 820 646 c 0
  Spiro
    1400 0 {
    1400 490 ]
    1280 838 o
    1098 888 o
    854 720 o
    820 646 v
    0 0 z
  EndSpiro
704 838 m 4
 653.298 878.116 586.027 896.97 522 888 c 4
 478.56 881.914 436.848 863.004 404.362 833.529 c 4
 371.875 804.055 349.416 764.353 338 722 c 4
 328.24 685.793 325.993 647.995 325.601 610.497 c 4
 325.209 573 326 535.5 326 498 c 6
 326 408 l 5
  Spiro
    704 838 {
    522 888 o
    338 722 o
    326 498 [
    326 408 v
    0 0 z
  EndSpiro
244 0 m 1
 244 938 l 1
  Spiro
    244 0 {
    244 938 v
    0 0 z
  EndSpiro
EndSplineSet
Substitution2: "'smcp' Lowercase to Single Small Capitals-1" M.c2sc
EndChar

StartChar: n
Encoding: 110 110 81
Width: 1121
GlyphClass: 2
Flags: MW
AnchorPoint: "center" 555 469 basechar 0 0
AnchorPoint: "topright" 795 828 basechar 0 27
AnchorPoint: "ogonek" 876 0 basechar 0 28
AnchorPoint: "cedilla" 876 0 basechar 0 28
AnchorPoint: "below" 555 0 basechar 0 25
AnchorPoint: "above" 555 956 basechar 0 26
LayerCount: 5
Fore
SplineSet
555 469 m 25,0,-1
796 507 m 2,1,2
 796 678 796 678 736 753 c 128,-1,3
 676 828 676 828 566 828 c 0,4,5
 507 828 507 828 458 796.5 c 128,-1,6
 409 765 409 765 382 721 c 128,-1,7
 355 677 355 677 340 638.5 c 128,-1,8
 325 600 325 600 325 578 c 2,9,-1
 325 0 l 1,10,-1
 164 0 l 1,11,-1
 164 938 l 1,12,-1
 325 938 l 1,13,-1
 325 766 l 1,14,15
 415 956 415 956 618 956 c 0,16,17
 654 956 654 956 694 946.5 c 128,-1,18
 734 937 734 937 782.5 910 c 128,-1,19
 831 883 831 883 868.5 841 c 128,-1,20
 906 799 906 799 931.5 727 c 128,-1,21
 957 655 957 655 957 563 c 2,22,-1
 957 0 l 1,23,-1
 796 0 l 1,24,-1
 796 507 l 2,1,2
  Spiro
    796 507 ]
    781 654 o
    736 753 o
    663.5 809.25 o
    566 828 o
    509.5 820.125 o
    458 796.5 o
    414.5 761.875 o
    382 721 o
    358 678.375 o
    340 638.5 o
    328.75 604.125 o
    325 578 [
    325 0 v
    164 0 v
    164 938 v
    325 938 v
    325 766 v
    443.25 908.5 o
    618 956 o
    655 953.625 o
    694 946.5 o
    736.125 932.625 o
    782.5 910 o
    828.25 879.25 o
    868.5 841 o
    903 791.5 o
    931.5 727 o
    950.625 650 o
    957 563 [
    957 0 v
    796 0 v
    0 0 z
  EndSpiro
555 0 m 25,25,-1
  Spiro
    555 0 {
    0 0 z
  EndSpiro
555 956 m 25,26,-1
  Spiro
    555 956 {
    0 0 z
  EndSpiro
795 828 m 25,27,-1
  Spiro
    795 828 {
    0 0 z
  EndSpiro
876 0 m 25,28,-1
  Spiro
    876 0 {
    0 0 z
  EndSpiro
EndSplineSet
Layer: 2
SplineSet
325 0 m 5
 164 0 l 5
 164 938 l 5
 306 938 l 5
 325 794 l 5
 325 0 l 5
  Spiro
    325 0 v
    164 0 v
    164 938 v
    306 938 v
    325 794 v
    0 0 z
  EndSpiro
797 538 m 6
 797 687 732 828 579 828 c 4
 401.5 828 325 644.4 325 578 c 6
 325 0 l 5
 267 576 l 5
 299 767 388 956 611 956 c 4
 741 956 836 889 893 808 c 4
 938 743 957 667 957 563 c 6
 957 0 l 5
 796 0 l 5
 797 538 l 6
EndSplineSet
Layer: 3
SplineSet
750 852 m 0
 705.386 876.004 654.658 888.631 604 888 c 0
 546.577 887.284 489.186 869.092 443.059 834.884 c 0
 396.932 800.676 363.42 750.721 346 696 c 0
 325.792 632.52 326 564.619 326 498 c 2
 326 408 l 1
  Spiro
    750 852 {
    604 888 o
    346 696 o
    326 498 [
    326 408 v
    0 0 z
  EndSpiro
877 0 m 1
 877 564 l 1
 877 619.429 875.265 676.074 855.535 727.872 c 0
 835.805 779.671 798.19 824.612 750 852 c 0
 705.939 877.042 654.68 887.806 604 888 c 0
 540.294 888.244 476.62 873.092 419.523 844.834 c 0
 362.427 816.577 311.94 773.912 278 720 c 0
 263.496 696.961 252.018 672.016 244 646 c 0
  Spiro
    877 0 {
    877 564 ]
    750 852 o
    604 888 o
    278 720 o
    244 646 v
    0 0 z
  EndSpiro
244 0 m 1
 244 939 l 1
  Spiro
    244 0 {
    244 939 v
    0 0 z
  EndSpiro
EndSplineSet
Substitution2: "'smcp' Lowercase to Single Small Capitals-1" N.c2sc
EndChar

StartChar: o
Encoding: 111 111 82
Width: 1012
GlyphClass: 2
Flags: MW
AnchorPoint: "center" 506 469 basechar 0 24
AnchorPoint: "topright" 773 828 basechar 0 26
AnchorPoint: "ogonek" 506 0 basechar 0 27
AnchorPoint: "cedilla" 506 0 basechar 0 27
AnchorPoint: "below" 506 0 basechar 0 27
AnchorPoint: "above" 506 956 basechar 0 0
LayerCount: 5
Fore
SplineSet
506 956 m 3,0,1
 720.198455983 956 720.198455983 956 835.599227991 824.800439738 c 128,-1,2
 951 693.600879476 951 693.600879476 951 469 c 3,3,4
 951 213.319033046 951 213.319033046 821.637199988 97.6595165232 c 128,-1,5
 692.274399975 -18 692.274399975 -18 506 -18 c 3,6,7
 312 -18 312 -18 186.5 103.299999237 c 128,-1,8
 61 224.599998474 61 224.599998474 61 469 c 3,9,10
 61 702.079209258 61 702.079209258 179.841584864 828.851888842 c 128,-1,11
 298.683169728 955.624568426 298.683169728 955.624568426 506 956 c 3,0,1
506 827 m 3,12,13
 365.312432644 827 365.312432644 827 293.656216322 728.196983671 c 128,-1,14
 222 629.393967343 222 629.393967343 222 469 c 3,15,16
 222 278.599998474 222 278.599998474 306.075500165 194.799999237 c 128,-1,17
 390.15100033 111 390.15100033 111 506 111 c 3,18,19
 635.113886781 111 635.113886781 111 711.556943391 202.871322337 c 128,-1,20
 788 294.742644673 788 294.742644673 788 469 c 3,21,22
 788 616.760963076 788 616.760963076 719.603258622 721.880481538 c 128,-1,23
 651.206517244 827 651.206517244 827 506 827 c 3,12,13
506 469 m 25,24,-1
506 956 m 25,25,-1
  Spiro
    506 956 {
    0 0 z
  EndSpiro
773 828 m 25,26,-1
  Spiro
    773 828 {
    0 0 z
  EndSpiro
506 0 m 25,27,-1
  Spiro
    506 0 {
    0 0 z
  EndSpiro
EndSplineSet
Layer: 2
SplineSet
506 827 m 0
 367 827 222 740 222 469 c 0
 222 198 367 111 506 111 c 0
 645 111 788 198 788 469 c 0
 788 740 645 827 506 827 c 0
  Spiro
    222 469 o
    264.661 255.9 o
    370.719 143.524 o
    506 111 o
    640.764 143.524 o
    745.857 255.9 o
    788 469 o
    745.857 682.1 o
    640.764 794.476 o
    506 827 o
    370.719 794.476 o
    264.661 682.1 o
    0 0 z
  EndSpiro
506 956 m 0
 724 956 951 838 951 469 c 0
 951 100 724 -18 506 -18 c 0
 288 -18 61 100 61 469 c 0
 61 838 288 956 506 956 c 0
  Spiro
    61 469 o
    127.801 759.043 o
    293.939 911.834 o
    506 956 o
    718.061 911.834 o
    884.199 759.043 o
    951 469 o
    884.199 178.957 o
    718.061 26.1659 o
    506 -18 o
    293.939 26.1659 o
    127.801 178.957 o
    0 0 z
  EndSpiro
EndSplineSet
Layer: 3
SplineSet
506 888 m 4
 556 888 605 881 652 864 c 0
 699 847 742 820 775 784 c 0
 813 743 838 690 851 636 c 0
 864 582 868 526 868 470 c 0
 868 414 863 357 850 303 c 0
 837 249 813 197 775 155 c 0
 742 118 699 90 652 73 c 0
 605 56 556 48 506 48 c 0
 456 48 406 56 360 73 c 0
 314 90 271 118 238 155 c 0
 201 197 176 249 163 304 c 0
 150 359 146 415 146 471 c 0
 146 527 150 583 163 637 c 0
 176 691 201 743 238 784 c 0
 271 820 315 847 361 864 c 0
 407 881 457 888 506 888 c 4
  Spiro
    506 888 o
    555.58 885.561 o
    604.419 877.767 o
    652 864 o
    697.401 843.727 o
    738.928 816.933 o
    775 784 o
    808.674 739.455 o
    833.984 689.207 o
    851 636 o
    861.178 581.463 o
    866.485 525.87 o
    868 470 o
    866.226 413.871 o
    860.436 357.796 o
    850 303 o
    833.243 250.015 o
    808.415 199.989 o
    775 155 o
    738.928 121.105 o
    697.401 93.5685 o
    652 73 o
    604.419 58.9741 o
    555.58 50.6983 o
    506 48 o
    456.198 50.6983 o
    407.137 58.9741 o
    360 73 o
    315.302 93.5685 o
    274.035 121.105 o
    238 155 o
    205.029 200.026 o
    179.979 250.311 o
    163 304 o
    152.822 359.241 o
    147.515 415.093 o
    146 471 o
    147.515 526.87 o
    152.822 582.463 o
    163 637 o
    179.979 689.948 o
    205.029 739.714 o
    238 784 o
    274.294 816.933 o
    316.044 843.727 o
    361 864 o
    408.1 877.767 o
    456.901 885.561 o
    0 0 z
  EndSpiro
EndSplineSet
Layer: 4
SplineSet
506 956 m 0
 628.508988495 956 753.86024764 918.734673703 840.169947797 820.599998474 c 0
 907.445016115 744.107820093 951 630.633868097 951 469 c 0
 951 284.072451513 893.986677617 162.186065661 809.665592701 86.5999972744 c 0
 725.734404829 11.363435594 614.747410379 -18 506 -18 c 0
 410.791878532 -18 313.867123836 4.50696899299 234.884875708 60.5999984741 c 0
 133.019840784 132.944335873 61 261.155031292 61 469 c 0
 61 636.366694965 107.699389711 752.096619808 179.077017634 828.59999974 c 0
 265.068481029 920.76666017 386.87788483 956 506 956 c 0
  Spiro
    61 469 o
    127.801 759.043 o
    293.939 911.834 o
    506 956 o
    718.061 911.834 o
    884.199 759.043 o
    951 469 o
    884.199 178.957 o
    718.061 26.1659 o
    506 -18 o
    293.939 26.1659 o
    127.801 178.957 o
    0 0 z
  EndSpiro
506 827 m 0
 426.192143314 827 344.406347395 798.319881113 289.223090329 722.599998474 c 0
 248.294597866 666.439836668 222 584.403387325 222 469 c 0
 222 321.695096785 264.841416976 228.754474421 326.27375168 174.599997632 c 0
 377.859804968 129.125318232 442.554913457 111 506 111 c 0
 580.380957028 111 655.907305447 135.912262763 710.054386523 200.599998474 c 0
 757.095090202 256.797978989 788 343.016110464 788 469 c 0
 788 573.889188563 766.57805465 651.214475416 732.257343533 706.599999469 c 0
 677.904352048 794.31289408 591.200748302 827 506 827 c 0
  Spiro
    222 469 o
    264.661 255.9 o
    370.719 143.524 o
    506 111 o
    640.764 143.524 o
    745.857 255.9 o
    788 469 o
    745.857 682.1 o
    640.764 794.476 o
    506 827 o
    370.719 794.476 o
    264.661 682.1 o
    0 0 z
  EndSpiro
EndSplineSet
Substitution2: "'smcp' Lowercase to Single Small Capitals-1" O.c2sc
EndChar

StartChar: p
Encoding: 112 112 83
Width: 1063
GlyphClass: 2
Flags: MW
AnchorPoint: "cedilla" 244 -492 basechar 0 32
AnchorPoint: "below" 244 -492 basechar 0 32
AnchorPoint: "above" 555 956 basechar 0 30
AnchorPoint: "topright" 841 828 basechar 0 31
AnchorPoint: "ogonek" 244 -492 basechar 0 32
LayerCount: 5
Fore
SplineSet
329 154 m 1,0,1
 409 110 409 110 520 110 c 0,2,3
 575 110 575 110 631.5 138.5 c 128,-1,4
 688 167 688 167 735 216.5 c 128,-1,5
 782 266 782 266 811.5 341 c 128,-1,6
 841 416 841 416 841 502 c 0,7,8
 841 641 841 641 766.5 734 c 128,-1,9
 692 827 692 827 583 827 c 0,10,11
 509 827 509 827 442 776.5 c 128,-1,12
 375 726 375 726 329 648 c 1,13,-1
 329 154 l 1,0,1
  Spiro
    329 154 v
    416.75 121 o
    520 110 o
    575.375 117.125 o
    631.5 138.5 o
    685.625 172.25 o
    735 216.5 o
    777.625 272.375 o
    811.5 341 o
    833.625 418.75 o
    841 502 o
    822.375 629.5 o
    766.5 734 o
    683.375 803.75 o
    583 827 o
    510.75 814.375 o
    442 776.5 o
    380.25 719.125 o
    329 648 v
    0 0 z
  EndSpiro
598 956 m 0,14,15
 714 956 714 956 808 892 c 128,-1,16
 902 828 902 828 952 725.5 c 128,-1,17
 1002 623 1002 623 1002 506 c 0,18,19
 1002 273 1002 273 866.5 127.5 c 128,-1,20
 731 -18 731 -18 530 -18 c 0,21,22
 446 -18 446 -18 329 14 c 1,23,-1
 329 -492 l 1,24,-1
 164 -492 l 1,25,-1
 164 938 l 1,26,-1
 329 938 l 1,27,-1
 329 828 l 1,28,29
 442 956 442 956 598 956 c 0,14,15
  Spiro
    598 956 o
    708.5 940 o
    808 892 o
    891 818.375 o
    952 725.5 o
    989.5 619.375 o
    1002 506 o
    968.125 294.875 o
    866.5 127.5 o
    714.625 18.375 o
    530 -18 o
    437.75 -10 o
    329 14 v
    329 -492 v
    164 -492 v
    164 938 v
    329 938 v
    329 828 v
    452.75 924 o
    0 0 z
  EndSpiro
555 956 m 25,30,-1
  Spiro
    555 956 {
    0 0 z
  EndSpiro
841 828 m 25,31,-1
  Spiro
    841 828 {
    0 0 z
  EndSpiro
244 -492 m 29,32,-1
  Spiro
    244 -492 {
    0 0 z
  EndSpiro
EndSplineSet
Layer: 2
SplineSet
329 154 m 5
 360 137 433 110 520 110 c 4
 665 110 841 264 841 502 c 4
 841 688 727 827 583 827 c 4
 478 827 386 744 329 648 c 5
 270 654 l 5
 270 844 450 956 598 956 c 4
 838 956 1002 740 1002 506 c 4
 1002 190 793 -18 530 -18 c 4
 448 -18 342 8 270 34 c 5
 329 154 l 5
329 -492 m 1
 164 -492 l 1
 164 938 l 1
 329 938 l 1
 329 -492 l 1
EndSplineSet
Layer: 3
SplineSet
808 798 m 0
 752.007 854.318 673.416 888.089 594 888 c 0
 536.966 887.936 479.685 870.02 434.352 835.41 c 0
 389.02 800.801 357.304 749.943 342 695 c 0
 324.264 631.327 326 564.097 326 498 c 2
 326 408 l 1
  Spiro
    808 798 {
    594 888 o
    342 695 o
    326 498 [
    326 408 v
    0 0 z
  EndSpiro
212 144 m 0
 295.733 84.4871 397.283 49.4382 500 48 c 0
 595.935 46.6568 693.375 77.3028 766 140 c 0
 814.339 181.731 850.933 236.221 874.963 295.388 c 0
 898.993 354.555 911.378 418.193 914 482 c 0
 916.348 539.136 910.76 596.895 894 651.568 c 0
 877.239 706.241 848.565 757.695 808 798 c 0
 751.76 853.879 673.253 885.913 594 888 c 0
 531.814 889.637 469.464 873.882 414.707 844.362 c 0
 359.949 814.841 312.718 771.619 278 720 c 0
 264.828 700.415 253.433 679.635 244 658 c 0
  Spiro
    212 144 {
    500 48 o
    766 140 o
    914 482 o
    808 798 o
    594 888 o
    278 720 o
    244 658 v
    0 0 z
  EndSpiro
244 -496 m 1
 244 938 l 1
  Spiro
    244 -496 {
    244 938 v
    0 0 z
  EndSpiro
EndSplineSet
Substitution2: "'smcp' Lowercase to Single Small Capitals-1" P.c2sc
EndChar

StartChar: q
Encoding: 113 113 84
Width: 1060
GlyphClass: 2
Flags: MW
AnchorPoint: "ogonek" 816 -492 basechar 0 36
AnchorPoint: "topright" 816 828 basechar 0 35
AnchorPoint: "above" 555 956 basechar 0 34
AnchorPoint: "below" 816 -492 basechar 0 36
AnchorPoint: "cedilla" 816 -492 basechar 0 36
LayerCount: 5
Fore
SplineSet
454 -18 m 0,0,1
 376 -18 376 -18 307 9.5 c 128,-1,2
 238 37 238 37 182 92 c 128,-1,3
 126 147 126 147 93.5 240.5 c 128,-1,4
 61 334 61 334 61 456 c 0,5,6
 61 551 61 551 89.5 633.5 c 128,-1,7
 118 716 118 716 165.5 774 c 128,-1,8
 213 832 213 832 274.5 874 c 128,-1,9
 336 916 336 916 402 936 c 128,-1,10
 468 956 468 956 534 956 c 0,11,12
 737 956 737 956 896 858 c 1,13,-1
 896 -492 l 1,14,-1
 735 -492 l 1,15,-1
 735 110 l 1,16,17
 670 37 670 37 603 9.5 c 128,-1,18
 536 -18 536 -18 454 -18 c 0,0,1
  Spiro
    454 -18 o
    378.25 -11.125 o
    307 9.5 o
    241.25 43.875 o
    182 92 o
    131.875 156.625 o
    93.5 240.5 o
    69.125 341.125 o
    61 456 o
    68.125 547.875 o
    89.5 633.5 o
    122.75 709.875 o
    165.5 774 o
    216.5 828 o
    274.5 874 o
    337.125 910.5 o
    402 936 o
    468 951 o
    534 956 o
    726 931.5 o
    896 858 v
    896 -492 v
    735 -492 v
    735 110 v
    669.5 48.375 o
    603 9.5 o
    532.25 -11.125 o
    0 0 z
  EndSpiro
464 110 m 0,19,20
 628 110 628 110 735 290 c 1,21,-1
 735 790 l 1,22,23
 677 827 677 827 570 827 c 0,24,25
 484 827 484 827 416.5 797 c 128,-1,26
 349 767 349 767 307 715 c 128,-1,27
 265 663 265 663 243.5 595 c 128,-1,28
 222 527 222 527 222 448 c 0,29,30
 222 357 222 357 243.5 288.5 c 128,-1,31
 265 220 265 220 301 182.5 c 128,-1,32
 337 145 337 145 377.5 127.5 c 128,-1,33
 418 110 418 110 464 110 c 0,19,20
  Spiro
    464 110 o
    613.75 155 o
    735 290 v
    735 790 v
    664.75 817.75 o
    570 827 o
    488.625 819.5 o
    416.5 797 o
    355.375 761.5 o
    307 715 o
    270.125 659 o
    243.5 595 o
    227.375 524.25 o
    222 448 o
    227.375 362.625 o
    243.5 288.5 o
    268.625 227.75 o
    301 182.5 o
    338.125 150 o
    377.5 127.5 o
    419.375 114.375 o
    0 0 z
  EndSpiro
555 956 m 25,34,-1
  Spiro
    555 956 {
    0 0 z
  EndSpiro
816 828 m 25,35,-1
  Spiro
    816 828 {
    0 0 z
  EndSpiro
816 -492 m 25,36,-1
  Spiro
    816 -492 {
    0 0 z
  EndSpiro
EndSplineSet
Layer: 2
SplineSet
60 458 m 4
 60 748 268 956 548 956 c 4
 627 956 800 924 896 858 c 5
 777 750 l 5
 735 790 l 5
 686 818 634 827 567 827 c 4
 362 827 220 676 220 435 c 4
 220 256 307 111 473 111 c 4
 618 111 722 240 768 348 c 5
 840 270 l 5
 797 164 718 71 618 21 c 4
 567 -5 512 -17 457 -17 c 4
 209 -17 60 176 60 458 c 4
735 -492 m 29
 735 790 l 21
 896 858 l 13
 896 -492 l 29
 735 -492 l 29
EndSplineSet
Layer: 3
SplineSet
734 384 m 1
 734 312 l 2
 734 284.54 733.625 256.878 728 230 c 0
 718.08 182.598 690.629 139.487 653 109 c 0
 601.511 67.2828 534.248 46.3517 468 48 c 0
 400.803 49.6719 334.428 75.556 284 120 c 0
  Spiro
    734 384 {
    734 312 ]
    728 230 o
    653 109 o
    468 48 o
    284 120 o
    0 0 z
  EndSpiro
834 804 m 0
 754.803 858.992 658.41 889.169 562 888 c 0
 500.977 887.26 440.002 873.975 384.737 848.088 c 0
 329.472 822.202 280.195 783.597 242 736 c 0
 181.804 660.987 150.026 565.095 146 469 c 0
 143.291 404.34 152.697 338.991 175.379 278.379 c 0
 198.06 217.767 234.582 161.786 284 120 c 0
 335.272 76.6465 400.879 49.7838 468 48 c 0
 512.846 46.8082 557.792 56.4791 598.745 74.794 c 0
 639.698 93.1089 676.765 119.798 708 152 c 0
 748.295 193.543 778.745 244.653 795.52 300.043 c 0
 812.294 355.433 813.851 414.132 813 472 c 2
 812 540 l 1
  Spiro
    834 804 {
    562 888 o
    242 736 o
    146 469 o
    284 120 o
    468 48 o
    708 152 o
    813 472 [
    812 540 o
    0 0 z
  EndSpiro
814 -488 m 1
 814 987 l 1
  Spiro
    814 -488 {
    814 987 v
    0 0 z
  EndSpiro
EndSplineSet
Substitution2: "'smcp' Lowercase to Single Small Capitals-1" Q.c2sc
EndChar

StartChar: r
Encoding: 114 114 85
Width: 830
GlyphClass: 2
Flags: MW
AnchorPoint: "above" 465 956 basechar 0 21
AnchorPoint: "below" 244 0 basechar 0 20
AnchorPoint: "cedilla" 244 0 basechar 0 20
AnchorPoint: "ogonek" 244 0 basechar 0 20
AnchorPoint: "topright" 728 828 basechar 0 22
LayerCount: 5
Fore
SplineSet
164 0 m 1,0,-1
 164 938 l 1,1,-1
 325 938 l 1,2,-1
 325 766 l 1,3,4
 361 844 361 844 427.5 900 c 128,-1,5
 494 956 494 956 589 956 c 0,6,7
 663 956 663 956 717.5 926.5 c 128,-1,8
 772 897 772 897 790 864 c 1,9,-1
 722 762 l 1,10,11
 708 780 708 780 695 792.5 c 128,-1,12
 682 805 682 805 650.5 816.5 c 128,-1,13
 619 828 619 828 578 828 c 0,14,15
 514 828 514 828 456 781.5 c 128,-1,16
 398 735 398 735 364 668 c 128,-1,17
 330 601 330 601 325 534 c 2,18,-1
 325 0 l 1,19,-1
 164 0 l 1,0,-1
  Spiro
    164 0 v
    164 938 v
    325 938 v
    325 766 v
    368.625 838.5 o
    427.5 900 o
    501.125 942 o
    589 956 o
    658.125 948.625 o
    717.5 926.5 o
    762.875 896.125 o
    790 864 v
    722 762 v
    708.25 778.625 o
    695 792.5 o
    677.375 804.75 o
    650.5 816.5 o
    616.625 825.125 o
    578 828 o
    515.5 816.375 o
    456 781.5 o
    404 729.875 o
    364 668 o
    337.25 601 o
    325 534 [
    325 0 v
    0 0 z
  EndSpiro
244 0 m 25,20,-1
  Spiro
    244 0 {
    0 0 z
  EndSpiro
465 956 m 25,21,-1
  Spiro
    465 956 {
    0 0 z
  EndSpiro
728 828 m 25,22,-1
  Spiro
    728 828 {
    0 0 z
  EndSpiro
EndSplineSet
Layer: 2
SplineSet
325 0 m 1
 164 0 l 1
 164 938 l 1
 306 938 l 1
 325 794 l 1
 325 0 l 1
  Spiro
    325 0 v
    164 0 v
    164 938 v
    306 938 v
    325 794 v
    0 0 z
  EndSpiro
725.14 765.237 m 1
 690.352 803.958 642.179 828 579 828 c 0
 401.5 828 325 602.8 325 536.4 c 2
 325 0 l 1
 267 570.4 l 1
 299 761.4 388 956 598 956 c 0
 677.409 956 756.76 931 809.366 893.081 c 1
 725.14 765.237 l 1
EndSplineSet
Layer: 3
SplineSet
750.5 839.5 m 0
 700.837 870.518 642.554 887.91 584 888 c 0
 529.337 888.084 474.15 872.444 429.929 840.311 c 0
 385.708 808.178 354.463 759.715 340 707 c 0
 321.469 639.456 326 568.04 326 498 c 2
 326 408 l 1
  Spiro
    750.5 839.5 {
    584 888 o
    340 707 o
    326 498 [
    326 408 v
    0 0 z
  EndSpiro
858 708 m 0
 837.128 761.633 798.795 808.2 750.5 839.5 c 0
 701.339 871.362 642.58 887.397 584 888 c 0
 523.201 888.625 462.377 873.084 409.011 843.947 c 0
 355.645 814.81 309.799 771.824 278 720 c 0
 263.769 696.807 252.324 671.906 244 646 c 0
  Spiro
    858 708 {
    750.5 839.5 o
    584 888 o
    278 720 o
    244 646 v
    0 0 z
  EndSpiro
244 0 m 1
 244 939 l 1
  Spiro
    244 0 {
    244 939 v
    0 0 z
  EndSpiro
EndSplineSet
Substitution2: "'smcp' Lowercase to Single Small Capitals-1" R.c2sc
EndChar

StartChar: s
Encoding: 115 115 86
Width: 782
GlyphClass: 2
Flags: MW
AnchorPoint: "topright" 597 828 basechar 0 40
AnchorPoint: "ogonek" 400 0 basechar 0 38
AnchorPoint: "cedilla" 400 0 basechar 0 38
AnchorPoint: "below" 400 0 basechar 0 38
AnchorPoint: "above" 400 956 basechar 0 39
LayerCount: 5
Fore
SplineSet
396 956 m 0,0,1
 486 956 486 956 556 932.5 c 128,-1,2
 626 909 626 909 664 879 c 1,3,-1
 607 759 l 1,4,5
 576 784 576 784 519 806 c 128,-1,6
 462 828 462 828 406 828 c 0,7,8
 331 828 331 828 289 789 c 128,-1,9
 247 750 247 750 247 705 c 0,10,11
 247 654 247 654 279 622 c 128,-1,12
 311 590 311 590 408 556 c 2,13,-1
 506 522 l 2,14,15
 613 485 613 485 664.5 424.5 c 128,-1,16
 716 364 716 364 716 264 c 0,17,18
 716 134 716 134 628 58 c 128,-1,19
 540 -18 540 -18 388 -18 c 0,20,21
 307 -18 307 -18 232.5 -1.5 c 128,-1,22
 158 15 158 15 66 68 c 1,23,-1
 124 192 l 1,24,25
 201 146 201 146 255 128.5 c 128,-1,26
 309 111 309 111 382 111 c 0,27,28
 555 111 555 111 555 260 c 0,29,30
 555 350 555 350 390 404 c 2,31,-1
 292 438 l 2,32,33
 187 475 187 475 136.5 543.5 c 128,-1,34
 86 612 86 612 86 695 c 0,35,36
 86 799 86 799 173 877.5 c 128,-1,37
 260 956 260 956 396 956 c 0,0,1
  Spiro
    396 956 o
    481 950.125 o
    556 932.5 o
    618 907.375 o
    664 879 v
    607 759 v
    569.5 783.25 o
    519 806 o
    462.25 822.5 o
    406 828 o
    339.25 818.25 o
    289 789 o
    257.5 748.5 o
    247 705 o
    255 658.75 o
    279 622 o
    327.25 589.5 o
    408 556 [
    506 522 ]
    599.125 479.125 o
    664.5 424.5 o
    703.125 354.125 o
    716 264 o
    694 147.5 o
    628 58 o
    524 1 o
    388 -18 o
    308.625 -13.875 o
    232.5 -1.5 o
    153.625 24.125 o
    66 68 v
    124 192 v
    195.25 153.125 o
    255 128.5 o
    313.75 115.375 o
    382 111 o
    511.75 148.25 o
    555 260 o
    513.75 341 o
    390 404 [
    292 438 ]
    200.625 482.875 o
    136.5 543.5 o
    98.625 615.625 o
    86 695 o
    107.75 792.625 o
    173 877.5 o
    272.25 936.375 o
    0 0 z
  EndSpiro
400 0 m 25,38,-1
  Spiro
    400 0 {
    0 0 z
  EndSpiro
400 956 m 25,39,-1
  Spiro
    400 956 {
    0 0 z
  EndSpiro
597 828 m 25,40,-1
  Spiro
    597 828 {
    0 0 z
  EndSpiro
EndSplineSet
Layer: 2
SplineSet
397 956 m 0
 531 956 625 910 665 879 c 9
 608 759 l 17
 573 788 489 828 407 828 c 0
 298 828 248 756 248 705 c 0
 248 641 273 603 409 556 c 2
 507 522 l 2
 644 474 717 402 717 264 c 0
 717 92 593 -18 389 -18 c 0
 303 -18 203 -10 67 68 c 9
 125 192 l 17
 225 132 283 111 383 111 c 0
 497 111 556 160 556 260 c 0
 556 325 494 370 391 404 c 2
 293 438 l 2
 145 490 87 592 87 695 c 0
 87 828 209 956 397 956 c 0
  Spiro
    397 956 o
    517.042 942.95 o
    607.593 912.707 o
    665 879 v
    608 759 v
    558.618 789.747 o
    487.7 816.577 o
    407 828 o
    317.404 807.482 o
    264.966 759.501 o
    248 705 o
    259.492 648.421 o
    306.886 601.251 o
    409 556 [
    507 522 ]
    622.24 464.513 o
    693.048 381.457 o
    717 264 o
    677.374 114.57 o
    564.558 16.8209 o
    389 -18 o
    297.616 -13.0492 o
    191.7 11.0753 o
    67 68 v
    125 192 v
    214.03 144.369 o
    293.97 118.651 o
    383 111 o
    478.442 127.375 o
    536.52 176.992 o
    556 260 o
    536.15 318.614 o
    479.482 366.042 o
    391 404 [
    293 438 ]
    173.906 504.772 o
    107.476 594.245 o
    87 695 o
    125.518 821.662 o
    233.212 917.961 o
    0 0 z
  EndSpiro
EndSplineSet
Layer: 3
SplineSet
692 784 m 0
 604.827 845.403 501.128 888.193 394.5 888 c 0
 337.129 887.896 278.322 872.428 234 836 c 0
 209.314 815.711 189.586 789.383 177.325 759.875 c 0
 165.064 730.367 160.164 697.723 164 666 c 0
 167.264 639.003 177.08 612.692 193.187 590.782 c 0
 209.295 568.872 231.599 552.004 256 540 c 0
 280.448 527.972 306.488 519.567 332 510 c 2
 428 474 l 2
 468.889 458.667 510.407 443.301 546 418 c 0
 570.06 400.897 591.045 379.234 606.07 353.825 c 0
 621.094 328.416 630.083 299.457 632 270 c 0
 634.305 234.567 626.353 198.582 609.699 167.222 c 0
 593.044 135.862 567.819 109.279 538 90 c 0
 491.038 59.6363 433.923 47.7207 378 48 c 0
 260.836 48.5851 146.965 93.2815 48 156 c 0
  Spiro
    692 784 {
    394.5 888 o
    234 836 o
    164 666 o
    256 540 o
    332 510 [
    428 474 ]
    546 418 o
    632 270 o
    538 90 o
    378 48 o
    48 156 o
    0 0 z
  EndSpiro
EndSplineSet
Substitution2: "'smcp' Lowercase to Single Small Capitals-1" S.c2sc
EndChar

StartChar: t
Encoding: 116 116 87
Width: 669
GlyphClass: 2
Flags: MW
AnchorPoint: "ogonek" 372 0 basechar 0 22
AnchorPoint: "cedilla" 372 0 basechar 0 22
AnchorPoint: "below" 372 0 basechar 0 22
AnchorPoint: "topright" 510 828 basechar 0 24
AnchorPoint: "above" 254 956 basechar 0 23
LayerCount: 5
Fore
SplineSet
335 1188 m 1,0,-1
 335 938 l 1,1,-1
 564 938 l 1,2,-1
 564 810 l 1,3,-1
 335 810 l 1,4,-1
 335 256 l 2,5,6
 335 179 335 179 374 145.5 c 128,-1,7
 413 112 413 112 461 112 c 0,8,9
 554 112 554 112 606 128 c 1,10,-1
 626 15 l 1,11,12
 534 -18 534 -18 412 -18 c 0,13,14
 295 -18 295 -18 234.5 44.5 c 128,-1,15
 174 107 174 107 174 246 c 2,16,-1
 174 810 l 1,17,-1
 8 810 l 1,18,-1
 8 938 l 1,19,-1
 174 938 l 1,20,-1
 174 1128 l 1,21,-1
 335 1188 l 1,0,-1
372 0 m 25,22,-1
254 956 m 25,23,-1
510 828 m 25,24,-1
EndSplineSet
Layer: 2
SplineSet
8 810 m 1
 8 938 l 1
 564 938 l 1
 564 810 l 1
 8 810 l 1
174 1128 m 5
 335 1188 l 21
 335 256 l 0
 335 142.001 410 112 461 112 c 0
 511 112 557 113 606 128 c 1
 626 15 l 1
 576 -3 522 -18 412 -18 c 0
 262 -18 174 55 174 246 c 0
 174 1128 l 5
EndSplineSet
Layer: 3
SplineSet
57 876 m 1
 615 876 l 1
  Spiro
    57 876 {
    615 876 v
    0 0 z
  EndSpiro
244 1260 m 1
 244 304 l 2
 244 278.336 243.132 252.659 243.132 226.999 c 0
 243.132 215.196 243.316 203.396 243.852 191.603 c 0
 244.703 172.888 246.814 154.108 252.23 136.173 c 0
 257.645 118.238 266.571 101.064 280 88 c 0
 294.775 73.6269 314.348 64.8985 334.474 60.4448 c 0
 350.826 56.8261 367.618 55.8678 384.395 55.8678 c 0
 388.266 55.8678 392.136 55.9189 396 56 c 0
 473.444 57.6262 550.627 71.167 624 96 c 0
  Spiro
    244 1260 {
    244 304 ]
    280 88 c
    396 56 c
    624 96 o
    0 0 z
  EndSpiro
EndSplineSet
Substitution2: "'smcp' Lowercase to Single Small Capitals-1" T.c2sc
EndChar

StartChar: u
Encoding: 117 117 88
Width: 1121
GlyphClass: 2
Flags: MW
AnchorPoint: "above" 555 956 basechar 0 25
AnchorPoint: "below" 555 0 basechar 0 24
AnchorPoint: "cedilla" 876 0 basechar 0 27
AnchorPoint: "ogonek" 876 0 basechar 0 27
AnchorPoint: "topright" 907 828 basechar 0 26
LayerCount: 5
Fore
SplineSet
325 431 m 2,0,1
 325 260 325 260 385 185 c 128,-1,2
 445 110 445 110 555 110 c 0,3,4
 614 110 614 110 663 141.5 c 128,-1,5
 712 173 712 173 739 217 c 128,-1,6
 766 261 766 261 781 299.5 c 128,-1,7
 796 338 796 338 796 360 c 2,8,-1
 796 938 l 1,9,-1
 957 938 l 1,10,-1
 957 0 l 1,11,-1
 796 0 l 1,12,-1
 796 172 l 1,13,14
 706 -18 706 -18 503 -18 c 0,15,16
 467 -18 467 -18 427 -8.5 c 128,-1,17
 387 1 387 1 338.5 28 c 128,-1,18
 290 55 290 55 252.5 97 c 128,-1,19
 215 139 215 139 189.5 211 c 128,-1,20
 164 283 164 283 164 375 c 2,21,-1
 164 938 l 1,22,-1
 325 938 l 1,23,-1
 325 431 l 2,0,1
555 0 m 25,24,-1
555 956 m 25,25,-1
907 828 m 25,26,-1
876 0 m 25,27,-1
EndSplineSet
Layer: 2
SplineSet
796 938 m 1
 957 938 l 1
 957 0 l 1
 815 0 l 1
 796 144 l 1
 796 938 l 1
  Spiro
    796 938 v
    957 938 v
    957 0 v
    815 0 v
    796 144 v
    0 0 z
  EndSpiro
324 400 m 2
 324 251 389 110 542 110 c 0
 719.5 110 796 293.6 796 360 c 2
 796 938 l 1
 854 362 l 1
 822 171 733 -18 510 -18 c 0
 380 -18 285 49 228 130 c 0
 183 195 164 271 164 375 c 2
 164 938 l 1
 325 938 l 1
 324 400 l 2
EndSplineSet
Substitution2: "'smcp' Lowercase to Single Small Capitals-1" U.c2sc
EndChar

StartChar: v
Encoding: 118 118 89
Width: 984
GlyphClass: 2
Flags: MW
AnchorPoint: "above" 492 956 basechar 0 8
AnchorPoint: "below" 492 0 basechar 0 7
AnchorPoint: "cedilla" 492 0 basechar 0 7
AnchorPoint: "ogonek" 492 0 basechar 0 7
AnchorPoint: "topright" 846 828 basechar 0 9
LayerCount: 5
Fore
SplineSet
801 938 m 5,0,-1
 963 938 l 5,1,-1
 546 0 l 5,2,-1
 440 0 l 5,3,-1
 21 938 l 5,4,-1
 194 938 l 5,5,-1
 498 266 l 5,6,-1
 801 938 l 5,0,-1
492 0 m 25,7,-1
492 956 m 25,8,-1
846 828 m 25,9,-1
EndSplineSet
Layer: 2
SplineSet
440 0 m 17
 451 184 l 25
 792 938 l 25
 965 938 l 25
 546 0 l 25
 440 0 l 17
546 0 m 9
 440 0 l 25
 21 938 l 25
 194 938 l 25
 535 184 l 25
 546 0 l 9
EndSplineSet
Layer: 3
SplineSet
878 938 m 25
 452 0 l 25
106 938 m 25
 532 0 l 25
EndSplineSet
Substitution2: "'smcp' Lowercase to Single Small Capitals-1" V.c2sc
EndChar

StartChar: w
Encoding: 119 119 90
Width: 1512
GlyphClass: 2
Flags: MW
AnchorPoint: "topright" 1362 828 basechar 0 15
AnchorPoint: "ogonek" 1068 0 basechar 0 16
AnchorPoint: "cedilla" 1068 0 basechar 0 16
AnchorPoint: "below" 756 0 basechar 0 13
AnchorPoint: "above" 756 956 basechar 0 14
LayerCount: 5
Fore
SplineSet
1329 938 m 1,0,-1
 1491 938 l 1,1,-1
 1124 0 l 1,2,-1
 1020 0 l 1,3,-1
 756 671 l 1,4,-1
 494 0 l 1,5,-1
 390 0 l 1,6,-1
 21 938 l 1,7,-1
 194 938 l 1,8,-1
 447 266 l 1,9,-1
 699 938 l 1,10,-1
 824 938 l 1,11,-1
 1077 266 l 1,12,-1
 1329 938 l 1,0,-1
756 0 m 25,13,-1
756 956 m 25,14,-1
1362 828 m 25,15,-1
1068 0 m 25,16,-1
EndSplineSet
Layer: 2
SplineSet
698 819 m 1
 699 938 l 9
 824 938 l 25
 1136 110 l 9
 1020 0 l 25
 698 819 l 1
390 0 m 9
 21 938 l 25
 194 938 l 25
 506 110 l 1
 494 0 l 1
 390 0 l 9
799 780 m 1
 494 0 l 25
 386 103 l 17
 699 938 l 9
 792 879 l 17
 799 780 l 1
1491 938 m 17
 1124 0 l 9
 1020 0 l 17
 1016 104 l 1
 1329 938 l 25
EndSplineSet
Layer: 3
SplineSet
1406 938 m 25
 1032 0 l 25
730 938 m 17
 1104 0 l 9
782 938 m 25
 408 0 l 25
106 938 m 17
 480 0 l 9
EndSplineSet
Substitution2: "'smcp' Lowercase to Single Small Capitals-1" W.c2sc
EndChar

StartChar: x
Encoding: 120 120 91
Width: 945
GlyphClass: 2
Flags: MW
AnchorPoint: "topright" 738 828 basechar 0 14
AnchorPoint: "ogonek" 790 0 basechar 0 15
AnchorPoint: "cedilla" 790 0 basechar 0 15
AnchorPoint: "below" 472 0 basechar 0 12
AnchorPoint: "above" 472 956 basechar 0 13
LayerCount: 5
Fore
SplineSet
61 938 m 1,0,-1
 247 938 l 1,1,-1
 482 592 l 1,2,-1
 726 935 l 1,3,-1
 898 935 l 1,4,-1
 562 474 l 1,5,-1
 883 0 l 1,6,-1
 697 0 l 1,7,-1
 463 345 l 1,8,-1
 218 0 l 1,9,-1
 46 0 l 1,10,-1
 383 463 l 1,11,-1
 61 938 l 1,0,-1
472 0 m 25,12,-1
472 956 m 25,13,-1
738 828 m 25,14,-1
790 0 m 25,15,-1
EndSplineSet
Layer: 2
SplineSet
898 935 m 9
 547 453 l 25
 449 546 l 25
 726 935 l 17
 898 935 l 9
46 0 m 9
 406 495 l 17
 504 402 l 9
 218 0 l 17
 46 0 l 9
61 938 m 1
 247 938 l 1
 883 0 l 9
 697 0 l 17
 61 938 l 1
EndSplineSet
Layer: 3
SplineSet
488 480 m 25
 813 938 l 25
146 0 m 25
 462 468 l 25
146 938 m 25
 813 0 l 25
EndSplineSet
Substitution2: "'smcp' Lowercase to Single Small Capitals-1" X.c2sc
EndChar

StartChar: y
Encoding: 121 121 92
Width: 1027
GlyphClass: 2
Flags: MW
AnchorPoint: "above" 515 956 basechar 0 25
AnchorPoint: "below" 515 -492 basechar 0 24
AnchorPoint: "cedilla" 170 -492 basechar 0 27
AnchorPoint: "ogonek" 170 -492 basechar 0 27
AnchorPoint: "topright" 880 828 basechar 0 26
LayerCount: 5
Fore
SplineSet
24 938 m 1,0,-1
 197 938 l 1,1,-1
 520 207 l 1,2,-1
 844 938 l 1,3,-1
 1006 938 l 1,4,-1
 592 18 l 2,5,6
 503 -187 503 -187 433 -299.5 c 128,-1,7
 363 -412 363 -412 303.5 -454 c 128,-1,8
 244 -496 244 -496 170 -496 c 0,9,10
 70 -496 70 -496 -1 -420 c 1,11,-1
 57 -322 l 1,12,13
 76 -338 76 -338 87.5 -345.5 c 128,-1,14
 99 -353 99 -353 118 -360 c 128,-1,15
 137 -367 137 -367 157 -367 c 0,16,17
 181 -367 181 -367 205 -354 c 128,-1,18
 229 -341 229 -341 253 -313.5 c 128,-1,19
 277 -286 277 -286 298 -255.5 c 128,-1,20
 319 -225 319 -225 343.5 -177.5 c 128,-1,21
 368 -130 368 -130 387 -89 c 128,-1,22
 406 -48 406 -48 433 11 c 1,23,-1
 24 938 l 1,0,-1
  Spiro
    24 938 v
    197 938 v
    520 207 v
    844 938 v
    1006 938 v
    592 18 ]
    507.75 -163.875 o
    433 -299.5 o
    365.625 -394.375 o
    303.5 -454 o
    240.375 -485.5 o
    170 -496 o
    77.25 -477 o
    -1 -420 v
    57 -322 v
    74.125 -335.875 o
    87.5 -345.5 o
    100.875 -352.875 o
    118 -360 o
    137.25 -365.25 o
    157 -367 o
    181 -363.75 o
    205 -354 o
    229 -337.375 o
    253 -313.5 o
    276.25 -285.25 o
    298 -255.5 o
    319.875 -220.75 o
    343.5 -177.5 o
    366.625 -131.625 o
    387 -89 ]
    433 11 v
    0 0 z
  EndSpiro
515 -492 m 25,24,-1
  Spiro
    515 -492 {
    0 0 z
  EndSpiro
515 956 m 25,25,-1
  Spiro
    515 956 {
    0 0 z
  EndSpiro
880 828 m 25,26,-1
  Spiro
    880 828 {
    0 0 z
  EndSpiro
170 -492 m 25,27,-1
  Spiro
    170 -492 {
    0 0 z
  EndSpiro
EndSplineSet
Layer: 2
SplineSet
-1 -420 m 9
 57 -322 l 1
 88 -347 114 -367 157 -367 c 0
 273 -367 367.626 -135.463 477 111 c 10
 844 938 l 17
 1006 938 l 9
 592 18 l 18
 413 -395 311 -496 170 -496 c 0
 78 -496 28 -451 -1 -420 c 9
24 938 m 1
 197 938 l 1
 534 174 l 1
 518 75 l 9
 438 0 l 17
 24 938 l 1
EndSplineSet
Layer: 3
SplineSet
920 938 m 1
 492 -18 l 2
 466.079 -75.8989 440.119 -133.804 411.875 -190.605 c 0
 383.63 -247.407 353.853 -304.329 312 -352 c 0
 293.039 -373.597 271.255 -392.998 246.192 -407.061 c 0
 221.128 -421.124 192.736 -429.508 164 -430 c 0
 123.275 -430.697 83.4493 -415.241 50 -392 c 0
 20.7845 -371.701 -4.48665 -345.746 -24 -316 c 0
  Spiro
    920 938 {
    492 -18 ]
    312 -352 o
    164 -430 o
    50 -392 c
    -24 -316 o
    0 0 z
  EndSpiro
116 938 m 25
 532 28 l 25
  Spiro
    116 938 {
    532 28 v
    0 0 z
  EndSpiro
EndSplineSet
Substitution2: "'smcp' Lowercase to Single Small Capitals-1" Y.c2sc
EndChar

StartChar: z
Encoding: 122 122 93
Width: 972
GlyphClass: 2
Flags: MW
AnchorPoint: "above" 508 956 basechar 0 9
AnchorPoint: "below" 508 0 basechar 0 8
AnchorPoint: "cedilla" 820 0 basechar 0 11
AnchorPoint: "ogonek" 820 0 basechar 0 11
AnchorPoint: "topright" 738 828 basechar 0 10
LayerCount: 5
Fore
SplineSet
111 938 m 1,0,-1
 889 938 l 1,1,-1
 340 128 l 1,2,-1
 905 128 l 1,3,-1
 905 0 l 1,4,-1
 67 0 l 1,5,-1
 616 810 l 1,6,-1
 111 810 l 1,7,-1
 111 938 l 1,0,-1
508 0 m 25,8,-1
508 956 m 25,9,-1
738 828 m 25,10,-1
820 0 m 25,11,-1
EndSplineSet
Layer: 2
SplineSet
206 128 m 25
 905 128 l 25
 905 0 l 17
 67 0 l 9
 206 128 l 25
750 810 m 25
 111 810 l 25
 111 938 l 17
 889 938 l 9
 750 810 l 25
889 938 m 1
 253 0 l 9
 67 0 l 17
 703 938 l 1
 889 938 l 1
EndSplineSet
Layer: 3
SplineSet
866 64 m 25
 122 64 l 25
800 938 m 25
 140 0 l 25
77 874 m 25
 829 874 l 25
EndSplineSet
Substitution2: "'smcp' Lowercase to Single Small Capitals-1" Z.c2sc
EndChar

StartChar: braceleft
Encoding: 123 123 94
Width: 667
GlyphClass: 2
Flags: MW
LayerCount: 5
Fore
SplineSet
214 492 m 1,0,1
 281 470 281 470 320.5 437 c 128,-1,2
 360 404 360 404 383.5 339.5 c 128,-1,3
 407 275 407 275 407 174 c 0,4,5
 407 114 407 114 395 -12 c 128,-1,6
 383 -138 383 -138 383 -156 c 0,7,8
 383 -194 383 -194 387.5 -223.5 c 128,-1,9
 392 -253 392 -253 406.5 -293 c 128,-1,10
 421 -333 421 -333 456.5 -370.5 c 128,-1,11
 492 -408 492 -408 546 -441 c 1,12,-1
 520 -522 l 1,13,14
 222 -441 222 -441 222 -152 c 0,15,16
 222 -76 222 -76 234 31.5 c 128,-1,17
 246 139 246 139 246 174 c 0,18,19
 246 246 246 246 226 302 c 128,-1,20
 206 358 206 358 175.5 388 c 128,-1,21
 145 418 145 418 113.5 432.5 c 128,-1,22
 82 447 82 447 53 447 c 1,23,-1
 53 537 l 1,24,25
 82 537 82 537 113.5 551.5 c 128,-1,26
 145 566 145 566 175.5 596 c 128,-1,27
 206 626 206 626 226 682 c 128,-1,28
 246 738 246 738 246 810 c 0,29,30
 246 845 246 845 234 952.5 c 128,-1,31
 222 1060 222 1060 222 1136 c 0,32,33
 222 1425 222 1425 520 1506 c 1,34,-1
 546 1425 l 1,35,36
 492 1392 492 1392 456.5 1354.5 c 128,-1,37
 421 1317 421 1317 406.5 1277 c 128,-1,38
 392 1237 392 1237 387.5 1207.5 c 128,-1,39
 383 1178 383 1178 383 1140 c 0,40,41
 383 1122 383 1122 395 996 c 128,-1,42
 407 870 407 870 407 810 c 0,43,44
 407 709 407 709 383.5 644.5 c 128,-1,45
 360 580 360 580 320.5 547 c 128,-1,46
 281 514 281 514 214 492 c 1,0,1
EndSplineSet
Layer: 2
SplineSet
214 492 m 5
 339 534 407 603 407 810 c 4
 407 916 383 1090 383 1140 c 4
 383 1222 393 1332 546 1425 c 13
 520 1506 l 21
 372 1466 222 1372 222 1136 c 4
 222 997 246 894 246 810 c 4
 246 606 124 537 53 537 c 5
 53 447 l 5
 124 447 246 378 246 174 c 4
 246 90 222 -13 222 -152 c 4
 222 -388 372 -482 520 -522 c 13
 546 -441 l 21
 393 -348 383 -238 383 -156 c 4
 383 -106 407 68 407 174 c 4
 407 381 339 450 214 492 c 5
EndSplineSet
EndChar

StartChar: bar
Encoding: 124 124 95
Width: 310
GlyphClass: 2
Flags: MW
LayerCount: 5
Fore
SplineSet
210 1477 m 1,0,-1
 210 -488 l 1,1,-1
 100 -488 l 1,2,-1
 100 1477 l 1,3,-1
 210 1477 l 1,0,-1
EndSplineSet
Layer: 2
SplineSet
210 1475 m 5
 210 -490 l 5
 100 -490 l 5
 100 1475 l 5
 210 1475 l 5
EndSplineSet
EndChar

